<svg width="41" height="41" viewBox="0 0 41 41" fill="none" xmlns="http://www.w3.org/2000/svg">
<path d="M34.2995 1.41943H6.33822C3.76846 1.41943 1.67822 3.51561 1.67822 6.09225V34.129C1.67822 36.706 3.76854 38.8022 6.33822 38.8022H34.2995C36.8696 38.8022 38.9599 36.706 38.9599 34.129V6.09232C38.96 3.51561 36.8697 1.41943 34.2995 1.41943Z" fill="#1B80E4"/>
<path d="M33.1346 20.1109H27.3093V15.438C27.3093 14.1482 28.3534 14.27 29.6393 14.27H31.9698V8.42871H27.3093C23.4484 8.42871 20.3192 11.5664 20.3192 15.438V20.1109H15.6591V25.952H20.3192V38.8023H27.3093V25.952H30.8044L33.1346 20.1109Z" fill="#FCFCFC"/>
</svg>
