<svg width="41" height="41" viewBox="0 0 41 41" fill="none" xmlns="http://www.w3.org/2000/svg">
<path d="M27.131 2.0498H13.4691C7.18269 2.0498 2.11597 7.11723 2.11597 13.3746V26.9746C2.11597 33.2324 7.18269 38.3779 13.4691 38.3779H27.131C33.4175 38.3779 38.6003 33.2324 38.6003 26.9746V13.3746C38.6003 7.11723 33.4175 2.0498 27.131 2.0498ZM35.1628 26.9746C35.1628 31.3486 31.5252 34.9404 27.131 34.9404H13.4691C9.07464 34.9404 5.47534 31.3486 5.47534 26.9746V13.3746C5.47534 9.00082 9.07464 5.40918 13.4691 5.40918H27.131C31.5252 5.40918 35.1628 9.00082 35.1628 13.3746V26.9746Z" fill="url(#paint0_linear)"/>
<path d="M20.3 11.1079C15.2702 11.1079 11.1921 15.1674 11.1921 20.1747C11.1921 25.1814 15.2702 29.2407 20.3 29.2407C25.3299 29.2407 29.4078 25.1814 29.4078 20.1747C29.4078 15.1674 25.3299 11.1079 20.3 11.1079ZM20.3 25.841C17.1622 25.841 14.6078 23.298 14.6078 20.1747C14.6078 17.0485 17.1622 14.508 20.3 14.508C23.4377 14.508 25.9923 17.0485 25.9923 20.1747C25.9923 23.298 23.4377 25.841 20.3 25.841Z" fill="url(#paint1_linear)"/>
<path d="M30.091 9.22021C29.4206 9.22021 28.8771 9.76115 28.8771 10.4283C28.8771 11.0955 29.4206 11.6366 30.091 11.6366C30.7607 11.6366 31.3044 11.0955 31.3044 10.4283C31.3044 9.76115 30.7607 9.22021 30.091 9.22021Z" fill="url(#paint2_linear)"/>
<defs>
<linearGradient id="paint0_linear" x1="5.46783" y1="35.0558" x2="35.1908" y2="5.33286" gradientUnits="userSpaceOnUse">
<stop stop-color="#FFC107"/>
<stop offset="0.2211" stop-color="#F98D1C"/>
<stop offset="0.5137" stop-color="#F1423B"/>
<stop offset="0.8329" stop-color="#B93088"/>
<stop offset="0.9944" stop-color="#9C27B0"/>
</linearGradient>
<linearGradient id="paint1_linear" x1="13.8746" y1="26.6" x2="26.7256" y2="13.749" gradientUnits="userSpaceOnUse">
<stop stop-color="#FFC107"/>
<stop offset="0.2211" stop-color="#F98D1C"/>
<stop offset="0.5137" stop-color="#F1423B"/>
<stop offset="0.8329" stop-color="#B93088"/>
<stop offset="0.9944" stop-color="#9C27B0"/>
</linearGradient>
<linearGradient id="paint2_linear" x1="29.2346" y1="11.2846" x2="30.947" y2="9.57219" gradientUnits="userSpaceOnUse">
<stop stop-color="#FFC107"/>
<stop offset="0.2211" stop-color="#F98D1C"/>
<stop offset="0.5137" stop-color="#F1423B"/>
<stop offset="0.8329" stop-color="#B93088"/>
<stop offset="0.9944" stop-color="#9C27B0"/>
</linearGradient>
</defs>
</svg>
