<svg width="41" height="41" viewBox="0 0 41 41" fill="none" xmlns="http://www.w3.org/2000/svg">
<g clip-path="url(#clip0)">
<path d="M40.3101 8.14801C38.8388 8.80176 37.2588 9.24301 35.5976 9.43926C37.2913 8.42426 38.5926 6.81676 39.2063 4.90176C37.6201 5.84051 35.8651 6.52551 33.9963 6.89176C32.4988 5.29801 30.3663 4.30176 28.0051 4.30176C23.4738 4.30176 19.8026 7.97426 19.8026 12.5055C19.8026 13.148 19.8738 13.7755 20.0138 14.3755C13.1951 14.033 7.15007 10.7668 3.10257 5.80301C2.39757 7.01551 1.99257 8.42426 1.99257 9.92801C1.99257 12.7755 3.44132 15.2855 5.64132 16.758C4.29757 16.7143 3.03257 16.3468 1.92632 15.7318C1.92507 15.7655 1.92507 15.8018 1.92507 15.8343C1.92507 19.8105 4.75257 23.1268 8.50632 23.8805C7.81882 24.0668 7.09382 24.168 6.34507 24.168C5.81507 24.168 5.30257 24.1168 4.80257 24.0218C5.84507 27.2793 8.87632 29.6518 12.4651 29.7193C9.65882 31.9193 6.12132 33.233 2.27757 33.233C1.61507 33.233 0.961318 33.1943 0.320068 33.118C3.95007 35.443 8.26257 36.8018 12.8963 36.8018C27.9863 36.8018 36.2401 24.3005 36.2401 13.458C36.2401 13.103 36.2301 12.748 36.2151 12.3955C37.8188 11.2393 39.2088 9.79551 40.3101 8.14801Z" fill="#55ACEE"/>
</g>
<defs>
<clipPath id="clip0">
<rect width="40" height="40" fill="white" transform="translate(0.319092 0.551758)"/>
</clipPath>
</defs>
</svg>
