<svg width="26" height="26" viewBox="0 0 26 26" fill="none" xmlns="http://www.w3.org/2000/svg">
<path d="M24.5646 0H1.43542C0.642417 0 0 0.642416 0 1.43541V24.5656C0 25.3576 0.642417 26 1.43542 26H13.8883V15.9315H10.4997V12.0076H13.8883V9.11409C13.8883 5.75575 15.9391 3.92709 18.9356 3.92709C20.371 3.92709 21.6038 4.03434 21.9635 4.082V7.592L19.8857 7.59309C18.2563 7.59309 17.9411 8.36766 17.9411 9.503V12.0088H21.827L21.3211 15.9326H17.9411V26H24.5668C25.3576 26 26 25.3576 26 24.5646V1.43541C26 0.642416 25.3576 0 24.5646 0Z" fill="white"/>
</svg>
