<svg width="448" height="512" viewBox="0 0 448 512" fill="none" xmlns="http://www.w3.org/2000/svg">
<g clip-path="url(#clip0)">
<path d="M400 32H48C35.2696 32 23.0606 37.0571 14.0589 46.0589C5.05713 55.0606 0 67.2696 0 80L0 432C0 444.73 5.05713 456.939 14.0589 465.941C23.0606 474.943 35.2696 480 48 480H185.25V327.69H122.25V256H185.25V201.36C185.25 139.21 222.25 104.88 278.92 104.88C306.06 104.88 334.44 109.72 334.44 109.72V170.72H303.17C272.36 170.72 262.75 189.84 262.75 209.45V256H331.53L320.53 327.69H262.75V480H400C412.73 480 424.939 474.943 433.941 465.941C442.943 456.939 448 444.73 448 432V80C448 67.2696 442.943 55.0606 433.941 46.0589C424.939 37.0571 412.73 32 400 32V32Z" fill="white"/>
</g>
<defs>
<clipPath id="clip0">
<rect width="448" height="512" fill="white"/>
</clipPath>
</defs>
</svg>
