<svg width="26" height="26" viewBox="0 0 26 26" fill="none" xmlns="http://www.w3.org/2000/svg">
<path d="M25.5074 9.68906C25.7055 9.53164 26 9.67891 26 9.92773V20.3125C26 21.6582 24.9082 22.75 23.5625 22.75H2.4375C1.0918 22.75 0 21.6582 0 20.3125V9.93281C0 9.67891 0.289453 9.53672 0.492578 9.69414C1.63008 10.5777 3.13828 11.7 8.31797 15.4629C9.38945 16.2449 11.1973 17.8902 13 17.8801C14.8129 17.8953 16.6562 16.2145 17.6871 15.4629C22.8668 11.7 24.3699 10.5727 25.5074 9.68906ZM13 16.25C14.1781 16.2703 15.8742 14.7672 16.7273 14.1477C23.466 9.25742 23.9789 8.83086 25.5328 7.61211C25.8273 7.38359 26 7.02813 26 6.65234V5.6875C26 4.3418 24.9082 3.25 23.5625 3.25H2.4375C1.0918 3.25 0 4.3418 0 5.6875V6.65234C0 7.02813 0.172656 7.37852 0.467187 7.61211C2.02109 8.82578 2.53398 9.25742 9.27266 14.1477C10.1258 14.7672 11.8219 16.2703 13 16.25Z" fill="white"/>
</svg>
