<svg width="26" height="26" viewBox="0 0 26 26" fill="none" xmlns="http://www.w3.org/2000/svg">
<g clip-path="url(#clip0)">
<path d="M13.0057 7.16017C9.31468 7.16017 6.33745 9.76525 6.33745 12.9949C6.33745 16.2246 9.31468 18.8297 13.0057 18.8297C16.6968 18.8297 19.674 16.2246 19.674 12.9949C19.674 9.76525 16.6968 7.16017 13.0057 7.16017ZM13.0057 16.7883C10.6205 16.7883 8.67048 15.0871 8.67048 12.9949C8.67048 10.9027 10.6147 9.20157 13.0057 9.20157C15.3968 9.20157 17.341 10.9027 17.341 12.9949C17.341 15.0871 15.391 16.7883 13.0057 16.7883ZM21.5022 6.92149C21.5022 7.67813 20.8057 8.28243 19.9468 8.28243C19.0821 8.28243 18.3915 7.67306 18.3915 6.92149C18.3915 6.16993 19.0879 5.56056 19.9468 5.56056C20.8057 5.56056 21.5022 6.16993 21.5022 6.92149ZM25.9187 8.30274C25.82 6.4797 25.3441 4.86485 23.8178 3.53438C22.2973 2.20391 20.4517 1.78751 18.3682 1.6961C16.2209 1.58946 9.78477 1.58946 7.63745 1.6961C5.55977 1.78243 3.71424 2.19883 2.1879 3.5293C0.661565 4.85977 0.191476 6.47462 0.0870116 8.29767C-0.0348632 10.1766 -0.0348632 15.8082 0.0870116 17.6871C0.185672 19.5102 0.661565 21.125 2.1879 22.4555C3.71424 23.786 5.55397 24.2024 7.63745 24.2938C9.78477 24.4004 16.2209 24.4004 18.3682 24.2938C20.4517 24.2074 22.2973 23.791 23.8178 22.4555C25.3383 21.125 25.8142 19.5102 25.9187 17.6871C26.0406 15.8082 26.0406 10.1817 25.9187 8.30274ZM23.1446 19.7031C22.6919 20.6985 21.8156 21.4653 20.6723 21.8664C18.9602 22.4606 14.8977 22.3235 13.0057 22.3235C11.1138 22.3235 7.04549 22.4555 5.33924 21.8664C4.20174 21.4703 3.3254 20.7035 2.86692 19.7031C2.1879 18.2051 2.3446 14.6504 2.3446 12.9949C2.3446 11.3395 2.19371 7.7797 2.86692 6.28673C3.3196 5.29141 4.19594 4.52462 5.33924 4.12345C7.05129 3.5293 11.1138 3.66641 13.0057 3.66641C14.8977 3.66641 18.966 3.53438 20.6723 4.12345C21.8098 4.51954 22.6861 5.28634 23.1446 6.28673C23.8236 7.78478 23.6669 11.3395 23.6669 12.9949C23.6669 14.6504 23.8236 18.2102 23.1446 19.7031Z" fill="white"/>
</g>
<defs>
<clipPath id="clip0">
<rect width="26" height="26" fill="white"/>
</clipPath>
</defs>
</svg>
