<svg width="26" height="26" viewBox="0 0 26 26" fill="none" xmlns="http://www.w3.org/2000/svg">
<path d="M26 4.93681C25.0434 5.36148 24.0153 5.64748 22.9363 5.77639C24.0381 5.11664 24.8842 4.07123 25.2818 2.82539C24.2515 3.43639 23.1097 3.88056 21.8942 4.11998C20.9224 3.08323 19.5347 2.43539 18.0007 2.43539C14.5567 2.43539 12.0261 5.64856 12.8039 8.98414C8.372 8.76206 4.44167 6.63873 1.81025 3.41148C0.41275 5.80889 1.0855 8.94515 3.46017 10.5333C2.587 10.5051 1.76367 10.2657 1.04542 9.86598C0.986917 12.337 2.75817 14.6488 5.3235 15.1634C4.57275 15.3671 3.7505 15.4148 2.91417 15.2544C3.59233 17.3734 5.56183 18.915 7.8975 18.9583C5.655 20.7166 2.82967 21.502 0 21.1683C2.36058 22.6818 5.16533 23.5647 8.177 23.5647C18.0808 23.5647 23.6763 15.2003 23.3382 7.69823C24.3804 6.94531 25.285 6.00606 26 4.93681Z" fill="white"/>
</svg>
