<?xml version="1.0" standalone="no"?>
<!DOCTYPE svg PUBLIC "-//W3C//DTD SVG 20010904//EN"
 "http://www.w3.org/TR/2001/REC-SVG-20010904/DTD/svg10.dtd">
<svg version="1.0" xmlns="http://www.w3.org/2000/svg"
 width="700.000000pt" height="700.000000pt" viewBox="0 0 700.000000 700.000000"
 preserveAspectRatio="xMidYMid meet">
<metadata>
Created by potrace 1.14, written by Peter Selinger 2001-2017
</metadata>
<g transform="translate(0.000000,700.000000) scale(0.100000,-0.100000)"
fill="#000000" stroke="none">
<path d="M0 3500 l0 -3500 3500 0 3500 0 0 3500 0 3500 -3500 0 -3500 0 0
-3500z m2567 1809 c249 -34 436 -124 556 -267 62 -73 140 -233 166 -342 33
-133 45 -340 32 -543 -17 -268 -59 -433 -148 -587 -46 -79 -171 -206 -236
-240 -26 -14 -45 -29 -43 -35 7 -15 494 -1228 516 -1285 l20 -50 -271 2 -272
3 -222 625 -222 625 -97 3 -96 3 0 -631 0 -630 -250 0 -250 0 0 1680 0 1680
369 0 c206 0 404 -5 448 -11z m2349 -623 c162 -43 280 -173 328 -363 32 -122
35 -265 36 -1310 l0 -1053 -250 0 -249 0 -3 1093 c-3 999 -5 1096 -20 1142
-32 92 -96 139 -193 140 -84 0 -157 -37 -230 -117 l-55 -61 0 -1099 0 -1098
-250 0 -250 0 0 1355 0 1355 194 0 194 0 10 -62 c6 -35 16 -99 23 -142 l12
-80 26 35 c73 96 163 174 259 223 99 51 307 72 418 42z"/>
<path d="M2250 4270 l0 -683 123 6 c67 3 145 12 172 21 113 35 187 112 225
232 31 102 40 203 40 464 0 339 -19 429 -109 523 -70 75 -159 105 -333 114
l-118 6 0 -683z"/>
</g>
</svg>
