<svg width="300" height="300" viewBox="0 0 300 300" fill="none" xmlns="http://www.w3.org/2000/svg">
<rect width="300" height="300" fill="#0A81AB"/>
<path d="M243.63 231.028L236.309 157.812H228.437L235.058 243.887L243.63 231.028Z" fill="white"/>
<path d="M258.24 240.865L251.852 157.812H244.16L251.446 230.674L258.24 240.865Z" fill="white"/>
<path d="M239.33 251.563H255.982L247.656 239.073L239.33 251.563Z" fill="white"/>
<path d="M176.418 150L173.661 103.125H165.825L168.169 150H176.418Z" fill="white"/>
<path d="M134.687 251.562H227.813L220.602 157.812H141.898L134.687 251.562ZM157.812 177.344C157.812 176.308 158.224 175.314 158.957 174.582C159.689 173.849 160.683 173.438 161.719 173.438C162.755 173.438 163.748 173.849 164.481 174.582C165.213 175.314 165.625 176.308 165.625 177.344V208.594C165.628 211.701 166.864 214.679 169.061 216.876C171.258 219.073 174.237 220.309 177.344 220.312H185.156C188.263 220.309 191.242 219.073 193.439 216.876C195.636 214.679 196.872 211.701 196.875 208.594V177.344C196.875 176.308 197.287 175.314 198.019 174.582C198.752 173.849 199.745 173.438 200.781 173.438C201.817 173.438 202.811 173.849 203.543 174.582C204.276 175.314 204.688 176.308 204.688 177.344V208.594C204.682 213.772 202.622 218.736 198.961 222.398C195.299 226.06 190.334 228.119 185.156 228.125H177.344C172.166 228.119 167.201 226.06 163.539 222.398C159.878 218.736 157.818 213.772 157.812 208.594V177.344Z" fill="white"/>
<path d="M191.597 150L189.253 103.125H181.487L184.245 150H191.597Z" fill="white"/>
<path d="M67.9688 165.625H83.5938V140.372L75.7812 135.164L67.9688 140.372V165.625Z" fill="white"/>
<path d="M126.852 251.562L134.386 153.606C134.462 152.625 134.905 151.709 135.627 151.04C136.349 150.371 137.297 150 138.281 150H160.347L158.003 103.125H142.187V114.844C142.187 115.88 141.776 116.873 141.043 117.606C140.311 118.338 139.317 118.75 138.281 118.75C137.245 118.75 136.252 118.338 135.519 117.606C134.787 116.873 134.375 115.88 134.375 114.844V103.125H79.6875V128.378L89.667 135.031C90.202 135.388 90.6407 135.871 90.9441 136.438C91.2475 137.005 91.4062 137.638 91.4062 138.281V169.531C91.4062 170.567 90.9947 171.561 90.2621 172.293C89.5296 173.026 88.536 173.438 87.5 173.438H64.0625C63.0265 173.438 62.0329 173.026 61.3004 172.293C60.5678 171.561 60.1563 170.567 60.1563 169.531V138.281C60.1563 137.638 60.315 137.005 60.6184 136.438C60.9218 135.871 61.3605 135.388 61.8955 135.031L71.875 128.378V103.125H48.2471L40.8252 251.562H126.852Z" fill="white"/>
<path d="M165.625 75.7812V95.3125H157.812V75.7812C157.804 68.5317 154.921 61.5814 149.795 56.4551C144.669 51.3289 137.718 48.4455 130.469 48.4375C130.024 48.4375 129.58 48.4473 129.141 48.4668C122.128 48.8125 115.516 51.8406 110.674 56.9248C105.832 62.009 103.129 68.76 103.125 75.7812V95.3125H95.3125V75.7812C95.3125 66.4572 99.0165 57.5151 105.61 50.922C112.203 44.329 121.145 40.625 130.469 40.625C139.793 40.625 148.735 44.329 155.328 50.922C161.921 57.5151 165.625 66.4572 165.625 75.7812V75.7812Z" fill="white"/>
<path d="M142.188 75.7812V95.3125H134.375V75.7812C134.371 68.76 131.668 62.009 126.826 56.9248C121.984 51.8406 115.372 48.8125 108.359 48.4668C107.92 48.4473 107.476 48.4375 107.031 48.4375C99.7817 48.4455 92.8314 51.3289 87.7052 56.4551C82.5789 61.5814 79.6955 68.5317 79.6875 75.7812V95.3125H71.875V75.7812C71.875 66.4572 75.579 57.5151 82.172 50.922C88.7651 44.329 97.7072 40.625 107.031 40.625C116.355 40.625 125.297 44.329 131.89 50.922C138.484 57.5151 142.187 66.4572 142.188 75.7812V75.7812Z" fill="white"/>
</svg>
