<svg width="300" height="300" viewBox="0 0 300 300" fill="none" xmlns="http://www.w3.org/2000/svg">
<rect width="300" height="300" fill="url(#paint0_linear)"/>
<g clip-path="url(#clip0)">
<path d="M246.539 81.1656C243.686 77.7058 239.458 75.723 234.939 75.723H118.894C116.517 75.723 114.588 77.6519 114.588 80.0289C114.588 82.4058 116.517 84.3347 118.894 84.3347H234.937C236.902 84.3347 238.664 85.155 239.893 86.6449C241.142 88.1605 241.641 90.1585 241.264 92.1027L224.056 178.15C223.388 181.225 220.781 183.371 217.715 183.371H122.001L82.4831 64.3961C80.3471 58.2945 74.5643 54.1953 67.9417 54.1953C67.9397 54.1953 67.9374 54.1953 67.935 54.1953C62.3179 54.3891 56.6214 54.3871 55.2261 54.2922C53.8374 53.9906 52.3366 54.3781 51.2605 55.4547C49.5788 57.1363 49.5788 59.8617 51.2605 61.5433C52.5933 62.8762 53.0433 63.3262 68.0839 62.8051C70.9042 62.8051 73.4253 64.5879 74.3319 67.1754L114.808 189.035C115.393 190.794 117.038 191.983 118.894 191.983H217.715C224.867 191.983 230.934 187.046 232.486 179.909L249.716 93.7663C250.586 89.2628 249.43 84.6706 246.539 81.1656Z" fill="white"/>
<path d="M215.778 215.668H137.41C134.76 215.668 132.269 213.842 131.371 211.28L122.974 186.305C122.217 184.051 119.769 182.835 117.521 183.597C115.267 184.352 114.055 186.796 114.812 189.05L123.226 214.074C125.364 220.177 131.063 224.277 137.41 224.277H215.777C218.154 224.277 220.083 222.35 220.083 219.973C220.083 217.596 218.155 215.668 215.778 215.668Z" fill="white"/>
<path d="M140.424 215.665C132.114 215.665 125.353 222.428 125.353 230.736C125.353 239.044 132.114 245.807 140.424 245.807C148.735 245.807 155.495 239.044 155.495 230.736C155.495 222.428 148.735 215.665 140.424 215.665ZM140.424 237.195C136.863 237.195 133.965 234.297 133.965 230.736C133.965 227.175 136.863 224.277 140.424 224.277C143.985 224.277 146.883 227.175 146.883 230.736C146.883 234.297 143.985 237.195 140.424 237.195Z" fill="white"/>
<path d="M215.778 215.665C207.47 215.665 200.707 222.428 200.707 230.736C200.707 239.044 207.47 245.807 215.778 245.807C224.086 245.807 230.848 239.044 230.848 230.736C230.848 222.428 224.086 215.665 215.778 215.665ZM215.778 237.195C212.217 237.195 209.319 234.297 209.319 230.736C209.319 227.175 212.217 224.277 215.778 224.277C219.339 224.277 222.237 227.175 222.237 230.736C222.237 234.297 219.339 237.195 215.778 237.195Z" fill="white"/>
</g>
<defs>
<linearGradient id="paint0_linear" x1="150" y1="0" x2="150" y2="300" gradientUnits="userSpaceOnUse">
<stop stop-color="#0C4271"/>
<stop offset="0.5" stop-color="#0A81AB"/>
<stop offset="1" stop-color="#0C4271"/>
</linearGradient>
<clipPath id="clip0">
<rect width="200" height="200" fill="white" transform="translate(50 50)"/>
</clipPath>
</defs>
</svg>
