<svg id="Solid" height="512" viewBox="0 0 512 512" width="512" xmlns="http://www.w3.org/2000/svg"><path d="m447.755 421.946-14.995-149.946h-16.121l13.56 176.28z"/><path d="m477.676 442.091-13.084-170.091h-15.752l14.922 149.221z"/><path d="m438.948 464h34.104l-17.052-25.578z"/><path d="m310.105 256-5.648-96h-16.047l4.8 96z"/><path d="m224.639 464h190.722l-14.769-192h-161.184zm47.361-152a8 8 0 0 1 16 0v64a24.027 24.027 0 0 0 24 24h16a24.027 24.027 0 0 0 24-24v-64a8 8 0 0 1 16 0v64a40.045 40.045 0 0 1 -40 40h-16a40.045 40.045 0 0 1 -40-40z"/><path d="m341.19 256-4.8-96h-15.905l5.648 96z"/><path d="m88 288h32v-51.719l-16-10.666-16 10.666z"/><path d="m208.592 464 15.431-200.614a8 8 0 0 1 7.977-7.386h45.19l-4.8-96h-32.39v24a8 8 0 0 1 -16 0v-24h-112v51.719l20.438 13.625a8 8 0 0 1 3.562 6.656v64a8 8 0 0 1 -8 8h-48a8 8 0 0 1 -8-8v-64a8 8 0 0 1 3.562-6.656l20.438-13.625v-51.719h-48.39l-15.2 304z"/><path d="m288 104v40h-16v-40a56.062 56.062 0 0 0 -56-56c-.91 0-1.82.02-2.72.06a56.039 56.039 0 0 0 -53.28 55.94v40h-16v-40a72 72 0 0 1 144 0z"/><path d="m240 104v40h-16v-40a56.039 56.039 0 0 0 -53.28-55.94c-.9-.04-1.81-.06-2.72-.06a56.062 56.062 0 0 0 -56 56v40h-16v-40a72 72 0 0 1 144 0z"/></svg>