<svg width="848" height="656" viewBox="0 0 848 656" fill="none" xmlns="http://www.w3.org/2000/svg">
<g clip-path="url(#clip0)">
<path d="M37.5938 637.288C64.0163 656.322 98.2579 657.278 131.356 654.94C135.978 654.614 140.567 654.231 145.113 653.818C145.141 653.811 145.177 653.814 145.205 653.807C145.423 653.786 145.642 653.765 145.851 653.753C146.79 653.665 147.729 653.577 148.658 653.489L148.439 653.908L147.749 655.208C147.997 654.773 148.245 654.347 148.492 653.911C148.565 653.781 148.647 653.651 148.719 653.52C157.293 638.599 165.798 623.13 167.967 606.093C170.209 588.408 163.908 568.383 148.343 559.691C146.302 558.555 144.14 557.649 141.898 556.992C140.967 556.709 140.024 556.48 139.07 556.277C133.233 554.981 127.155 555.263 121.463 557.094C115.771 558.925 110.669 562.239 106.682 566.695C102.696 571.152 99.9679 576.59 98.7794 582.45C97.591 588.31 97.9849 594.381 99.9205 600.039C86.7247 586.508 89.1863 564.557 93.7382 546.211C98.299 527.866 103.82 507.453 94.544 490.975C89.3876 481.804 80.3197 476.113 70.1434 473.821C69.8312 473.754 69.5194 473.686 69.2066 473.628C57.0818 471.172 44.4767 473.381 33.9092 479.813C14.4511 492.075 4.45722 515.323 1.21362 538.097C-4.01243 574.745 7.55289 615.644 37.5938 637.288Z" fill="#F2F2F2"/>
<path d="M46.1247 578.541C46.8917 586.624 48.8335 594.553 51.8888 602.076C54.7045 608.733 58.4997 614.933 63.1486 620.468C72.6451 631.891 85.2022 640.48 98.8396 646.203C109.267 650.473 120.192 653.409 131.356 654.94C135.978 654.614 140.567 654.231 145.113 653.818C145.141 653.811 145.177 653.814 145.205 653.807C145.423 653.786 145.642 653.765 145.851 653.753C146.79 653.665 147.729 653.577 148.658 653.489L148.439 653.908L147.749 655.208C147.997 654.773 148.245 654.347 148.492 653.911C148.565 653.781 148.647 653.651 148.719 653.52C140.35 645.181 134.101 634.958 130.496 623.707C126.892 612.456 126.036 600.505 128.002 588.855C130.059 577.288 134.82 566.37 141.898 556.992C140.967 556.709 140.024 556.48 139.07 556.277C136.38 559.954 134.02 563.862 132.019 567.956C124.837 582.553 122.545 599.074 125.484 615.075C128.216 629.554 135.022 642.954 145.104 653.7C144.221 653.638 143.33 653.566 142.457 653.486C125.936 652.086 109.448 648.535 94.4623 641.259C81.6532 635.191 70.5327 626.067 62.0803 614.689C53.0046 602.173 49.0055 587.117 48.3185 571.815C47.59 555.433 49.7156 538.763 53.4543 522.832C57.2718 506.499 63.0736 490.696 70.7303 475.772C70.9015 475.434 70.9361 475.043 70.8268 474.679C70.7176 474.316 70.4729 474.009 70.1434 473.821C69.8687 473.636 69.5321 473.567 69.2066 473.628C69.0474 473.67 68.8997 473.748 68.7746 473.855C68.6495 473.962 68.5501 474.096 68.4841 474.247C67.5395 476.091 66.6125 477.935 65.7208 479.801C58.2941 495.338 52.8264 511.738 49.4433 528.624C46.159 544.913 44.406 561.953 46.1247 578.541Z" fill="white"/>
<path d="M830.693 564H393.693C389.186 563.995 384.865 562.202 381.678 559.015C378.491 555.828 376.698 551.507 376.693 547V17C376.698 12.4929 378.491 8.17181 381.678 4.98479C384.865 1.79777 389.186 0.00507387 393.693 0H830.693C835.2 0.00507387 839.521 1.79777 842.708 4.98479C845.895 8.17181 847.688 12.4929 847.693 17V547C847.688 551.507 845.895 555.828 842.708 559.015C839.521 562.202 835.2 563.995 830.693 564V564ZM393.693 2C389.716 2.0045 385.903 3.58629 383.091 6.39836C380.279 9.21043 378.697 13.0231 378.693 17V547C378.697 550.977 380.279 554.79 383.091 557.602C385.903 560.414 389.716 561.996 393.693 562H830.693C834.67 561.996 838.482 560.414 841.294 557.602C844.107 554.79 845.688 550.977 845.693 547V17C845.688 13.0231 844.107 9.21043 841.294 6.39836C838.482 3.58629 834.67 2.0045 830.693 2H393.693Z" fill="#3F3D56"/>
<path d="M846.693 41.5903H377.693V43.5903H846.693V41.5903Z" fill="#3F3D56"/>
<path d="M400.693 30C405.111 30 408.693 26.4183 408.693 22C408.693 17.5817 405.111 14 400.693 14C396.275 14 392.693 17.5817 392.693 22C392.693 26.4183 396.275 30 400.693 30Z" fill="#3F3D56"/>
<path d="M425.693 30C430.111 30 433.693 26.4183 433.693 22C433.693 17.5817 430.111 14 425.693 14C421.275 14 417.693 17.5817 417.693 22C417.693 26.4183 421.275 30 425.693 30Z" fill="#3F3D56"/>
<path d="M450.693 30C455.111 30 458.693 26.4183 458.693 22C458.693 17.5817 455.111 14 450.693 14C446.275 14 442.693 17.5817 442.693 22C442.693 26.4183 446.275 30 450.693 30Z" fill="#3F3D56"/>
<path d="M762.953 121H450.953C447.505 121 444.198 119.63 441.76 117.192C439.322 114.754 437.953 111.448 437.953 108C437.953 104.552 439.322 101.246 441.76 98.8076C444.198 96.3696 447.505 95 450.953 95H762.953C766.401 95 769.707 96.3696 772.145 98.8076C774.583 101.246 775.953 104.552 775.953 108C775.953 111.448 774.583 114.754 772.145 117.192C769.707 119.63 766.401 121 762.953 121V121ZM450.953 97C448.035 97 445.237 98.1589 443.175 100.222C441.112 102.285 439.953 105.083 439.953 108C439.953 110.917 441.112 113.715 443.175 115.778C445.237 117.841 448.035 119 450.953 119H762.953C765.87 119 768.668 117.841 770.731 115.778C772.794 113.715 773.953 110.917 773.953 108C773.953 105.083 772.794 102.285 770.731 100.222C768.668 98.1589 765.87 97 762.953 97H450.953Z" fill="#3F3D56"/>
<path d="M567.693 304H444.693C440.186 303.995 435.865 302.202 432.678 299.015C429.491 295.828 427.698 291.507 427.693 287V186C427.698 181.493 429.491 177.172 432.678 173.985C435.865 170.798 440.186 169.005 444.693 169H567.693C572.2 169.005 576.521 170.798 579.708 173.985C582.895 177.172 584.688 181.493 584.693 186V287C584.688 291.507 582.895 295.828 579.708 299.015C576.521 302.202 572.2 303.995 567.693 304V304ZM444.693 171C440.716 171.004 436.903 172.586 434.091 175.398C431.279 178.21 429.697 182.023 429.693 186V287C429.697 290.977 431.279 294.79 434.091 297.602C436.903 300.414 440.716 301.996 444.693 302H567.693C571.67 301.996 575.482 300.414 578.294 297.602C581.107 294.79 582.688 290.977 582.693 287V186C582.688 182.023 581.107 178.21 578.294 175.398C575.482 172.586 571.67 171.004 567.693 171H444.693Z" fill="#3F3D56"/>
<path d="M779.693 174H656.693C647.856 174 640.693 181.163 640.693 190V291C640.693 299.837 647.856 307 656.693 307H779.693C788.529 307 795.693 299.837 795.693 291V190C795.693 181.163 788.529 174 779.693 174Z" fill="#F2F2F2"/>
<path d="M567.693 492H444.693C440.186 491.995 435.865 490.202 432.678 487.015C429.491 483.828 427.698 479.507 427.693 475V374C427.698 369.493 429.491 365.172 432.678 361.985C435.865 358.798 440.186 357.005 444.693 357H567.693C572.2 357.005 576.521 358.798 579.708 361.985C582.895 365.172 584.688 369.493 584.693 374V475C584.688 479.507 582.895 483.828 579.708 487.015C576.521 490.202 572.2 491.995 567.693 492V492ZM444.693 359C440.716 359.004 436.903 360.586 434.091 363.398C431.279 366.21 429.697 370.023 429.693 374V475C429.697 478.977 431.279 482.79 434.091 485.602C436.903 488.414 440.716 489.996 444.693 490H567.693C571.67 489.996 575.482 488.414 578.294 485.602C581.107 482.79 582.688 478.977 582.693 475V374C582.688 370.023 581.107 366.21 578.294 363.398C575.482 360.586 571.67 359.004 567.693 359H444.693Z" fill="#3F3D56"/>
<path d="M779.693 362H656.693C647.856 362 640.693 369.163 640.693 378V479C640.693 487.837 647.856 495 656.693 495H779.693C788.529 495 795.693 487.837 795.693 479V378C795.693 369.163 788.529 362 779.693 362Z" fill="#F2F2F2"/>
<path d="M475.585 279.573C475.563 279.573 475.54 279.572 475.518 279.571L461.528 279.053C461.092 279.04 460.675 278.869 460.355 278.573C460.034 278.277 459.832 277.874 459.785 277.44C458.822 268.849 454.86 225.069 471.46 206.873C473.81 204.246 476.715 202.174 479.964 200.809C483.214 199.444 486.727 198.82 490.248 198.981C490.391 198.99 490.534 198.96 490.661 198.893C490.788 198.827 490.895 198.727 490.969 198.605L494.356 193.283C494.541 192.994 494.804 192.764 495.114 192.617C495.423 192.47 495.768 192.413 496.109 192.452C498.824 192.78 512.665 194.329 518.485 192.644C518.828 192.542 519.194 192.544 519.536 192.65C519.878 192.755 520.181 192.959 520.408 193.235L524.856 198.671C524.932 198.769 525.031 198.848 525.144 198.9C525.257 198.952 525.381 198.977 525.505 198.972C527.767 198.926 535.699 199.364 542.64 207.128C550.157 215.536 557.914 234.504 552.184 277.124C552.124 277.562 551.908 277.964 551.575 278.255C551.243 278.546 550.816 278.707 550.374 278.709H539.356C538.919 278.707 538.496 278.549 538.166 278.262C537.835 277.976 537.617 277.581 537.553 277.148L533.953 252.312C533.924 252.108 533.818 251.923 533.658 251.793C533.498 251.662 533.295 251.597 533.089 251.61C532.883 251.622 532.69 251.712 532.547 251.861C532.404 252.01 532.322 252.207 532.318 252.413L532.07 264.074C532.062 264.42 531.956 264.756 531.764 265.044C531.573 265.332 531.303 265.56 530.987 265.701C527.059 267.428 506.304 275.528 483.365 265.383C483.054 265.243 482.789 265.021 482.598 264.739C482.406 264.458 482.297 264.129 482.282 263.789L481.831 253.194C481.822 252.987 481.735 252.792 481.589 252.646C481.442 252.5 481.245 252.415 481.038 252.408C480.831 252.4 480.629 252.472 480.472 252.607C480.316 252.742 480.216 252.931 480.192 253.137L477.396 277.955C477.344 278.399 477.131 278.809 476.797 279.107C476.464 279.405 476.032 279.571 475.585 279.573V279.573Z" fill="#0A81AB"/>
<path d="M533.459 462.539H533.448L478.627 462.192C478.228 462.189 477.845 462.041 477.547 461.775C477.25 461.509 477.061 461.144 477.013 460.748L471.499 413.875C471.465 413.572 471.324 413.292 471.1 413.086C470.876 412.88 470.585 412.762 470.281 412.753C465.929 412.611 455.575 411.619 453.429 405.49C451.518 400.031 456.745 391.98 468.964 381.559C469.172 381.381 469.421 381.258 469.689 381.201C469.956 381.144 470.234 381.155 470.496 381.234C470.758 381.312 470.996 381.454 471.189 381.648C471.382 381.842 471.523 382.082 471.6 382.344L477.943 404.229C478.021 404.492 478.18 404.723 478.398 404.888C478.617 405.053 478.882 405.144 479.156 405.147L531.135 405.496C531.407 405.499 531.673 405.414 531.893 405.253C532.113 405.093 532.276 404.865 532.357 404.605L539.415 382.147C539.493 381.897 539.631 381.668 539.816 381.482C540.002 381.296 540.229 381.158 540.48 381.078C540.73 380.999 540.996 380.981 541.255 381.026C541.513 381.071 541.757 381.178 541.966 381.337C546.782 385.016 562.298 397.644 559.744 405.721C558.407 409.951 552.374 412.309 541.814 412.73C541.511 412.74 541.221 412.859 540.998 413.065C540.776 413.271 540.634 413.55 540.6 413.852L535.083 461.093C535.037 461.492 534.846 461.859 534.546 462.126C534.247 462.392 533.86 462.539 533.459 462.539V462.539Z" fill="#0A81AB"/>
<path d="M773.693 265.153C756.466 268.47 740.221 275.665 726.188 286.192C725.478 284.303 724.14 282.715 722.4 281.694C721.211 280.957 719.914 280.411 718.556 280.078C717.32 279.763 716.133 280.515 715.042 281.597C713.788 282.985 712.736 284.543 711.917 286.225C693.091 273.302 664.533 265.056 664.533 265.056V262.472C664.556 261.863 664.618 261.256 664.719 260.655C664.816 259.96 664.937 259.346 665.09 258.595C667.513 246.271 677.092 218.109 677.092 218.109H687.922L708.92 222.47L732.544 221.024L756.337 216.073L759.422 215.427C764.567 219.465 770.406 247.733 772.7 259.766C772.99 261.293 773.216 262.553 773.386 263.482C773.588 264.531 773.693 265.153 773.693 265.153Z" fill="white"/>
<path d="M709.069 389.219C709.069 389.219 704.039 390.476 696.237 411.608C688.435 432.739 685.671 460.041 685.671 460.041C685.671 460.041 681.284 467.47 700.01 467.967C700.01 467.967 698.503 472.874 709.069 472.121C719.635 471.367 718.114 471.375 718.114 471.375C718.114 471.375 724.907 467.097 727.926 467.85C730.946 468.604 732.833 468.859 736.101 471.623C739.369 474.387 749.818 473.261 749.942 471.126C750.026 470.077 750.026 469.024 749.942 467.975C749.942 467.975 765.919 468.984 762.899 457.409C759.879 445.834 757.364 426.838 757.364 426.838C757.364 426.838 749.189 389.731 739.874 389.226C730.559 388.722 709.069 389.219 709.069 389.219Z" fill="white"/>
<path d="M192.64 353.596C209.209 353.596 222.64 340.165 222.64 323.596C222.64 307.027 209.209 293.596 192.64 293.596C176.072 293.596 162.64 307.027 162.64 323.596C162.64 340.165 176.072 353.596 192.64 353.596Z" fill="#2F2E41"/>
<path d="M195.16 353.653C208.725 353.653 219.721 342.657 219.721 329.092C219.721 315.527 208.725 304.531 195.16 304.531C181.595 304.531 170.599 315.527 170.599 329.092C170.599 342.657 181.595 353.653 195.16 353.653Z" fill="#FFB8B8"/>
<path d="M288.699 403.797C288.309 404.19 287.95 404.612 287.626 405.061L238.064 403.31L232.395 392.679L215.233 399.137L223.439 418.933C224.102 420.532 225.266 421.873 226.756 422.754C228.246 423.636 229.982 424.01 231.703 423.821L287.787 417.663C289.09 419.35 290.876 420.6 292.907 421.248C294.938 421.895 297.118 421.909 299.157 421.287C301.196 420.665 302.997 419.437 304.321 417.766C305.645 416.096 306.429 414.062 306.569 411.935C306.709 409.808 306.198 407.688 305.104 405.859C304.01 404.029 302.385 402.576 300.445 401.693C298.505 400.81 296.342 400.538 294.244 400.914C292.145 401.29 290.211 402.295 288.699 403.797H288.699Z" fill="#FFB8B8"/>
<path d="M208.631 408.696C208 408.412 207.437 407.996 206.981 407.476C206.525 406.955 206.186 406.342 205.989 405.678L199.085 382.509C197.586 379.301 197.421 375.629 198.625 372.298C199.829 368.968 202.305 366.251 205.51 364.743C208.714 363.235 212.386 363.059 215.719 364.254C219.053 365.449 221.777 367.917 223.294 371.118L236.666 391.352C237.048 391.93 237.3 392.583 237.407 393.267C237.513 393.951 237.471 394.65 237.283 395.316C237.095 395.982 236.766 396.6 236.317 397.127C235.869 397.655 235.313 398.079 234.685 398.372L212.643 408.666C212.016 408.959 211.332 409.114 210.64 409.119C209.948 409.124 209.263 408.98 208.631 408.696V408.696Z" fill="#CCCCCC"/>
<path d="M257.446 643.927L268.214 638.065L250.729 593.743L234.837 602.394L257.446 643.927Z" fill="#FFB8B8"/>
<path d="M252.786 641.906L273.992 630.363L273.992 630.362C275.767 629.396 277.715 628.789 279.724 628.576C281.733 628.362 283.765 628.547 285.703 629.119C287.641 629.691 289.447 630.639 291.019 631.908C292.59 633.178 293.896 634.745 294.862 636.52L295.101 636.959L260.382 655.86L252.786 641.906Z" fill="#2F2E41"/>
<path d="M138.959 643.975H151.218L157.051 596.687L138.956 596.688L138.959 643.975Z" fill="#FFB8B8"/>
<path d="M135.831 639.973L159.975 639.972H159.976C161.997 639.972 163.998 640.37 165.864 641.143C167.731 641.916 169.427 643.049 170.856 644.478C172.285 645.907 173.418 647.603 174.191 649.47C174.965 651.337 175.363 653.337 175.363 655.358V655.858L135.832 655.859L135.831 639.973Z" fill="#2F2E41"/>
<path d="M215.14 434.096L219.14 482.096L263.759 615.952C263.934 616.478 263.998 617.035 263.947 617.588C263.895 618.14 263.729 618.676 263.46 619.161C263.19 619.646 262.822 620.07 262.38 620.405C261.938 620.74 261.431 620.979 260.891 621.108L247.216 624.364C246.34 624.572 245.42 624.479 244.603 624.1C243.787 623.721 243.123 623.077 242.717 622.273L185.673 509.12C185.487 508.752 185.192 508.449 184.827 508.255C184.463 508.061 184.047 507.985 183.637 508.036C183.227 508.088 182.844 508.265 182.539 508.544C182.234 508.822 182.022 509.189 181.934 509.592L156.83 623.954C156.635 624.844 156.141 625.641 155.43 626.213C154.72 626.784 153.835 627.096 152.923 627.096H140.201C139.671 627.097 139.147 626.992 138.658 626.787C138.169 626.583 137.726 626.284 137.354 625.906C136.982 625.529 136.688 625.081 136.491 624.59C136.294 624.098 136.197 623.572 136.205 623.042C137.37 543.745 133.525 453.388 164.14 439.096L169.14 426.096L215.14 434.096Z" fill="#2F2E41"/>
<path d="M167.7 429.5L162.545 398.322C161.691 393.21 162.139 387.964 163.846 383.07C165.553 378.175 168.465 373.79 172.313 370.317C176.075 366.877 180.642 364.44 185.593 363.23C190.544 362.019 195.721 362.075 200.645 363.392C200.937 363.47 201.229 363.551 201.522 363.633C207.581 365.368 212.961 368.92 216.936 373.811C220.911 378.701 223.29 384.693 223.75 390.979C224.734 404.519 223.853 424.162 214.072 440.849L213.882 441.173L167.7 429.5Z" fill="#CCCCCC"/>
<path d="M219.593 316.038C213.981 319.907 207.319 321.965 200.502 321.938C202.934 323.624 205.702 324.763 208.616 325.276C199.553 327.22 190.186 327.273 181.102 325.431C179.083 325.107 177.134 324.438 175.342 323.452C174.449 322.954 173.671 322.273 173.059 321.453C172.446 320.634 172.013 319.695 171.787 318.698C171.184 315.249 173.871 312.116 176.663 310.005C180.939 306.821 185.868 304.628 191.096 303.583C196.323 302.539 201.717 302.669 206.888 303.965C210.264 304.838 213.646 306.312 215.839 309.024C218.032 311.735 218.682 315.915 216.592 318.707L219.593 316.038Z" fill="#2F2E41"/>
<path d="M192.245 293.448C195.092 281.952 184.888 269.18 173.047 269.419C161.034 269.662 152.194 280.518 146.117 290.884C140.04 301.249 134 313 122.844 317.463C119.152 318.94 115.151 319.477 111.201 319.027C107.25 318.578 103.473 317.154 100.207 314.885C96.942 312.616 94.2908 309.572 92.4915 306.027C90.6922 302.481 89.801 298.544 89.8977 294.569C88.3998 307.162 90.475 320.788 98.5965 330.528C106.718 340.269 121.83 344.659 132.692 338.113C138.895 334.374 142.861 327.875 146.13 321.412C149.399 314.949 152.307 308.133 157.261 302.848C162.214 297.564 169.873 294.056 176.766 296.28C179.503 297.162 181.957 298.883 184.785 299.406C187.612 299.929 191.171 298.586 191.557 295.737L192.245 293.448Z" fill="#2F2E41"/>
<path d="M133.049 501.891C132.029 500.696 131.284 499.292 130.866 497.778C130.448 496.265 130.367 494.677 130.628 493.129C130.89 491.58 131.487 490.108 132.379 488.815C133.272 487.523 134.436 486.442 135.791 485.648L157.097 390.151L178.709 399.021L150.971 490.103C152.153 492.468 152.427 495.184 151.741 497.737C151.054 500.291 149.455 502.504 147.246 503.957C145.036 505.41 142.371 506.002 139.755 505.621C137.138 505.24 134.752 503.913 133.049 501.891H133.049Z" fill="#FFB8B8"/>
<path d="M148.655 403.85C148.315 403.248 148.109 402.579 148.051 401.889C147.993 401.199 148.084 400.505 148.319 399.854L156.512 377.108C157.209 373.636 159.255 370.582 162.2 368.616C165.146 366.65 168.751 365.932 172.225 366.62C175.7 367.308 178.759 369.345 180.733 372.286C182.708 375.226 183.435 378.829 182.757 382.305L181.512 406.527C181.476 407.219 181.292 407.894 180.972 408.508C180.652 409.122 180.203 409.659 179.657 410.084C179.11 410.508 178.478 410.81 177.805 410.969C177.131 411.127 176.431 411.139 175.752 411.002L151.902 406.207C151.223 406.071 150.581 405.79 150.021 405.383C149.461 404.976 148.995 404.454 148.655 403.85Z" fill="#CCCCCC"/>
<path d="M323.215 393.14L322.86 393.092L324.196 383.369C324.402 381.876 324.006 380.364 323.095 379.163C322.185 377.963 320.835 377.173 319.343 376.968L298.743 374.136C297.251 373.931 295.738 374.327 294.537 375.238C293.337 376.148 292.547 377.498 292.342 378.99L285.01 432.331C284.804 433.823 285.201 435.336 286.111 436.536C287.021 437.737 288.371 438.526 289.863 438.732L310.463 441.563C311.956 441.768 313.468 441.372 314.669 440.462C315.869 439.552 316.659 438.202 316.864 436.709L321.909 400.012L322.263 400.061L323.215 393.14Z" fill="#3F3D56"/>
<path d="M318.695 379.82L316.131 379.468C316.209 379.773 316.211 380.093 316.136 380.399C316.061 380.706 315.913 380.989 315.703 381.224C315.493 381.46 315.228 381.64 314.933 381.749C314.637 381.858 314.319 381.892 314.006 381.849L302.75 380.302C302.438 380.259 302.141 380.14 301.885 379.955C301.63 379.77 301.424 379.525 301.285 379.242C301.147 378.959 301.08 378.646 301.091 378.331C301.101 378.016 301.19 377.709 301.347 377.436L298.952 377.106C298.425 377.034 297.89 377.066 297.376 377.201C296.862 377.335 296.379 377.57 295.956 377.891C295.533 378.212 295.177 378.613 294.908 379.072C294.64 379.53 294.465 380.038 294.392 380.564L287.408 431.368C287.336 431.895 287.368 432.43 287.503 432.944C287.637 433.458 287.872 433.941 288.193 434.364C288.514 434.787 288.915 435.143 289.374 435.412C289.833 435.68 290.34 435.855 290.866 435.928L310.609 438.642C311.672 438.788 312.75 438.506 313.605 437.857C314.46 437.209 315.023 436.247 315.169 435.184V435.184L322.153 384.38C322.299 383.317 322.017 382.239 321.368 381.384C320.72 380.529 319.758 379.966 318.695 379.82L318.695 379.82Z" fill="white"/>
<path d="M304.693 422C310.768 422 315.693 417.075 315.693 411C315.693 404.925 310.768 400 304.693 400C298.618 400 293.693 404.925 293.693 411C293.693 417.075 298.618 422 304.693 422Z" fill="#0A81AB"/>
<path d="M303.603 415.196C303.355 415.197 303.114 415.117 302.916 414.968L302.904 414.959L300.319 412.98C300.199 412.888 300.098 412.774 300.022 412.643C299.946 412.513 299.896 412.368 299.876 412.218C299.856 412.069 299.866 411.916 299.905 411.77C299.944 411.624 300.011 411.487 300.103 411.367C300.195 411.248 300.309 411.147 300.44 411.071C300.571 410.996 300.716 410.947 300.865 410.927C301.015 410.908 301.168 410.918 301.313 410.957C301.459 410.996 301.596 411.064 301.716 411.156L303.39 412.44L307.347 407.28C307.439 407.16 307.553 407.06 307.684 406.984C307.814 406.909 307.959 406.86 308.108 406.84C308.258 406.82 308.41 406.83 308.555 406.869C308.701 406.908 308.838 406.976 308.957 407.067L308.933 407.101L308.958 407.068C309.199 407.253 309.357 407.527 309.397 407.829C309.437 408.131 309.356 408.436 309.171 408.678L304.516 414.748C304.409 414.888 304.27 415.001 304.112 415.079C303.953 415.157 303.779 415.197 303.603 415.196Z" fill="white"/>
<path d="M406.075 656H25.0748C24.8096 656 24.5552 655.895 24.3677 655.707C24.1801 655.52 24.0748 655.265 24.0748 655C24.0748 654.735 24.1801 654.48 24.3677 654.293C24.5552 654.105 24.8096 654 25.0748 654H406.075C406.34 654 406.594 654.105 406.782 654.293C406.969 654.48 407.075 654.735 407.075 655C407.075 655.265 406.969 655.52 406.782 655.707C406.594 655.895 406.34 656 406.075 656Z" fill="#3F3D56"/>
</g>
<defs>
<clipPath id="clip0">
<rect width="847.693" height="656" fill="white"/>
</clipPath>
</defs>
</svg>
