<svg width="662" height="647" viewBox="0 0 662 647" fill="none" xmlns="http://www.w3.org/2000/svg">
<g clip-path="url(#clip0)">
<path d="M442.626 279.412L435.637 295.721L392.768 352.569C392.768 352.569 363.412 384.255 379.72 386.119C396.029 387.983 406.747 356.763 406.747 356.763L457.071 306.904L462.663 284.072L442.626 279.412Z" fill="#9F616A"/>
<path d="M464.06 213.245L457.306 215.136C457.306 215.136 426.977 295.706 429.773 305.491C432.568 315.276 445.15 327.391 450.741 326.459C456.333 325.527 464.06 213.245 464.06 213.245Z" fill="#0A81AB"/>
<path d="M558.438 627.297C558.438 627.297 555.472 642.16 564.387 636.212C573.302 630.263 577.949 618.759 577.949 618.759L558.438 627.297Z" fill="#2F2E41"/>
<path d="M452.877 291.993C452.877 291.993 358.286 625.626 391.836 635.411C425.385 645.196 474.778 634.479 474.312 627.956C473.846 621.432 465.458 492.359 465.458 492.359C465.458 492.359 514.385 663.835 574.961 623.762C635.536 583.689 622.023 576.233 616.432 573.437C610.84 570.642 526.5 437.841 526.966 413.145C527.432 388.449 526.034 311.098 515.783 299.449L452.877 291.993Z" fill="#2F2E41"/>
<path d="M661.535 646.154H87.455V643.972H661.93L661.535 646.154Z" fill="#3F3D56"/>
<path d="M512.958 173.373C509.318 170.082 507.048 165.542 506.598 160.656C506.148 155.769 507.55 150.891 510.527 146.99C510.133 147.359 509.748 147.743 509.379 148.151C505.902 152.001 504.096 157.075 504.359 162.257C504.622 167.438 506.931 172.303 510.779 175.783C514.628 179.262 519.7 181.071 524.882 180.812C530.063 180.553 534.93 178.247 538.412 174.401C538.781 173.994 539.124 173.572 539.452 173.143C535.869 176.496 531.157 178.381 526.25 178.424C521.343 178.467 516.598 176.664 512.958 173.373V173.373Z" fill="#2F2E41"/>
<path d="M511.123 178.064C533.384 178.064 551.429 160.019 551.429 137.758C551.429 115.498 533.384 97.4521 511.123 97.4521C488.863 97.4521 470.817 115.498 470.817 137.758C470.817 160.019 488.863 178.064 511.123 178.064Z" fill="#2F2E41"/>
<path d="M402.553 634.013C402.553 634.013 391.836 644.731 402.553 644.731C413.27 644.731 423.521 637.741 423.521 637.741L402.553 634.013Z" fill="#2F2E41"/>
<path d="M485.495 162.92C485.495 162.92 492.485 191.81 487.359 197.402C482.233 202.994 471.05 207.187 471.05 207.187L472.914 259.376C472.914 259.376 494.348 251.92 495.28 250.988C496.212 250.056 515.317 219.768 515.317 219.768L533.956 202.062C533.956 202.062 505.532 188.549 513.919 165.25C522.306 141.952 485.495 162.92 485.495 162.92Z" fill="#9F616A"/>
<path d="M526.653 153.289C528.797 140.079 519.826 127.633 506.617 125.49C493.408 123.346 480.962 132.317 478.818 145.526C476.675 158.735 485.645 171.181 498.855 173.325C512.064 175.468 524.51 166.498 526.653 153.289Z" fill="#9F616A"/>
<path d="M515.783 299.449C515.783 299.449 526.5 264.035 531.626 259.376C536.751 254.716 549.333 210.915 549.333 210.915C549.333 210.915 541.411 200.198 534.888 200.198C528.364 200.198 522.306 202.528 514.851 209.517C511.34 212.809 504.936 216.43 499.143 219.341C497.087 220.392 494.842 221.022 492.54 221.195C490.237 221.369 487.924 221.081 485.733 220.35C483.543 219.619 481.521 218.459 479.784 216.938C478.047 215.416 476.631 213.564 475.618 211.489C474.46 209.028 474.079 206.67 475.244 204.858C475.244 204.858 458.003 209.517 457.071 216.041C456.139 222.564 457.071 236.077 455.673 238.873C454.275 241.669 450.082 245.863 451.945 263.569C453.809 281.276 450 303.667 450 303.667C467.406 320.276 491.521 310.023 515.783 299.449Z" fill="#0A81AB"/>
<path d="M502.503 141.719C513.826 141.719 523.005 135.46 523.005 127.74C523.005 120.02 513.826 113.761 502.503 113.761C491.18 113.761 482 120.02 482 127.74C482 135.46 491.18 141.719 502.503 141.719Z" fill="#2F2E41"/>
<path d="M537.45 126.808C548.259 126.808 557.021 118.046 557.021 107.237C557.021 96.4288 548.259 87.6667 537.45 87.6667C526.642 87.6667 517.88 96.4288 517.88 107.237C517.88 118.046 526.642 126.808 537.45 126.808Z" fill="#2F2E41"/>
<path d="M551.429 121.216C546.522 121.216 541.794 119.371 538.182 116.048C534.571 112.726 532.34 108.167 531.932 103.277C531.887 103.815 531.859 104.358 531.859 104.908C531.86 110.096 533.921 115.072 537.589 118.741C541.257 122.411 546.233 124.473 551.421 124.475C556.61 124.477 561.587 122.419 565.258 118.753C568.929 115.087 570.995 110.113 571 104.924V104.908C571 104.358 570.972 103.815 570.927 103.277C570.519 108.167 568.288 112.726 564.676 116.048C561.065 119.371 556.337 121.216 551.429 121.216V121.216Z" fill="#2F2E41"/>
<path d="M505.528 420.53H499.018L486.008 534.01L528.918 532.57L505.528 420.53Z" fill="#0A81AB"/>
<path opacity="0.2" d="M505.528 420.53H499.018L486.008 534.01L528.918 532.57L505.528 420.53Z" fill="black"/>
<path d="M503.358 419.08L495.408 533.29L592.798 540.52L600.748 429.2L503.358 419.08Z" fill="#0A81AB"/>
<path opacity="0.2" d="M536.148 430.65C536.949 430.65 537.598 430.001 537.598 429.2C537.598 428.399 536.949 427.75 536.148 427.75C535.347 427.75 534.698 428.399 534.698 429.2C534.698 430.001 535.347 430.65 536.148 430.65Z" fill="black"/>
<path opacity="0.2" d="M566.508 434.26C567.309 434.26 567.958 433.611 567.958 432.81C567.958 432.009 567.309 431.36 566.508 431.36C565.707 431.36 565.058 432.009 565.058 432.81C565.058 433.611 565.707 434.26 566.508 434.26Z" fill="black"/>
<path d="M566.868 432.82H566.148C566.148 432.51 566.658 402.02 549.148 399.21C545.698 398.66 542.878 399.44 540.768 401.53C533.538 408.7 536.528 428.95 536.558 429.15L535.848 429.26C535.718 428.41 532.778 408.44 540.268 401.02C542.548 398.75 545.588 397.9 549.268 398.49C567.388 401.39 566.878 432.51 566.868 432.82Z" fill="#3F3D56"/>
<path d="M550.73 275.219L548.401 301.313L553.06 379.595C553.06 379.595 563.778 419.202 547.469 418.27C531.16 417.339 537.217 376.799 537.217 376.799L529.762 285.936L550.73 275.219Z" fill="#9F616A"/>
<path d="M537.217 204.392L549.332 210.915C549.332 210.915 565.641 321.763 556.322 332.48C547.003 343.198 527.898 347.391 526.966 343.198C526.034 339.004 522.772 253.784 522.772 253.784L537.217 204.392Z" fill="#0A81AB"/>
<path d="M65.9616 0H52.3726C51.8948 0 51.4366 0.18981 51.0987 0.527679C50.7608 0.865549 50.571 1.3238 50.571 1.80162V7.76622C50.571 8.24404 50.7608 8.70229 51.0987 9.04016C51.4366 9.37803 51.8948 9.56784 52.3726 9.56784H54.6245V18.5048H63.7097V9.56784H65.9616C66.4394 9.56784 66.8976 9.37803 67.2355 9.04016C67.5734 8.70229 67.7632 8.24404 67.7632 7.76622V1.80162C67.7632 1.32381 67.5734 0.86557 67.2355 0.527702C66.8977 0.189835 66.4394 1.59126e-05 65.9616 0V0Z" fill="#E6E6E6"/>
<path d="M79.5724 54.588C71.2502 42.4102 66.9956 27.9108 67.4184 13.167C67.426 12.8268 67.3156 12.4945 67.1059 12.2265C66.8963 11.9585 66.6003 11.7712 66.2683 11.6967V9.11938H51.9165V11.6608H51.7188C51.5254 11.6611 51.3339 11.6994 51.1554 11.7737C50.9768 11.8479 50.8146 11.9566 50.678 12.0935C50.5415 12.2304 50.4332 12.3929 50.3594 12.5717C50.2857 12.7504 50.2478 12.942 50.2481 13.1354C50.2481 13.1711 50.2495 13.2069 50.2521 13.2426C51.3827 29.0035 47.5648 43.1377 38.7983 55.645C38.2938 56.3637 38.0361 57.2267 38.0638 58.1044L39.6331 106.647C39.6708 107.73 40.1252 108.756 40.9015 109.512C41.6778 110.268 42.716 110.694 43.7993 110.703H76.2608C77.3566 110.694 78.4055 110.258 79.1842 109.487C79.9629 108.716 80.4098 107.671 80.4296 106.576L81.0344 59.4445C81.0523 57.7147 80.5423 56.0205 79.5724 54.588V54.588Z" fill="#E6E6E6"/>
<path d="M74.4337 70.7123H46.1785C45.7603 70.7123 45.3469 70.8027 44.9669 70.9774C44.5869 71.1521 44.2491 71.4069 43.9768 71.7243C43.7045 72.0418 43.504 72.4143 43.3892 72.8165C43.2743 73.2187 43.2478 73.6409 43.3113 74.0543L47.5811 101.808H72.0987L77.2849 74.1478C77.3635 73.7288 77.3487 73.2977 77.2417 72.8851C77.1348 72.4725 76.9382 72.0886 76.666 71.7606C76.3937 71.4326 76.0526 71.1686 75.6668 70.9874C75.2809 70.8062 74.8599 70.7123 74.4337 70.7123V70.7123Z" fill="white"/>
<path d="M217.233 145.416H203.644C203.166 145.416 202.708 145.605 202.37 145.943C202.032 146.281 201.842 146.739 201.842 147.217V153.182C201.842 153.66 202.032 154.118 202.37 154.456C202.708 154.794 203.166 154.983 203.644 154.983H205.896V163.92H214.981V154.983H217.233C217.711 154.983 218.169 154.794 218.507 154.456C218.845 154.118 219.035 153.66 219.035 153.182V147.217C219.035 146.739 218.845 146.281 218.507 145.943C218.169 145.605 217.711 145.416 217.233 145.416V145.416Z" fill="#E6E6E6"/>
<path d="M230.844 200.004C222.521 187.826 218.267 173.326 218.69 158.583C218.697 158.242 218.587 157.91 218.377 157.642C218.168 157.374 217.872 157.187 217.54 157.112V154.535H203.188V157.076H202.99C202.797 157.077 202.605 157.115 202.427 157.189C202.248 157.264 202.086 157.372 201.949 157.509C201.813 157.646 201.705 157.809 201.631 157.987C201.557 158.166 201.519 158.358 201.519 158.551C201.519 158.587 201.521 158.622 201.523 158.658C202.654 174.419 198.836 188.553 190.07 201.061C189.565 201.779 189.307 202.642 189.335 203.52L190.904 252.063C190.942 253.145 191.397 254.172 192.173 254.927C192.949 255.683 193.987 256.11 195.071 256.118H227.532C228.628 256.11 229.677 255.673 230.456 254.902C231.234 254.131 231.681 253.087 231.701 251.991L232.306 204.86C232.324 203.13 231.814 201.436 230.844 200.004V200.004Z" fill="#E6E6E6"/>
<path d="M225.705 216.128H197.45C197.032 216.128 196.618 216.218 196.238 216.393C195.858 216.568 195.52 216.823 195.248 217.14C194.976 217.457 194.775 217.83 194.66 218.232C194.546 218.634 194.519 219.057 194.583 219.47L198.852 247.223H223.37L228.556 219.563C228.635 219.145 228.62 218.713 228.513 218.301C228.406 217.888 228.209 217.504 227.937 217.176C227.665 216.848 227.324 216.584 226.938 216.403C226.552 216.222 226.131 216.128 225.705 216.128V216.128Z" fill="white"/>
<path d="M46.8573 350.991H40.4115C40.1848 350.991 39.9675 351.081 39.8072 351.241C39.6469 351.401 39.5569 351.619 39.5569 351.845V354.674C39.5569 354.901 39.6469 355.118 39.8072 355.279C39.9675 355.439 40.1848 355.529 40.4115 355.529H41.4796V359.768H45.7892V355.529H46.8573C47.084 355.529 47.3013 355.439 47.4616 355.279C47.6219 355.118 47.7119 354.901 47.7119 354.674V351.845C47.7119 351.619 47.6219 351.401 47.4616 351.241C47.3013 351.081 47.084 350.991 46.8573 350.991Z" fill="#E6E6E6"/>
<path d="M53.3136 376.884C49.3659 371.108 47.3478 364.23 47.5484 357.236C47.5519 357.075 47.4996 356.917 47.4001 356.79C47.3007 356.663 47.1603 356.574 47.0028 356.539V355.316H40.1951V356.522H40.1013C40.0096 356.522 39.9188 356.54 39.8341 356.575C39.7494 356.611 39.6724 356.662 39.6076 356.727C39.5429 356.792 39.4915 356.869 39.4565 356.954C39.4215 357.039 39.4036 357.13 39.4037 357.221C39.4037 357.238 39.4043 357.255 39.4056 357.272C40.034 364.408 38.1086 371.536 33.9725 377.386C33.7333 377.727 33.611 378.136 33.6241 378.552L34.3685 401.578C34.3864 402.092 34.602 402.579 34.9702 402.937C35.3384 403.296 35.8309 403.498 36.3448 403.502H51.7428C52.2625 403.498 52.7601 403.291 53.1294 402.925C53.4988 402.559 53.7108 402.064 53.7202 401.544L54.0071 379.188C54.0155 378.367 53.7736 377.564 53.3136 376.884V376.884Z" fill="#E6E6E6"/>
<path d="M51.0975 385.348H36.4053V392.694H51.0975V385.348Z" fill="white"/>
<path d="M76.863 350.991H70.4171C70.1905 350.991 69.9731 351.081 69.8129 351.241C69.6526 351.401 69.5626 351.619 69.5626 351.845V354.674C69.5626 354.901 69.6526 355.118 69.8129 355.279C69.9731 355.439 70.1905 355.529 70.4171 355.529H71.4853V359.768H75.7948V355.529H76.863C77.0897 355.529 77.307 355.439 77.4673 355.279C77.6276 355.118 77.7176 354.901 77.7176 354.674V351.845C77.7176 351.733 77.6955 351.622 77.6526 351.518C77.6096 351.414 77.5466 351.32 77.4673 351.241C77.3879 351.162 77.2937 351.099 77.19 351.056C77.0863 351.013 76.9752 350.991 76.863 350.991V350.991Z" fill="#E6E6E6"/>
<path d="M83.3192 376.884C79.3715 371.108 77.3534 364.23 77.5539 357.236C77.5575 357.075 77.5052 356.917 77.4057 356.79C77.3063 356.663 77.1659 356.574 77.0084 356.539V355.316H70.2007V356.522H70.1069C70.0152 356.522 69.9244 356.54 69.8397 356.575C69.755 356.611 69.678 356.662 69.6132 356.727C69.5485 356.792 69.4971 356.869 69.4621 356.954C69.4271 357.039 69.4092 357.13 69.4093 357.221C69.4093 357.238 69.4099 357.255 69.4112 357.272C70.0395 364.408 68.1142 371.536 63.9781 377.386C63.7388 377.727 63.6166 378.136 63.6297 378.552L64.3741 401.578C64.392 402.092 64.6076 402.579 64.9758 402.937C65.344 403.296 65.8365 403.498 66.3504 403.502H81.7484C82.2681 403.498 82.7657 403.291 83.1351 402.925C83.5044 402.559 83.7164 402.064 83.7258 401.544L84.0126 379.188C84.0211 378.367 83.7792 377.564 83.3192 376.884V376.884Z" fill="#E6E6E6"/>
<path d="M81.1031 385.348H66.4109V392.694H81.1031V385.348Z" fill="white"/>
<path d="M106.869 350.991H100.423C100.196 350.991 99.9787 351.081 99.8185 351.241C99.6582 351.401 99.5681 351.619 99.5681 351.845V354.674C99.5681 354.901 99.6582 355.118 99.8185 355.279C99.9787 355.439 100.196 355.529 100.423 355.529H101.491V359.768H105.8V355.529H106.869C107.095 355.529 107.313 355.439 107.473 355.279C107.633 355.118 107.723 354.901 107.723 354.674V351.845C107.723 351.619 107.633 351.401 107.473 351.241C107.313 351.081 107.095 350.991 106.869 350.991V350.991Z" fill="#E6E6E6"/>
<path d="M113.325 376.884C109.377 371.108 107.359 364.23 107.56 357.236C107.563 357.075 107.511 356.917 107.411 356.79C107.312 356.663 107.172 356.574 107.014 356.539V355.316H100.206V356.522H100.113C100.021 356.522 99.9301 356.54 99.8453 356.575C99.7606 356.611 99.6837 356.662 99.6189 356.727C99.5541 356.792 99.5028 356.869 99.4678 356.954C99.4328 357.039 99.4148 357.13 99.415 357.221C99.415 357.238 99.4156 357.255 99.4169 357.272C100.045 364.408 98.1199 371.536 93.9838 377.386C93.7445 377.727 93.6223 378.136 93.6354 378.552L94.3798 401.578C94.3977 402.092 94.6133 402.579 94.9815 402.937C95.3497 403.296 95.8422 403.498 96.3561 403.502H111.754C112.274 403.498 112.771 403.291 113.141 402.925C113.51 402.559 113.722 402.064 113.731 401.544L114.018 379.188C114.027 378.367 113.785 377.564 113.325 376.884V376.884Z" fill="#E6E6E6"/>
<path d="M111.109 385.348H96.4166V392.694H111.109V385.348Z" fill="white"/>
<path d="M193.626 294.735H180.037C179.559 294.735 179.101 294.925 178.763 295.263C178.425 295.601 178.235 296.059 178.235 296.537V302.501C178.235 302.979 178.425 303.437 178.763 303.775C179.101 304.113 179.559 304.303 180.037 304.303H182.289V313.24H191.374V304.303H193.626C193.862 304.303 194.097 304.256 194.315 304.166C194.534 304.075 194.732 303.942 194.9 303.775C195.067 303.608 195.2 303.409 195.29 303.191C195.381 302.972 195.427 302.738 195.427 302.501V296.537C195.427 296.059 195.238 295.601 194.9 295.263C194.562 294.925 194.104 294.735 193.626 294.735V294.735Z" fill="#E6E6E6"/>
<path d="M207.237 349.323C198.914 337.145 194.66 322.646 195.083 307.902C195.09 307.562 194.98 307.229 194.77 306.961C194.56 306.693 194.264 306.506 193.932 306.432V303.854H179.581V306.396H179.383C179.19 306.396 178.998 306.434 178.82 306.509C178.641 306.583 178.479 306.692 178.342 306.828C178.206 306.965 178.097 307.128 178.024 307.307C177.95 307.485 177.912 307.677 177.912 307.87C177.912 307.906 177.914 307.942 177.916 307.978C179.047 323.739 175.229 337.873 166.462 350.38C165.958 351.099 165.7 351.962 165.728 352.839L167.297 401.382C167.335 402.465 167.789 403.491 168.566 404.247C169.342 405.003 170.38 405.429 171.464 405.438H203.925C205.021 405.429 206.07 404.993 206.848 404.222C207.627 403.451 208.074 402.406 208.094 401.311L208.699 354.18C208.716 352.45 208.206 350.755 207.237 349.323V349.323Z" fill="#E6E6E6"/>
<path d="M202.098 365.447H173.843C173.424 365.447 173.011 365.538 172.631 365.712C172.251 365.887 171.913 366.142 171.641 366.459C171.369 366.777 171.168 367.149 171.053 367.551C170.938 367.954 170.912 368.376 170.975 368.789L175.245 396.543H199.763L204.949 368.883C205.028 368.464 205.013 368.033 204.906 367.62C204.799 367.208 204.602 366.824 204.33 366.496C204.058 366.168 203.717 365.904 203.331 365.722C202.945 365.541 202.524 365.447 202.098 365.447V365.447Z" fill="white"/>
<path d="M201.044 116.952H120.041C125.704 86.3334 124.401 49.3603 120.041 9.59827H201.044C196.8 49.3604 195.532 86.3335 201.044 116.952Z" fill="#E6E6E6"/>
<path d="M161.031 79.8662C171.811 79.8662 180.55 71.1273 180.55 60.3473C180.55 49.5674 171.811 40.8285 161.031 40.8285C150.251 40.8285 141.512 49.5674 141.512 60.3473C141.512 71.1273 150.251 79.8662 161.031 79.8662Z" fill="white"/>
<path d="M126.873 259.44H45.8693C51.5326 228.821 50.2297 191.848 45.8693 152.086H126.873C122.628 191.848 121.36 228.821 126.873 259.44Z" fill="#E6E6E6"/>
<path d="M86.859 222.354C97.639 222.354 106.378 213.615 106.378 202.835C106.378 192.055 97.639 183.316 86.859 183.316C76.079 183.316 67.3401 192.055 67.3401 202.835C67.3401 213.615 76.079 222.354 86.859 222.354Z" fill="white"/>
<path d="M246.914 123.784H165.91C171.574 93.165 170.271 56.1919 165.91 16.4299H246.914C242.669 56.192 241.401 93.1651 246.914 123.784Z" fill="#E6E6E6"/>
<path d="M206.9 86.6978C217.68 86.6978 226.419 77.9589 226.419 67.1789C226.419 56.3989 217.68 47.66 206.9 47.66C196.12 47.66 187.381 56.3989 187.381 67.1789C187.381 77.9589 196.12 86.6978 206.9 86.6978Z" fill="white"/>
<path d="M246.914 118.904H165.91C171.574 88.2853 170.271 51.3122 165.91 11.5501H246.914C242.669 51.3123 241.401 88.2853 246.914 118.904Z" fill="#E6E6E6"/>
<path d="M206.9 81.8181C217.68 81.8181 226.419 73.0792 226.419 62.2992C226.419 51.5192 217.68 42.7803 206.9 42.7803C196.12 42.7803 187.381 51.5192 187.381 62.2992C187.381 73.0792 196.12 81.8181 206.9 81.8181Z" fill="white"/>
<path d="M246.914 123.784H165.91C171.574 93.165 170.271 56.1919 165.91 16.4299H246.914C242.669 56.192 241.401 93.1651 246.914 123.784Z" fill="#E6E6E6"/>
<path d="M206.9 86.6978C217.68 86.6978 226.419 77.9589 226.419 67.1789C226.419 56.3989 217.68 47.66 206.9 47.66C196.12 47.66 187.381 56.3989 187.381 67.1789C187.381 77.9589 196.12 86.6978 206.9 86.6978Z" fill="white"/>
<path d="M265.457 111.096H0V140.375H265.457V111.096Z" fill="#E6E6E6"/>
<path d="M265.457 256.512H0V285.79H265.457V256.512Z" fill="#E6E6E6"/>
<path d="M265.457 401.928H0V431.206H265.457V401.928Z" fill="#E6E6E6"/>
</g>
<defs>
<clipPath id="clip0">
<rect width="661.93" height="646.154" fill="white"/>
</clipPath>
</defs>
</svg>
