<svg width="984" height="769" viewBox="0 0 984 769" fill="none" xmlns="http://www.w3.org/2000/svg">
<g clip-path="url(#clip0)">
<path d="M22.57 17.02C27.2699 17.02 31.08 13.2099 31.08 8.51C31.08 3.81006 27.2699 0 22.57 0C17.8701 0 14.06 3.81006 14.06 8.51C14.06 13.2099 17.8701 17.02 22.57 17.02Z" fill="#0A81AB"/>
<path d="M50.53 17.02C55.2299 17.02 59.04 13.2099 59.04 8.51C59.04 3.81006 55.2299 0 50.53 0C45.83 0 42.02 3.81006 42.02 8.51C42.02 13.2099 45.83 17.02 50.53 17.02Z" fill="#0A81AB"/>
<path d="M78.49 17.02C83.1899 17.02 87 13.2099 87 8.51C87 3.81006 83.1899 0 78.49 0C73.7901 0 69.98 3.81006 69.98 8.51C69.98 13.2099 73.7901 17.02 78.49 17.02Z" fill="#0A81AB"/>
<path d="M783 28.66H0V29.66H783V28.66Z" fill="#3C354C"/>
<path d="M325.15 89.79H14.06V472.07H325.15V89.79Z" fill="#3F3D56"/>
<path d="M768.94 194.37H457.85V576.64H768.94V194.37Z" fill="#0A81AB"/>
<path d="M678.89 312.81C679.89 309.95 681.46 307.29 682.26 304.37C683.33 300.46 682.94 296.32 682.48 292.29C682.43 290.526 681.927 288.804 681.02 287.29C679.66 285.43 677.28 284.66 675.45 283.29C670.99 279.94 670.37 273.74 668.81 268.42C666.771 261.536 662.712 255.422 657.16 250.87C653.66 248.02 648.67 245.8 644.72 248.01C643.05 248.94 641.83 250.56 640.12 251.41C637.9 252.52 635.36 252.18 632.83 252.04C632.511 251.656 632.116 251.343 631.67 251.12C629.29 249.98 624.84 251.32 622.6 252.25C620.712 252.934 619.128 254.267 618.13 256.01C617.918 256.458 617.754 256.927 617.64 257.41C617.34 258.61 617.24 259.87 616.87 261.07C616.572 261.97 616.151 262.825 615.62 263.61C614.13 265.82 611.94 267.67 610.43 269.92C609.724 270.975 609.159 272.118 608.75 273.32V273.32C607.658 276.857 607.24 280.568 607.52 284.26C607.72 289.26 608.32 294.26 607.11 299.11C606.73 300.6 606.19 302.11 605.74 303.55C605.66 303.79 605.57 304.05 605.5 304.29L605.32 305.01C605.24 305.36 605.16 305.71 605.1 306.06C604.98 306.78 604.91 307.51 604.86 308.25C604.86 308.61 604.86 308.98 604.86 309.35C604.86 310.09 604.86 310.83 604.77 311.57C604.732 312.672 604.585 313.767 604.33 314.84C604.008 316.047 603.531 317.206 602.91 318.29V318.29C602.22 319.53 601.41 320.7 600.61 321.86L597.93 325.75C594.75 325.5 591.51 325.55 588.79 327.08C586.28 328.624 584.425 331.037 583.58 333.86C583.358 333.94 583.151 334.058 582.97 334.21C582.42 334.67 581.82 336.32 581.24 338.4C581.24 338.4 581.24 338.4 581.24 338.45C580.06 342.74 578.99 348.84 578.64 350.2C577.84 353.2 577.21 356.33 576.64 359.43C575.5 365.78 574.72 372.19 573.64 378.55C573.42 379.85 571.99 388.46 570.58 393.4C570.58 393.53 570.52 393.65 570.48 393.77C569.93 395.61 569.4 396.86 568.94 396.86H569.59H570.34C570.09 397.45 569.85 398.06 569.63 398.67C569.186 399.929 568.808 401.211 568.5 402.51C568.497 402.537 568.497 402.563 568.5 402.59C567.615 406.598 567.056 410.672 566.83 414.77C565.043 438.634 564.977 462.596 566.63 486.47C566.72 490.008 567.323 493.515 568.42 496.88C569.064 498.601 570.016 500.19 571.23 501.57L571.41 501.77C571.3 502.25 571.2 502.71 571.08 503.19C567.747 517.93 563.847 532.537 559.38 547.01C559.28 547.32 559.19 547.64 559.08 547.95C558.81 548.85 558.53 549.76 558.25 550.66C558.08 551.24 557.9 551.82 557.74 552.41C557.62 552.79 557.52 553.17 557.42 553.53C556.672 556.15 556.134 558.825 555.81 561.53C555.367 566.544 555.643 571.595 556.63 576.53H588.49C588.49 576.31 588.43 576.1 588.41 575.88C587.79 571.42 587.04 566.78 588.46 562.52C589.37 559.77 591.11 557.39 592.55 554.88C595.55 549.71 597.23 543.88 599.96 538.61C603.96 530.91 610.07 524.2 612.89 516.11C613.19 515.257 613.45 514.387 613.67 513.5C615.61 519.27 615.6 525.12 615.96 531.18C616.866 546.515 619.366 561.713 623.42 576.53H655.59C655.06 568.11 654.31 559.68 653.84 551.29C653.445 546.7 653.535 542.081 654.11 537.51C654.715 534.181 655.557 530.899 656.63 527.69C660.26 516.05 664.1 504.36 665.3 492.24C666.5 480.12 667.36 463 660.69 452.76C660.566 452.562 660.422 452.378 660.26 452.21C660.4 451.292 660.4 450.358 660.26 449.44C658.45 432.77 648.91 416.77 651.67 400.22C652.525 395.881 653.836 391.644 655.58 387.58C659.64 377.33 664.16 366.82 666.64 356.15C667.723 353.161 668.506 350.073 668.98 346.93C669.463 344.159 669.717 341.353 669.74 338.54C669.737 337.471 669.647 336.404 669.47 335.35C672.8 336.51 676.06 338.79 679.6 339.24C679.902 339.282 680.206 339.309 680.51 339.32C680.464 339.257 680.424 339.19 680.39 339.12C679.979 338.465 679.747 337.713 679.72 336.94C680.343 337.08 680.983 337.131 681.62 337.09V337.09C682.871 337.037 684.087 336.661 685.15 336C681.993 333.142 679.724 329.436 678.615 325.324C677.505 321.213 677.6 316.869 678.89 312.81V312.81ZM581.89 462.34C581.35 463.48 580.89 464.63 580.39 465.81V465.68C578.793 461.023 578.472 456.023 579.46 451.2C579.54 450.9 579.61 450.6 579.68 450.31C579.75 450.02 579.88 449.55 579.98 449.16C580.312 450.636 580.956 452.025 581.868 453.232C582.781 454.439 583.94 455.437 585.27 456.16C584.98 456.63 584.69 457.09 584.41 457.56C583.473 459.109 582.615 460.704 581.84 462.34H581.89ZM586.36 429.27C585.46 431.05 584.36 432.72 583.27 434.43C584.924 425.614 586.026 416.703 586.57 407.75V407.75C586.66 406.3 586.73 404.84 586.79 403.39C587.541 406.738 588.013 410.143 588.2 413.57C588.56 418.06 588.91 422.7 587.39 426.94C587.088 427.742 586.727 428.521 586.31 429.27H586.36Z" fill="url(#paint0_linear)"/>
<path d="M621.24 254.9C619.372 255.578 617.808 256.901 616.83 258.63C616.08 260.19 616.11 262.01 615.6 263.63C614.52 267.11 611.28 269.4 609.27 272.43C606.54 276.54 606.27 281.78 606.4 286.72C606.53 291.66 607.19 296.72 605.99 301.48C605.41 303.81 604.41 306.04 603.99 308.41C603.5 311.29 603.91 314.3 603.2 317.13C602.399 319.661 601.156 322.031 599.53 324.13L593.14 333.49C596.002 332.81 598.82 331.959 601.58 330.94C600.731 333.622 599.152 336.014 597.02 337.85L601.64 332.25C602.58 330.964 603.745 329.859 605.08 328.99C606.78 327.99 608.79 327.87 610.69 327.49C614.36 326.74 618.02 324.86 619.82 321.57C622.21 317.18 620.68 311.66 622.02 306.84C623.02 303.32 625.41 300.42 627.07 297.17C630.85 289.83 630.62 281.17 631.8 273C632.477 269.558 632.911 266.073 633.1 262.57C633.1 259.98 632.84 255.05 630.1 253.74C627.8 252.64 623.42 253.97 621.24 254.9Z" fill="#192534"/>
<path d="M663.1 493.62C661.92 505.67 658.1 517.29 654.58 528.86C653.516 532.048 652.687 535.31 652.1 538.62C651.535 543.165 651.444 547.756 651.83 552.32C652.28 560.42 652.99 568.54 653.5 576.65H621.72C617.859 562.157 615.471 547.312 614.59 532.34C614.26 526.83 614.25 521.49 612.78 516.23C612.65 515.74 612.5 515.23 612.34 514.76C610.1 523.99 603.17 531.26 598.87 539.76C596.18 545.03 594.51 550.76 591.59 555.93C590.17 558.43 588.45 560.8 587.59 563.52C586.2 567.73 586.93 572.3 587.53 576.69H556.15C555.272 572.031 555.04 567.273 555.46 562.55C555.88 559.158 556.606 555.811 557.63 552.55C557.79 551.96 557.97 551.38 558.14 550.8C558.42 549.9 558.7 548.99 558.97 548.09C563.497 533.27 567.443 518.27 570.81 503.09C570.91 502.62 571.02 502.09 571.12 501.66C571.693 499.06 572.247 496.457 572.78 493.85C574.61 484.9 576.36 475.66 579.68 467.21C579.89 466.7 580.09 466.21 580.31 465.68C580.78 464.55 581.31 463.43 581.84 462.34C582.629 460.737 583.503 459.179 584.46 457.67C585.361 456.23 586.346 454.845 587.41 453.52C604.98 452 623.22 443.23 640.41 447.3C643.268 447.923 645.995 449.04 648.47 450.6C651.41 452.5 655.96 451.39 658.19 453.82C658.343 453.993 658.484 454.177 658.61 454.37C665.12 464.55 664.28 481.57 663.1 493.62Z" fill="#192534"/>
<path d="M618.41 313.73C618.03 318.03 617.13 323.09 613.22 324.89C611.01 325.89 608.43 325.54 606.03 325.89C601.49 326.63 597.77 330.12 595.66 334.2C593.55 338.28 592.84 342.93 592.35 347.5C591.74 353.22 591.54 359.43 594.68 364.25C597.22 368.16 601.61 370.53 606.11 371.74C610.638 372.921 615.37 373.09 619.97 372.236C624.571 371.382 628.927 369.526 632.73 366.8C636.358 363.961 639.647 360.713 642.53 357.12C649.05 349.53 655.62 341.21 656.95 331.29C657.11 330.16 657.1 328.8 656.17 328.13C655.535 327.773 654.803 327.629 654.08 327.72L647.82 327.83C646.23 327.83 644.44 327.83 643.37 326.64C642.3 325.45 642.37 323.94 642.37 322.48L642.85 304.35C642.95 303.71 642.803 303.056 642.44 302.52C642.043 302.157 641.536 301.939 641 301.9C637.56 301.32 634 301.9 630.58 300.96C627.37 300.08 622.34 296.39 619.98 300.18C618 303.46 618.74 310.08 618.41 313.73Z" fill="#FFC1C7"/>
<path opacity="0.1" d="M618.41 313.73C618.03 318.03 617.13 323.09 613.22 324.89C611.01 325.89 608.43 325.54 606.03 325.89C601.49 326.63 597.77 330.12 595.66 334.2C593.55 338.28 592.84 342.93 592.35 347.5C591.74 353.22 591.54 359.43 594.68 364.25C597.22 368.16 601.61 370.53 606.11 371.74C610.638 372.921 615.37 373.09 619.97 372.236C624.571 371.382 628.927 369.526 632.73 366.8C636.358 363.961 639.647 360.713 642.53 357.12C649.05 349.53 655.62 341.21 656.95 331.29C657.11 330.16 657.1 328.8 656.17 328.13C655.535 327.773 654.803 327.629 654.08 327.72L647.82 327.83C646.23 327.83 644.44 327.83 643.37 326.64C642.3 325.45 642.37 323.94 642.37 322.48L642.85 304.35C642.95 303.71 642.803 303.056 642.44 302.52C642.043 302.157 641.536 301.939 641 301.9C637.56 301.32 634 301.9 630.58 300.96C627.37 300.08 622.34 296.39 619.98 300.18C618 303.46 618.74 310.08 618.41 313.73Z" fill="black"/>
<path d="M634.16 312.56C647.36 312.56 658.06 301.86 658.06 288.66C658.06 275.46 647.36 264.76 634.16 264.76C620.96 264.76 610.26 275.46 610.26 288.66C610.26 301.86 620.96 312.56 634.16 312.56Z" fill="#FFC1C7"/>
<path d="M608.52 355.11C604.66 355.19 600.3 354.11 598.43 350.72C597.15 348.4 597.37 345.58 597.61 342.95L599 328.23C595.25 327.84 591.22 327.5 587.94 329.36C583.6 331.82 582.03 337.28 581.54 342.25C580.63 351.58 582.11 361 581.6 370.36C581.17 378.24 579.36 386.36 581.67 393.86C582.67 397 584.29 399.86 585.34 403.01C586.508 407.016 587.179 411.15 587.34 415.32C587.7 419.78 588.04 424.39 586.55 428.61C585.3 432.15 582.87 435.12 581.13 438.44C578.28 443.92 577.67 451.3 581.95 455.75C585.86 459.82 592.35 459.99 597.84 458.75C603.33 457.51 608.6 455.01 614.23 454.75C624.17 454.33 633.03 460.75 642.76 462.87C644.064 463.229 645.434 463.277 646.76 463.01C647.927 462.634 649.013 462.04 649.96 461.26L655.28 457.44C656.342 456.8 657.226 455.902 657.85 454.83C658.305 453.642 658.42 452.35 658.18 451.1C656.4 434.53 647.02 418.61 649.73 402.16C650.579 397.852 651.869 393.643 653.58 389.6C660.33 372.34 668.42 354.4 665.8 336.05C665.22 331.99 664.03 327.83 661.23 324.83C658.43 321.83 653.7 320.33 650.07 322.25C646.44 324.17 645.13 328.45 643.56 332.18C640.466 339.395 635.565 345.69 629.33 350.46C626.69 352.46 623.51 355.06 620.06 355.16C616.3 355.29 612.36 355.04 608.52 355.11Z" fill="#F2F2F2"/>
<path d="M573.86 392.24C568.07 398.67 566.93 407.93 566.29 416.57C564.542 440.296 564.478 464.115 566.1 487.85C566.184 491.368 566.78 494.854 567.87 498.2C569.1 501.49 571.42 504.54 574.68 505.85C576.77 506.69 579.68 506.47 580.68 504.42C581.55 502.54 580.26 500.42 579.28 498.63C577.052 494.432 576.308 489.604 577.17 484.93C578.36 485.81 578.77 487.36 579.11 488.8L580.98 496.8C583.55 496.42 584.51 493.29 584.92 490.73C585.67 486.09 586.39 481.16 584.53 476.85C583.53 474.55 581.88 472.59 580.89 470.3C578.39 464.52 577.4 457.92 579.01 451.83C584.427 431.288 586.786 410.06 586.01 388.83C582.289 390.918 578.124 392.087 573.86 392.24V392.24Z" fill="#FFC1C7"/>
<path d="M568.39 398.74C575.524 398.811 582.622 399.748 589.53 401.53C590.44 397.03 590 392.37 589.53 387.8L586.53 356.38C586.31 354.04 586.73 332.68 582.23 336.45C580.57 337.84 578.48 350.34 577.96 352.35C577.18 355.35 576.56 358.44 575.96 361.52C574.84 367.84 574.07 374.21 572.96 380.52C572.7 382.36 570 398.75 568.39 398.74Z" fill="#F2F2F2"/>
<path d="M625.05 258.28C625.017 257.535 625.186 256.796 625.54 256.14C625.85 255.749 626.237 255.427 626.678 255.193C627.118 254.959 627.603 254.818 628.1 254.78C631.55 254.25 635.33 255.64 638.45 254.06C640.14 253.21 641.33 251.61 642.98 250.68C646.86 248.49 651.76 250.68 655.2 253.53C660.678 258.07 664.67 264.149 666.66 270.98C668.18 276.26 668.8 282.43 673.18 285.76C674.99 287.14 677.33 287.9 678.65 289.76C679.557 291.273 680.057 292.996 680.1 294.76C680.55 298.76 680.93 302.89 679.88 306.76C679.09 309.66 677.53 312.3 676.57 315.15C675.266 319.189 675.144 323.516 676.219 327.622C677.295 331.728 679.523 335.44 682.64 338.32C681.049 339.323 679.126 339.657 677.29 339.25C677.329 340.093 677.599 340.91 678.07 341.61C672.47 341.44 667.61 335.99 662.14 337.18C657.97 338.08 655.64 342.4 652.52 345.32C648.52 349.1 642.27 350.68 637.23 348.44C632.19 346.2 629.13 339.84 631.23 334.76C633.66 328.97 641.17 326.69 643.78 320.97C645.78 316.54 644.3 311.38 644.73 306.53C645.1 302.37 646.9 298.53 648.02 294.47C649.14 290.41 649.5 285.85 647.22 282.35C644.81 278.64 640.22 277.19 635.96 275.81C626.52 272.68 624.69 267.89 625.05 258.28Z" fill="#192534"/>
<path d="M630.92 344.18C630.24 340.84 629.57 337.29 630.77 334.11C633 328.17 640.31 326.32 645.37 322.5C648.301 320.275 650.552 317.276 651.87 313.84C652.79 311.42 652.87 308.11 650.65 306.84C649.771 306.426 648.797 306.257 647.83 306.35C639.95 306.53 632.73 310.82 626.69 315.88C623.17 318.83 619.83 322.21 618.08 326.45C616.978 329.509 616.305 332.706 616.08 335.95L614.85 346.67C614.024 352.801 613.546 358.975 613.42 365.16C613.415 368.7 613.635 372.238 614.08 375.75C614.4 378.25 614.87 380.82 616.33 382.87C619.06 386.68 624.33 387.53 628.99 387.66C630.763 387.766 632.543 387.655 634.29 387.33C642.07 385.64 647.98 374.73 642.09 367.99C639.58 365.13 635.82 365.06 634.4 361.13C632.5 355.92 632 349.63 630.92 344.18Z" fill="#FFC1C7"/>
<path d="M637.25 346.05L631.1 356.1C630.731 356.618 630.476 357.207 630.35 357.83C630.18 359.14 631.15 360.29 631.93 361.36C637.23 368.59 635.93 378.55 634.29 387.36C642.744 384.683 650.273 379.677 656.012 372.917C661.752 366.157 665.47 357.916 666.74 349.14C667.52 343.89 668.74 335.23 664.1 331.81C652.87 323.58 642.52 337.46 637.25 346.05Z" fill="#F2F2F2"/>
<path d="M606 325.92C608.4 325.54 611 325.92 613.19 324.92C617.1 323.12 618 318.06 618.38 313.76C618.38 313.37 618.44 312.93 618.45 312.47C617.056 311.007 615.537 309.669 613.91 308.47C612.439 307.632 610.88 306.962 609.26 306.47L605 304.91C604.58 306.067 604.246 307.254 604 308.46C603.51 311.34 603.92 314.35 603.21 317.18C602.409 319.711 601.166 322.081 599.54 324.18L593.15 333.54C594.31 333.26 595.45 332.95 596.6 332.62C597.62 330.915 598.982 329.44 600.599 328.287C602.217 327.134 604.056 326.328 606 325.92V325.92Z" fill="#192534"/>
<path d="M760.63 465.08C760.63 465.08 719 444.71 727 460.21C735 475.71 760.63 477.46 760.63 477.46V465.08Z" fill="#FFC1C7"/>
<path d="M720.33 450.46L719 453.12L750.44 469.5L751.77 466.85L720.33 450.46Z" fill="#192534"/>
<path d="M789.41 464.19C789.41 464.19 786.75 470.84 776.57 466.85C770.807 464.491 764.637 463.288 758.41 463.31C758.41 463.31 751.77 476.59 758.41 481.46C765.05 486.33 792.95 494.75 793.84 489.88C794.73 485.01 789.41 464.19 789.41 464.19Z" fill="#0A81AB"/>
<path opacity="0.1" d="M789.41 464.19C789.41 464.19 786.75 470.84 776.57 466.85C770.807 464.491 764.637 463.288 758.41 463.31C758.41 463.31 751.77 476.59 758.41 481.46C765.05 486.33 792.95 494.75 793.84 489.88C794.73 485.01 789.41 464.19 789.41 464.19Z" fill="black"/>
<path d="M810 386.91C825.409 386.91 837.9 374.419 837.9 359.01C837.9 343.601 825.409 331.11 810 331.11C794.591 331.11 782.1 343.601 782.1 359.01C782.1 374.419 794.591 386.91 810 386.91Z" fill="#FF6584"/>
<path d="M789.19 411.27V406.4C789.19 406.4 795.83 397.99 803.36 403.75C810.89 409.51 799.36 429.43 799.36 429.43L791 424.56L789.19 411.27Z" fill="#0A81AB"/>
<path d="M813.77 739.78L805.35 749.53C805.35 749.53 820.41 753.07 820.85 753.53C821.29 753.99 836.35 752.2 836.35 752.2L835 736.68L813.77 739.78Z" fill="#FFC1C7"/>
<path d="M845.65 730.78L849.65 747.61L866.92 743.61L875.78 729.88C875.78 729.88 869.58 725.45 867.78 721.02C865.98 716.59 845.65 730.78 845.65 730.78Z" fill="#FFC1C7"/>
<path d="M847.87 599.85L846.1 628.63C843.917 633.342 843.447 638.668 844.77 643.69C846.98 652.1 846.1 687.53 846.1 687.53C846.1 687.53 843 736.24 842.1 739.34C841.2 742.44 838.1 743.77 840.33 746.43C840.33 746.43 810.66 753.07 811.1 742C811.1 742 815.1 734.47 815.1 727.39C815.1 720.31 816.43 681.33 816.43 681.33L827.05 581.69L847.87 599.85Z" fill="#3F3D56"/>
<path opacity="0.1" d="M847.87 599.85L846.1 628.63C843.917 633.342 843.447 638.668 844.77 643.69C846.98 652.1 846.1 687.53 846.1 687.53C846.1 687.53 843 736.24 842.1 739.34C841.2 742.44 838.1 743.77 840.33 746.43C840.33 746.43 810.66 753.07 811.1 742C811.1 742 815.1 734.47 815.1 727.39C815.1 720.31 816.43 681.33 816.43 681.33L827.05 581.69L847.87 599.85Z" fill="black"/>
<path d="M801.37 526.63C801.37 526.63 788.97 600.15 789.37 623.63C789.77 647.11 796.01 660.38 796.01 660.38L829.23 705.55C828.727 706.777 828.544 708.112 828.698 709.429C828.852 710.746 829.338 712.002 830.11 713.08C832.77 717.08 833.66 720.17 833.66 722.82C833.66 725.47 838.97 727.25 840.74 730.82C842.51 734.39 847.38 744.55 858.9 736.58C870.42 728.61 874.4 725.51 872.18 719.31C869.96 713.11 865.1 709.13 864.66 706.03C864.22 702.93 854.51 695.36 853.18 686.46C851.85 677.56 829.27 641.29 829.27 641.29C829.27 641.29 851.85 596.12 852.74 587.71C853.63 579.3 856.28 575.71 856.28 575.71C856.28 575.71 870.01 549.58 862.48 537.63C854.95 525.68 801.37 526.63 801.37 526.63Z" fill="#3F3D56"/>
<path d="M820.85 751.3C820.85 751.3 808.85 749.53 808.85 742.88L792.46 752.18C792.46 752.18 760.13 753.51 773.86 764.58C787.59 775.65 847.86 761.04 847.86 761.04C847.86 761.04 843.44 746.46 839 745.1C839 745.1 831 751.74 820.85 751.3Z" fill="#3F3D56"/>
<path opacity="0.1" d="M820.85 751.3C820.85 751.3 808.85 749.53 808.85 742.88L792.46 752.18C792.46 752.18 760.13 753.51 773.86 764.58C787.59 775.65 847.86 761.04 847.86 761.04C847.86 761.04 843.44 746.46 839 745.1C839 745.1 831 751.74 820.85 751.3Z" fill="black"/>
<path d="M874.88 727.68C874.88 727.68 862 745.84 850.52 740.97C850.52 740.97 843.84 734.16 841.43 737.97C839.02 741.78 833.7 752.44 827.94 753.77C822.18 755.1 801.81 761.77 821.74 767.06C841.67 772.35 879.31 754.66 882.85 747.57C886.39 740.48 874.88 727.68 874.88 727.68Z" fill="#3F3D56"/>
<path d="M793 395.71C794.485 397.825 795.723 400.103 796.69 402.5C797.646 404.925 797.71 407.612 796.87 410.08C796.44 411.21 795.75 412.23 795.3 413.35C794.341 415.988 794.427 418.893 795.54 421.47C796.665 424.019 798.31 426.304 800.37 428.18C800.948 428.852 801.726 429.321 802.59 429.52C803.201 429.526 803.803 429.377 804.34 429.087C804.877 428.796 805.331 428.374 805.66 427.86C807.66 425.32 808.07 421.94 808.74 418.79C809.41 415.64 810.59 412.25 813.38 410.63C814.919 409.876 816.59 409.431 818.3 409.32L824.59 408.51C825.765 408.48 826.899 408.077 827.83 407.36C829.1 406.13 832.35 410.04 831.3 408.62C830.25 407.2 825.12 400.25 823.56 399.42C821.928 398.716 820.523 397.574 819.5 396.12C818.77 394.583 818.427 392.89 818.5 391.19C818.36 388 818.07 384.67 816.37 381.97C814.458 379.227 811.584 377.303 808.32 376.58C805.087 375.872 801.778 375.573 798.47 375.69C796.383 375.537 794.287 375.796 792.3 376.45C791.044 376.936 789.956 377.777 789.17 378.87C787.78 380.87 786.17 384.33 787.17 386.71C788.49 389.86 791.1 392.85 793 395.71Z" fill="#FFC1C7"/>
<path d="M802.25 392.89C816.433 392.89 827.93 381.393 827.93 367.21C827.93 353.027 816.433 341.53 802.25 341.53C788.067 341.53 776.57 353.027 776.57 367.21C776.57 381.393 788.067 392.89 802.25 392.89Z" fill="#FFC1C7"/>
<path d="M835.91 412.82C834.383 409.615 831.898 406.963 828.799 405.231C825.7 403.499 822.14 402.772 818.61 403.15C811.26 403.95 803.2 405.9 802.25 410.61C800.48 419.47 797.38 429.21 797.38 421.68C797.38 414.15 797.21 408.81 797.21 408.81C797.21 408.81 790.3 403.08 788.97 406.62C787.64 410.16 786.31 423.89 786.75 433.62C787.19 443.35 787.64 473.47 787.64 473.47C787.64 473.47 788.53 503.59 791.18 511.56C792.777 516.864 793.231 522.447 792.51 527.94C792.51 527.94 788.97 531.49 797.38 532.81C805.79 534.13 810.23 526.61 823.95 535.91C837.67 545.21 867.8 550.08 869.12 543.91C870.44 537.74 860.71 512.02 863.37 492.98C866.03 473.94 835.91 412.82 835.91 412.82V412.82Z" fill="#0A81AB"/>
<path d="M806.68 525.31C806.68 525.31 800.04 535.93 797.83 536.38C795.62 536.83 794.73 541.25 800.04 539.03C805.35 536.81 803.58 536.82 803.58 536.82C803.58 536.82 799.15 543.91 806.68 545.23C814.21 546.55 818.2 547.46 818.2 543.46C818.2 539.46 817.31 528.85 817.31 528.85L806.68 525.31Z" fill="#FFC1C7"/>
<path opacity="0.1" d="M808.9 410.61C805.996 414.501 804.178 419.095 803.633 423.92C803.088 428.746 803.836 433.629 805.8 438.07C812.44 454.01 827.94 481.91 827.94 481.91C827.94 481.91 835.02 485.91 831.94 488.99C828.86 492.07 828.4 491.21 826.19 493.86C823.98 496.51 808.47 516.01 808.47 516.01C808.47 516.01 799.62 521.32 802.27 527.52C804.92 533.72 815.56 536.38 815.56 536.38C816.163 534.795 817.276 533.455 818.725 532.573C820.174 531.691 821.875 531.317 823.56 531.51C829.76 531.95 840.83 522.65 840.83 522.65C840.83 522.65 858.1 492.98 859.83 489.88C861.56 486.78 863.83 485.88 860.72 477.88C857.61 469.88 835 413.27 825.28 410.61C815.56 407.95 808.9 410.61 808.9 410.61Z" fill="black"/>
<path d="M810.67 409.72C807.768 413.613 805.952 418.206 805.408 423.031C804.863 427.856 805.609 432.738 807.57 437.18C814.21 453.12 829.71 481.02 829.71 481.02C829.71 481.02 836.8 485.02 833.71 488.11C830.62 491.2 830.16 490.32 827.95 492.98C825.74 495.64 810.24 515.12 810.24 515.12C810.24 515.12 801.38 520.43 804.04 526.63C806.7 532.83 817.31 535.46 817.31 535.46C817.914 533.876 819.028 532.537 820.476 531.655C821.925 530.774 823.625 530.399 825.31 530.59C831.51 531.03 842.58 521.73 842.58 521.73C842.58 521.73 859.85 492.06 861.63 488.96C863.41 485.86 865.63 484.96 862.51 477.01C859.39 469.06 836.83 412.35 827.08 409.69C817.33 407.03 810.67 409.72 810.67 409.72Z" fill="#0A81AB"/>
<path d="M816.87 387.8C831.666 387.8 843.66 375.806 843.66 361.01C843.66 346.214 831.666 334.22 816.87 334.22C802.074 334.22 790.08 346.214 790.08 361.01C790.08 375.806 802.074 387.8 816.87 387.8Z" fill="#FF6584"/>
<path d="M843.829 347.832C847.35 344.612 846.057 337.465 840.94 331.869C835.822 326.273 828.82 324.347 825.298 327.567C821.777 330.787 823.07 337.934 828.187 343.53C833.304 349.126 840.307 351.052 843.829 347.832Z" fill="#FF6584"/>
<path d="M792.29 355.48C802.805 355.48 811.33 351.513 811.33 346.62C811.33 341.727 802.805 337.76 792.29 337.76C781.774 337.76 773.25 341.727 773.25 346.62C773.25 351.513 781.774 355.48 792.29 355.48Z" fill="#FF6584"/>
<path d="M796.28 378.95C798.484 378.95 800.27 376.273 800.27 372.97C800.27 369.667 798.484 366.99 796.28 366.99C794.076 366.99 792.29 369.667 792.29 372.97C792.29 376.273 794.076 378.95 796.28 378.95Z" fill="#FFC1C7"/>
<path d="M984 767.91H698V768.91H984V767.91Z" fill="#3C354C"/>
<path d="M260.06 334.46C253.95 336.78 239.74 337.04 233.44 337.03C231.52 337.03 230.33 337.03 230.33 337.03L226.28 328.8L230.33 321.93C230.33 321.93 234.03 320.93 238.97 320.02C246.25 318.71 256.21 317.68 260.97 320.63C268.91 325.46 268 331.39 260.06 334.46Z" fill="#A0616A"/>
<path opacity="0.1" d="M233.44 336.98C231.52 336.98 230.33 336.98 230.33 336.98L226.28 328.75L230.33 321.88C230.33 321.88 234.03 320.88 238.97 319.97C235 322.9 225.35 329.27 233.44 336.98Z" fill="black"/>
<path d="M166.42 235.83L168.21 233.78C168.21 233.78 177.4 248.33 178.37 253.78C179.34 259.23 180.56 265.59 180.56 265.59C180.56 265.59 182.9 272.73 184.41 275.89C185.92 279.05 187.29 282.06 187.41 283.44C187.53 284.82 186.86 287.83 189.74 289.75C192.62 291.67 193.31 296.89 193.31 296.89C193.31 296.89 203.75 307.05 209.24 307.33C214.73 307.61 230.52 310.33 229.97 313.09C229.42 315.85 236.56 317.49 239.44 318.17C242.32 318.85 220.91 327.1 233.44 337.67C233.44 337.67 225.44 339.32 224.65 341.24C223.86 343.16 215.46 340.14 215.46 340.14C215.46 340.14 213.67 335.88 207.46 335.61C201.25 335.34 198.13 332.61 198.13 332.18C198.13 331.75 191.95 328.33 188.52 327.37C185.09 326.41 180.52 326 180.41 325.04C180.3 324.08 159.82 235.79 159.82 235.79L166.42 235.83Z" fill="#192534"/>
<path opacity="0.05" d="M166.42 235.83L168.21 233.78C168.21 233.78 177.4 248.33 178.37 253.78C179.34 259.23 180.56 265.59 180.56 265.59C180.56 265.59 182.9 272.73 184.41 275.89C185.92 279.05 187.29 282.06 187.41 283.44C187.53 284.82 186.86 287.83 189.74 289.75C192.62 291.67 193.31 296.89 193.31 296.89C193.31 296.89 203.75 307.05 209.24 307.33C214.73 307.61 230.52 310.33 229.97 313.09C229.42 315.85 236.56 317.49 239.44 318.17C242.32 318.85 220.91 327.1 233.44 337.67C233.44 337.67 225.44 339.32 224.65 341.24C223.86 343.16 215.46 340.14 215.46 340.14C215.46 340.14 213.67 335.88 207.46 335.61C201.25 335.34 198.13 332.61 198.13 332.18C198.13 331.75 191.95 328.33 188.52 327.37C185.09 326.41 180.52 326 180.41 325.04C180.3 324.08 159.82 235.79 159.82 235.79L166.42 235.83Z" fill="black"/>
<path d="M210.42 472.08H168C165.81 468.14 164 464.22 164.38 462.89C165.3 459.89 163.96 455.07 163.96 455.07C163.96 455.07 162.64 452.79 161.04 450.07C159.09 446.73 156.73 442.72 155.93 441.47C154.93 439.88 152.49 433.12 151.13 429.23C150.55 427.58 150.13 426.44 150.13 426.44C150.13 426.44 148.48 456.71 147.04 459.8C146.42 461.13 145.65 466.46 145.04 472.08H111.74C111.561 471.113 111.262 470.173 110.85 469.28C109.31 466.28 112.39 455.99 112.39 455.99C112.39 455.99 109.39 435.99 109.51 432.93C109.63 429.87 106.94 420.67 106.94 420.67C106.94 420.67 104.26 415.94 104.88 414.49C105.5 413.04 102.82 409.35 103.54 407.7C104.26 406.05 102.92 401.01 101.54 398.02C100.85 396.49 100.01 392.27 99.34 388.53C99.26 388.11 99.19 387.7 99.12 387.3C98.61 384.3 98.25 381.85 98.25 381.85L103.67 377.48L103.9 377.29L115.24 368.16L130.69 364.11L131.63 363.86L157.63 357.04L168.76 353.46L171.88 352.46L173.66 351.88L189.21 376.38C189.21 376.38 190.54 378.5 191.85 381.11L192.24 381.9C193.46 384.45 194.55 387.29 194.36 389.05C194.092 391.288 194.601 393.551 195.8 395.46C195.8 395.46 205.07 424.81 204.86 433.26C204.65 441.71 208.16 460.26 208.16 460.26C208.16 460.26 210.41 467.26 210.42 472.08Z" fill="#192534"/>
<path d="M147 236.86C146.34 236.59 101.55 218.09 107.72 214.42C111.38 212.23 115.88 202.99 118.97 195.75C121.13 190.69 122.59 186.61 122.59 186.61C122.59 186.61 158.54 180.23 145.67 202.27C143.641 205.647 142.115 209.303 141.14 213.12C137.45 228.13 146.68 236.58 147 236.86Z" fill="#A0616A"/>
<path opacity="0.1" d="M145.65 202.27C143.621 205.647 142.095 209.303 141.12 213.12C136.558 212.801 132.171 211.243 128.429 208.613C124.688 205.984 121.736 202.384 119.89 198.2C119.533 197.401 119.219 196.583 118.95 195.75C121.11 190.69 122.57 186.61 122.57 186.61C122.57 186.61 158.52 180.23 145.65 202.27Z" fill="black"/>
<path d="M168 187.23C168.004 193.583 165.6 199.701 161.272 204.352C156.944 209.002 151.015 211.84 144.678 212.292C138.341 212.744 132.069 210.778 127.124 206.789C122.18 202.8 118.931 197.086 118.032 190.797C117.134 184.508 118.653 178.112 122.283 172.898C125.912 167.685 131.384 164.041 137.593 162.701C143.803 161.361 150.29 162.424 155.747 165.677C161.204 168.93 165.225 174.13 167 180.23C167.662 182.505 167.998 184.861 168 187.23Z" fill="#A0616A"/>
<path opacity="0.1" d="M192.24 381.91C189.61 384.3 188.59 388.85 188.59 388.85C188.59 388.85 176.24 397.3 177.06 391.94C177.88 386.58 170.68 364.94 170.68 364.94L171.5 394.46C171.5 394.46 131.96 392.61 129.08 389.73C126.2 386.85 109.31 381.28 109.31 381.28C109.31 381.28 104.14 385.43 99.38 388.58C98.75 385.03 98.29 381.9 98.29 381.9L115.29 368.2L157.71 357.08L173.71 351.93L189.26 376.44C190.344 378.213 191.338 380.038 192.24 381.91V381.91Z" fill="black"/>
<path d="M193.54 379.58C190.24 381.64 189.01 387.2 189.01 387.2C189.01 387.2 176.65 395.65 177.47 390.29C178.29 384.93 171.09 363.29 171.09 363.29L171.91 392.74C171.91 392.74 132.37 390.89 129.49 388.01C126.61 385.13 109.72 379.56 109.72 379.56C109.72 379.56 95.1 391.3 92.42 390.27C89.74 389.24 97.15 369.27 97.15 369.27L104.77 252.27C104.77 252.27 102.72 217.47 105.77 216.27C106.249 216.081 106.689 215.806 107.07 215.46C109.07 213.63 109.72 209.92 109.89 206.8C110.1 203.09 115.04 204.94 115.04 204.94L112.16 208.65L137.68 224.17L137.9 224.3C138.896 223.778 139.921 223.314 140.97 222.91C143.23 222.04 146.23 221.23 148.2 222.04C149.3 222.596 150.232 223.435 150.9 224.47C152.356 226.644 153.525 228.997 154.38 231.47L163.64 247.12C163.64 247.12 168.38 267.92 168.38 268.75C168.38 269.58 169.82 288.52 171.47 290.58C173.12 292.64 174.77 302.93 174.15 306.02C173.53 309.11 175.15 320.64 175.15 320.64C181.94 326.2 185.44 345.15 185.44 345.15C185.44 345.15 196.15 366.36 196.98 368.84C197.81 371.32 196.83 377.52 193.54 379.58Z" fill="#F2F2F2"/>
<path opacity="0.1" d="M137.71 224.99C135.2 228.7 127.98 233.91 127.98 233.91L107.1 216.28C109.1 214.45 109.75 210.74 109.92 207.62C110.13 203.91 115.07 205.77 115.07 205.77L114.47 206.54C114.184 206.91 113.979 207.336 113.868 207.79C113.758 208.244 113.745 208.717 113.83 209.176C113.915 209.636 114.096 210.073 114.361 210.458C114.627 210.843 114.97 211.167 115.37 211.41L137.71 224.99Z" fill="black"/>
<path d="M137.71 224.17C135.2 227.87 127.98 233.09 127.98 233.09L107.1 215.46C109.1 213.63 109.75 209.92 109.92 206.8C110.13 203.09 115.07 204.94 115.07 204.94L114.47 205.71C114.184 206.08 113.979 206.506 113.868 206.96C113.758 207.414 113.745 207.887 113.83 208.346C113.915 208.806 114.096 209.243 114.361 209.628C114.627 210.013 114.97 210.337 115.37 210.58L137.71 224.17Z" fill="#F2F2F2"/>
<path opacity="0.1" d="M147.36 226.94C144.66 230.17 140.85 233.82 141.02 231.94C141.19 230.06 138.74 226.06 137.18 224.25C139.626 223.474 142.262 223.548 144.66 224.46C145.766 225.03 146.699 225.886 147.36 226.94V226.94Z" fill="black"/>
<path d="M147.77 225.71C145.08 228.93 141.26 232.59 141.43 230.76C141.6 228.93 139.43 225.96 137.84 224.15C140.1 223.28 143.1 222.46 145.07 223.27C146.172 223.827 147.104 224.67 147.77 225.71V225.71Z" fill="#F2F2F2"/>
<path d="M141.02 242.84C141.931 242.84 142.67 242.101 142.67 241.19C142.67 240.279 141.931 239.54 141.02 239.54C140.109 239.54 139.37 240.279 139.37 241.19C139.37 242.101 140.109 242.84 141.02 242.84Z" fill="#192534"/>
<path d="M153.51 287.32C154.421 287.32 155.16 286.581 155.16 285.67C155.16 284.759 154.421 284.02 153.51 284.02C152.599 284.02 151.86 284.759 151.86 285.67C151.86 286.581 152.599 287.32 153.51 287.32Z" fill="#192534"/>
<path d="M167.66 332.35C168.571 332.35 169.31 331.611 169.31 330.7C169.31 329.789 168.571 329.05 167.66 329.05C166.749 329.05 166.01 329.789 166.01 330.7C166.01 331.611 166.749 332.35 167.66 332.35Z" fill="#192534"/>
<path d="M168.07 381.37C168.981 381.37 169.72 380.631 169.72 379.72C169.72 378.809 168.981 378.07 168.07 378.07C167.159 378.07 166.42 378.809 166.42 379.72C166.42 380.631 167.159 381.37 168.07 381.37Z" fill="#192534"/>
<path d="M148.3 263.84C149.211 263.84 149.95 263.101 149.95 262.19C149.95 261.279 149.211 260.54 148.3 260.54C147.389 260.54 146.65 261.279 146.65 262.19C146.65 263.101 147.389 263.84 148.3 263.84Z" fill="#192534"/>
<path d="M159.42 309.56C160.331 309.56 161.07 308.821 161.07 307.91C161.07 306.999 160.331 306.26 159.42 306.26C158.509 306.26 157.77 306.999 157.77 307.91C157.77 308.821 158.509 309.56 159.42 309.56Z" fill="#192534"/>
<path d="M170.27 354.46C171.181 354.46 171.92 353.721 171.92 352.81C171.92 351.899 171.181 351.16 170.27 351.16C169.359 351.16 168.62 351.899 168.62 352.81C168.62 353.721 169.359 354.46 170.27 354.46Z" fill="#192534"/>
<path d="M167.79 386.86C168.701 386.86 169.44 386.121 169.44 385.21C169.44 384.299 168.701 383.56 167.79 383.56C166.879 383.56 166.14 384.299 166.14 385.21C166.14 386.121 166.879 386.86 167.79 386.86Z" fill="#192534"/>
<path opacity="0.1" d="M107.11 216.46C107.11 216.46 107.38 213.98 103.81 218.24C100.24 222.5 93.52 226.24 93.52 226.24C93.52 226.24 78.28 236.95 77.45 241.9C76.62 246.85 71.69 268.26 74.29 275.4C76.89 282.54 96.81 316.72 96.81 316.72C96.81 316.72 91.59 322.9 92.81 330.18C94.03 337.46 95.56 347.48 94.87 349.67C94.18 351.86 95.69 357.36 93.36 359.28C91.03 361.2 88.55 364.5 95.83 368.9C95.83 368.9 97.2 372.6 95.97 373.43C94.74 374.26 114.23 382.76 121.92 378.23C129.61 373.7 143.47 337.45 143.75 329.35C144.03 321.25 139.51 294.46 137 288.14C134.49 281.82 127.11 257.25 124 251.76C120.89 246.27 107.11 216.46 107.11 216.46Z" fill="black"/>
<path d="M106.28 216.46C106.28 216.46 106.56 213.98 102.99 218.24C99.42 222.5 92.69 226.24 92.69 226.24C92.69 226.24 77.45 236.95 76.63 241.9C75.81 246.85 70.86 268.26 73.47 275.4C76.08 282.54 96 316.7 96 316.7C96 316.7 90.78 322.88 92 330.16C93.22 337.44 94.74 347.46 94.06 349.65C93.38 351.84 94.88 357.34 92.55 359.26C90.22 361.18 87.74 364.48 95.02 368.88C95.02 368.88 96.39 372.58 95.15 373.41C93.91 374.24 113.41 382.74 121.15 378.21C128.89 373.68 142.71 337.43 142.98 329.33C143.25 321.23 138.73 294.46 136.26 288.14C133.79 281.82 126.37 257.25 123.21 251.76C120.05 246.27 106.28 216.46 106.28 216.46Z" fill="#192534"/>
<path opacity="0.1" d="M100.79 239.82C100.79 239.82 112.6 252.82 112.19 261.51C112.19 261.51 112.33 247.51 100.79 239.82Z" fill="black"/>
<path opacity="0.1" d="M117.13 261.23C117.13 261.65 125.13 291.3 124.68 295.01C124.23 298.72 127 309.7 127 309.7L130.7 308.7C130.7 308.7 127.82 293.46 127.27 287.83C126.72 282.2 117.13 261.23 117.13 261.23Z" fill="black"/>
<path opacity="0.1" d="M120.29 345.81C120.01 346.22 101.48 367.23 106.7 368.74C111.92 370.25 120.29 345.81 120.29 345.81Z" fill="black"/>
<path opacity="0.1" d="M105.05 340.46C104.64 340.74 97.64 355.57 96.81 351.59C95.98 347.61 102.81 362.43 103.95 351.45L105.05 340.46Z" fill="black"/>
<path opacity="0.1" d="M140.64 221.14C140.64 221.14 148.3 216.46 157.91 228.46C157.91 228.46 164.91 232.46 166.97 233.4C169.03 234.34 171.36 259.9 171.36 259.9C171.36 259.9 175.89 270.9 174.66 277.2C173.43 283.5 178.23 305.2 178.23 305.2C178.23 305.2 186.23 344.2 185.92 345.29C185.61 346.38 177.82 333.07 177.92 326.48C178.02 319.89 171.33 299.3 170.37 298.06C169.41 296.82 162.82 261.54 162.82 261.54C162.82 261.54 157.47 246.54 154.03 241.63C150.59 236.72 146.35 227.35 144.56 225.7C143.276 224.591 141.842 223.669 140.3 222.96L140.64 221.14Z" fill="black"/>
<path d="M140.54 221.14C140.54 221.14 149.12 216.48 158.73 228.42C158.73 228.42 165.73 232.42 167.79 233.36C169.85 234.3 172.19 259.86 172.19 259.86C172.19 259.86 176.72 270.86 175.48 277.16C174.24 283.46 179.05 305.16 179.05 305.16C179.05 305.16 187.05 344.16 186.74 345.25C186.43 346.34 178.64 333.03 178.74 326.44C178.84 319.85 172.15 299.26 171.19 298.02C170.23 296.78 163.63 261.5 163.63 261.5C163.63 261.5 158.28 246.5 154.85 241.59C151.42 236.68 147.16 227.31 145.37 225.66C143.845 224.464 142.127 223.537 140.29 222.92L140.54 221.14Z" fill="#192534"/>
<path d="M178.23 306.95C178.23 306.95 194.57 296.25 202.46 301.53C210.35 306.81 223.26 314.3 210.56 319.72C197.86 325.14 180.29 324.12 180.29 324.12L178.23 306.95Z" fill="#A0616A"/>
<path opacity="0.1" d="M166.87 410.27C164.43 415.5 162.43 441.74 161.06 450.06C159.11 446.72 156.75 442.72 155.95 441.47C154.95 439.88 152.51 433.12 151.15 429.23C152.7 425.46 157 414.65 157 410.68C157 405.84 164.83 399.77 164.83 399.77C166.238 401.079 167.194 402.801 167.56 404.688C167.927 406.575 167.685 408.529 166.87 410.27Z" fill="black"/>
<path opacity="0.1" d="M167 180.27C166.613 180.483 166.204 180.654 165.78 180.78C163.85 181.3 161.96 180 160.24 178.96C158.52 177.92 156.16 177.15 154.68 178.5C152.74 180.25 154.14 184.01 152.15 185.71C150.88 186.79 148.88 186.42 147.47 187.31C146.06 188.2 145.65 190.12 145.29 191.8C144.93 193.48 144.23 195.37 142.59 195.86C140.95 196.35 139.44 195.28 137.82 195.34C137.49 195.34 137.1 195.39 136.82 195.15C136.676 194.928 136.619 194.661 136.66 194.4C136.871 192.385 136.694 190.349 136.14 188.4C135.852 187.437 135.313 186.567 134.579 185.88C133.844 185.193 132.941 184.713 131.96 184.49C129.06 184.04 126.63 186.57 124.96 188.95C123.174 191.459 121.548 194.077 120.09 196.79C120.02 196.93 119.94 197.12 119.85 197.34C118.462 194.189 117.735 190.786 117.717 187.343C117.698 183.9 118.387 180.489 119.741 177.324C121.095 174.158 123.086 171.304 125.589 168.939C128.092 166.575 131.054 164.75 134.292 163.577C137.529 162.405 140.973 161.911 144.41 162.125C147.847 162.339 151.203 163.258 154.27 164.823C157.337 166.388 160.049 168.567 162.239 171.224C164.429 173.882 166.05 176.96 167 180.27Z" fill="black"/>
<path d="M125 188.58C126.7 186.2 129.13 183.67 132 184.12C132.98 184.345 133.882 184.826 134.616 185.512C135.35 186.199 135.89 187.068 136.18 188.03C136.734 189.979 136.911 192.015 136.7 194.03C136.677 194.16 136.681 194.293 136.71 194.422C136.739 194.551 136.794 194.672 136.87 194.78C137.09 195.02 137.48 194.98 137.81 194.97C139.42 194.91 141.03 195.97 142.58 195.49C144.13 195.01 144.92 193.1 145.28 191.42C145.64 189.74 146.01 187.85 147.46 186.94C148.91 186.03 150.87 186.42 152.14 185.34C154.14 183.64 152.72 179.88 154.66 178.12C156.15 176.78 158.52 177.55 160.23 178.59C161.94 179.63 163.84 180.93 165.77 180.41C166.41 180.177 167.038 179.91 167.65 179.61C170.7 178.45 174.65 180.42 177.17 178.33C178.081 177.419 178.736 176.284 179.07 175.04C179.759 173.358 180.226 171.593 180.46 169.79C180.681 167.969 180.178 166.134 179.06 164.68C177.43 162.75 174.67 162.27 172.58 160.85C170.885 159.519 169.477 157.859 168.44 155.97C167.414 154.079 166.059 152.386 164.44 150.97C162.73 149.67 160.31 149.05 158.44 150.02C157.829 150.44 157.153 150.757 156.44 150.96C155.671 150.974 154.914 150.765 154.26 150.36C147.11 147 138.8 147.59 130.97 148.59C127.816 148.848 124.722 149.597 121.8 150.81C120.341 151.428 119.032 152.353 117.964 153.523C116.895 154.694 116.093 156.081 115.61 157.59C114.97 160.01 115.46 162.59 114.69 165.02C114.17 166.64 113.1 168.02 112.49 169.61C110.82 173.95 112.82 178.72 113.67 183.3C114.59 188.3 114.12 193.71 116.25 198.43C116.67 199.36 117.13 200.99 118.18 200.37C118.96 199.92 119.71 197.28 120.18 196.46C121.624 193.737 123.234 191.106 125 188.58V188.58Z" fill="#192534"/>
<path opacity="0.1" d="M79.79 269.06L76.08 279.63C76.08 279.63 84.87 312.31 88.99 319.17C93.11 326.03 99.15 334.83 99.15 334.83C106.042 337.931 113.708 338.886 121.15 337.57C132.96 335.24 167.42 329.06 167.42 329.06C167.42 329.06 170.31 329.61 171.82 327.41C173.33 325.21 181.15 324.12 181.15 324.12C181.15 324.12 190.21 310.94 179.09 305.44C179.09 305.44 177.72 308.44 171.82 306.44C165.92 304.44 164.13 308.08 164.13 308.08C164.13 308.08 154.52 310.01 149.13 309.32C143.74 308.63 130.46 308.32 129.13 307.26C128.782 306.951 128.326 306.792 127.861 306.818C127.396 306.844 126.961 307.053 126.65 307.4C126.65 307.4 123.36 306.16 122.26 304.93C121.16 303.7 119.65 306.3 119.65 306.3C119.65 306.3 117.73 305.2 118.28 303.83C118.83 302.46 116.49 297.24 116.49 297.24C115.876 295.24 115.736 293.124 116.08 291.06C116.77 288.31 112.65 278.43 112.65 278.43C112.593 276.762 112.778 275.095 113.2 273.48C113.89 271.01 107.98 266.07 107.98 266.07C107.98 266.07 102.22 238.07 89.98 247.26C77.74 256.45 79.79 269.06 79.79 269.06Z" fill="black"/>
<path d="M79 269.06L75.3 279.63C75.3 279.63 84.08 312.31 88.2 319.17C92.32 326.03 98.36 334.83 98.36 334.83C105.252 337.929 112.918 338.884 120.36 337.57C132.17 335.24 166.63 329.06 166.63 329.06C166.63 329.06 169.51 329.61 171.02 327.41C172.53 325.21 180.36 324.12 180.36 324.12C180.36 324.12 189.42 310.94 178.3 305.44C178.3 305.44 176.93 308.44 171.02 306.44C165.11 304.44 163.33 308.08 163.33 308.08C163.33 308.08 153.72 310.01 148.33 309.32C142.94 308.63 129.66 308.32 128.28 307.26C127.934 306.951 127.479 306.792 127.016 306.819C126.553 306.845 126.119 307.054 125.81 307.4C125.81 307.4 122.52 306.16 121.42 304.93C120.32 303.7 118.81 306.3 118.81 306.3C118.81 306.3 116.89 305.2 117.44 303.83C117.99 302.46 115.65 297.24 115.65 297.24C115.03 295.241 114.89 293.124 115.24 291.06C115.93 288.31 111.81 278.43 111.81 278.43C111.753 276.762 111.938 275.095 112.36 273.48C113.04 271.01 107.14 266.07 107.14 266.07C107.14 266.07 101.37 238.07 89.14 247.26C76.91 256.45 79 269.06 79 269.06Z" fill="#192534"/>
<path opacity="0.1" d="M168.21 313.27C168.07 314.27 165.05 318.08 166.15 318.76C167.25 319.44 169.03 319.04 167.38 321.23C165.73 323.42 165.87 326.73 166.97 326.31C168.07 325.89 169.85 320.96 169.85 319.04C169.85 317.12 168.21 313.27 168.21 313.27Z" fill="black"/>
<path opacity="0.1" d="M127.43 311.07C127.43 311.07 126.6 320.68 119.88 323.43C113.16 326.18 127.43 311.07 127.43 311.07Z" fill="black"/>
<path opacity="0.1" d="M113.42 307.78C113.01 307.92 103.81 312.86 107.93 315.78C112.05 318.7 113.42 307.78 113.42 307.78Z" fill="black"/>
<path opacity="0.1" d="M112.87 300.91C112.87 300.91 99.42 303.66 103.95 305.99C108.48 308.32 112.87 300.91 112.87 300.91Z" fill="black"/>
<g opacity="0.1">
<path opacity="0.1" d="M136.21 185.7C135.92 184.736 135.381 183.866 134.647 183.178C133.913 182.489 133.01 182.007 132.03 181.78C129.13 181.34 126.7 183.87 125.03 186.25C123.248 188.761 121.622 191.38 120.16 194.09C119.72 194.91 118.97 197.54 118.16 198C117.16 198.61 116.65 197 116.23 196.06C114.1 191.33 114.57 185.92 113.65 180.92C113.11 178 112.1 175.01 111.88 172.09C111.56 175.68 112.97 179.46 113.65 183.09C114.57 188.09 114.1 193.5 116.23 198.22C116.65 199.15 117.11 200.78 118.16 200.16C118.94 199.71 119.69 197.08 120.16 196.26C121.609 193.561 123.225 190.956 125 188.46C126.7 186.07 129.13 183.54 132 183.99C132.98 184.215 133.882 184.696 134.616 185.382C135.35 186.069 135.89 186.938 136.18 187.9C136.512 188.898 136.697 189.939 136.73 190.99C136.891 189.21 136.715 187.415 136.21 185.7V185.7Z" fill="black"/>
<path opacity="0.1" d="M179.1 172.66C178.766 173.907 178.111 175.045 177.2 175.96C174.69 178.05 170.73 176.08 167.68 177.24C167.04 177.48 166.46 177.86 165.8 178.04C163.87 178.55 161.98 177.25 160.26 176.21C158.54 175.17 156.18 174.4 154.69 175.75C152.75 177.51 154.16 181.27 152.17 182.97C150.9 184.04 148.9 183.68 147.49 184.56C146.08 185.44 145.67 187.38 145.31 189.05C144.95 190.72 144.25 192.63 142.61 193.12C140.97 193.61 139.45 192.53 137.84 192.59C137.51 192.59 137.12 192.65 136.9 192.4C136.847 192.342 136.806 192.274 136.78 192.2C136.78 192.75 136.78 193.3 136.73 193.85C136.707 193.98 136.711 194.113 136.74 194.242C136.769 194.371 136.824 194.492 136.9 194.6C137.12 194.84 137.51 194.8 137.84 194.79C139.45 194.73 141.06 195.79 142.61 195.32C144.16 194.85 144.95 192.92 145.31 191.25C145.67 189.58 146.04 187.67 147.49 186.76C148.94 185.85 150.9 186.24 152.17 185.16C154.17 183.47 152.75 179.7 154.69 177.95C156.18 176.6 158.55 177.37 160.26 178.41C161.97 179.45 163.87 180.75 165.8 180.23C166.44 180 167.068 179.736 167.68 179.44C170.73 178.27 174.68 180.25 177.2 178.15C178.113 177.241 178.769 176.105 179.1 174.86C179.789 173.178 180.256 171.413 180.49 169.61C180.55 168.998 180.55 168.382 180.49 167.77C180.212 169.447 179.746 171.087 179.1 172.66V172.66Z" fill="black"/>
</g>
</g>
<defs>
<linearGradient id="paint0_linear" x1="620.27" y1="576.65" x2="620.27" y2="247.1" gradientUnits="userSpaceOnUse">
<stop stop-color="#808080" stop-opacity="0.25"/>
<stop offset="0.54" stop-color="#808080" stop-opacity="0.12"/>
<stop offset="1" stop-color="#808080" stop-opacity="0.1"/>
</linearGradient>
<clipPath id="clip0">
<rect width="984" height="768.91" fill="white"/>
</clipPath>
</defs>
</svg>
