<svg width="652" height="571" viewBox="0 0 652 571" fill="none" xmlns="http://www.w3.org/2000/svg">
<g clip-path="url(#clip0)">
<path d="M109.955 505.868C88.5356 517.418 79.3405 541.931 79.3405 541.931C79.3405 541.931 104.874 547.718 126.294 536.168C147.714 524.618 156.909 500.105 156.909 500.105C156.909 500.105 131.375 494.318 109.955 505.868Z" fill="#F2F2F2"/>
<path d="M117.002 513.807C104.457 534.659 79.5381 542.69 79.5381 542.69C79.5381 542.69 74.9596 516.913 87.5051 496.06C100.051 475.208 124.969 467.177 124.969 467.177C124.969 467.177 129.548 492.954 117.002 513.807Z" fill="#F2F2F2"/>
<path d="M513.445 40.1252H437.445V85.1252H513.445V40.1252Z" fill="#2F2E41"/>
<path d="M362.152 47.3812H322.968V33.7174C322.968 28.5212 325.032 23.5379 328.706 19.8637C332.38 16.1894 337.363 14.1253 342.56 14.1253C347.756 14.1253 352.739 16.1894 356.413 19.8637C360.088 23.5379 362.152 28.5212 362.152 33.7174V47.3812ZM323.835 46.5137H361.284V33.7174C361.284 28.7513 359.311 23.9886 355.8 20.4771C352.288 16.9656 347.526 14.9928 342.56 14.9928C337.594 14.9928 332.831 16.9656 329.319 20.4771C325.808 23.9886 323.835 28.7513 323.835 33.7174V46.5137Z" fill="#3F3D56"/>
<path d="M381.527 45.502V40.162L281.877 42.832L278.723 178.092L293.471 196.31L381.527 45.502Z" fill="#3F3D56"/>
<path d="M399.167 43.622L291.158 46.08L293.471 196.31L397.705 185.075L399.167 43.622Z" fill="#0A81AB"/>
<path d="M490.997 530.355H478.737L472.905 483.067H490.999L490.997 530.355Z" fill="#FFB6B6"/>
<path d="M494.123 542.239L454.593 542.238V541.738C454.593 537.657 456.214 533.744 459.099 530.858C461.985 527.973 465.898 526.352 469.979 526.351H469.98L494.124 526.352L494.123 542.239Z" fill="#2F2E41"/>
<path d="M445.997 530.355H433.737L427.905 483.067H445.999L445.997 530.355Z" fill="#FFB6B6"/>
<path d="M449.123 542.239L409.593 542.238V541.738C409.593 537.657 411.214 533.744 414.099 530.858C416.985 527.973 420.898 526.352 424.979 526.351H424.98L449.124 526.352L449.123 542.239Z" fill="#2F2E41"/>
<path d="M409.992 234.259C409.992 234.259 392.08 272.834 408.262 350.48C424.445 428.125 424.579 513.368 424.579 513.368L449.322 513.771L463.222 330.251L470.5 511.18H494.878L516.362 333.111C516.362 333.111 530.5 253.598 498.973 239.361L409.992 234.259Z" fill="#2F2E41"/>
<path d="M495.733 98.1252L441.555 93.1311C424.565 105.515 415.03 127.756 416.987 150.705C419.641 181.819 418.743 224.639 397.445 243.241C397.445 243.241 455.494 289.057 507.06 245.591C507.06 245.591 489.427 198.353 501.534 179.489C513.64 160.625 518.007 107.625 495.733 98.1252Z" fill="#E4E4E4"/>
<path d="M334.527 21.2418C334.361 22.8035 334.539 24.3826 335.049 25.868C335.559 27.3533 336.389 28.7087 337.48 29.8387C338.571 30.9687 339.896 31.8459 341.362 32.4083C342.828 32.9708 344.4 33.2049 345.967 33.0942L417.5 99.8519L430.321 80.3221L355.975 20.8425C355.614 18.223 354.305 15.8268 352.296 14.1078C350.287 12.3889 347.717 11.4666 345.073 11.5158C342.43 11.565 339.896 12.5823 337.952 14.3749C336.008 16.1674 334.79 18.6107 334.527 21.2418V21.2418Z" fill="#FFB6B6"/>
<path d="M404.142 89.5391L421.112 72.1073C421.595 71.6113 422.179 71.2252 422.824 70.9753C423.47 70.7254 424.162 70.6176 424.853 70.6592C425.544 70.7007 426.217 70.8907 426.828 71.2162C427.439 71.5417 427.973 71.995 428.393 72.5453L443.105 91.8279C445.628 94.3127 447.063 97.6967 447.095 101.238C447.127 104.779 445.754 108.189 443.276 110.719C440.799 113.249 437.419 114.694 433.878 114.736C430.336 114.778 426.923 113.414 424.386 110.944L404.775 96.8054C404.214 96.4005 403.747 95.8792 403.405 95.2773C403.063 94.6754 402.855 94.0069 402.795 93.3173C402.735 92.6277 402.824 91.9333 403.057 91.2813C403.289 90.6293 403.659 90.0351 404.142 89.5391V89.5391Z" fill="#E4E4E4"/>
<path d="M600.284 183.812C600.364 182.243 600.098 180.677 599.506 179.222C598.914 177.767 598.01 176.46 596.859 175.392C595.707 174.325 594.335 173.522 592.84 173.042C591.344 172.562 589.762 172.416 588.204 172.613L513.072 109.933L501.356 130.145L578.892 185.402C579.398 187.998 580.837 190.317 582.939 191.922C585.041 193.527 587.658 194.305 590.295 194.109C592.931 193.913 595.405 192.756 597.246 190.859C599.087 188.961 600.168 186.454 600.284 183.812V183.812Z" fill="#FFB6B6"/>
<path d="M526.982 119.488L511.007 137.835C510.553 138.357 509.991 138.775 509.36 139.061C508.73 139.346 508.045 139.492 507.353 139.489C506.661 139.486 505.977 139.334 505.349 139.043C504.721 138.752 504.163 138.329 503.713 137.803L487.953 119.367C485.295 117.026 483.674 113.727 483.445 110.193C483.216 106.659 484.398 103.178 486.731 100.514C489.064 97.8499 492.359 96.2197 495.893 95.981C499.426 95.7424 502.91 96.9146 505.581 99.2408L525.946 112.268C526.529 112.641 527.025 113.135 527.4 113.717C527.774 114.299 528.019 114.955 528.118 115.641C528.216 116.326 528.165 117.024 527.97 117.688C527.774 118.352 527.437 118.966 526.982 119.488V119.488Z" fill="#E4E4E4"/>
<path d="M607.918 210.316H578.237V199.966C578.237 196.03 579.801 192.255 582.584 189.472C585.367 186.689 589.142 185.125 593.078 185.125C597.013 185.125 600.788 186.689 603.571 189.472C606.354 192.255 607.918 196.03 607.918 199.966L607.918 210.316ZM578.894 209.659H607.261V199.966C607.261 196.204 605.766 192.596 603.107 189.937C600.447 187.277 596.839 185.782 593.077 185.782C589.316 185.782 585.708 187.277 583.048 189.937C580.388 192.596 578.894 196.204 578.894 199.966V209.659Z" fill="#3F3D56"/>
<path d="M622.594 208.892V204.847L547.112 206.87L544.723 309.325L555.894 323.125L622.594 208.892Z" fill="#3F3D56"/>
<path d="M635.956 207.468L554.142 209.33L555.894 323.125L634.849 314.615L635.956 207.468Z" fill="#0A81AB"/>
<path d="M472.445 84.1252C490.118 84.1252 504.445 69.7984 504.445 52.1252C504.445 34.4521 490.118 20.1252 472.445 20.1252C454.772 20.1252 440.445 34.4521 440.445 52.1252C440.445 69.7984 454.772 84.1252 472.445 84.1252Z" fill="#FFB6B6"/>
<path d="M457.712 37.8634C468.782 48.7118 488.046 49.7515 500.219 40.1576C503.598 51.8109 503.968 64.1304 501.294 75.9653C498.621 87.8003 492.991 98.7644 484.931 107.834C491.703 110.28 499.498 108.671 505.551 104.771C511.604 100.871 516.086 94.9167 519.469 88.5605C527.842 72.8259 529.939 53.6132 524.015 36.8025C518.091 19.9917 503.898 6.05215 486.655 1.53841C469.412 -2.97533 449.642 2.60027 438.121 16.201C426.075 30.4232 424.123 51.2623 429.402 69.1374C434.681 87.0126 446.26 102.363 458.981 115.985C452.871 100.272 448.819 83.8355 446.926 67.0832C446.279 61.346 445.901 55.432 447.521 49.8905C449.142 44.349 453.131 39.1874 458.691 37.6304" fill="#2F2E41"/>
<path d="M651 544.125H270C269.735 544.125 269.48 544.02 269.293 543.832C269.105 543.645 269 543.39 269 543.125C269 542.86 269.105 542.606 269.293 542.418C269.48 542.231 269.735 542.125 270 542.125H651C651.265 542.125 651.52 542.231 651.707 542.418C651.895 542.606 652 542.86 652 543.125C652 543.39 651.895 543.645 651.707 543.832C651.52 544.02 651.265 544.125 651 544.125Z" fill="#CACACA"/>
<path d="M163 544.125H1C0.734784 544.125 0.480444 544.02 0.292908 543.832C0.105371 543.645 0 543.39 0 543.125C0 542.86 0.105371 542.606 0.292908 542.418C0.480444 542.231 0.734784 542.125 1 542.125H163C163.265 542.125 163.52 542.231 163.707 542.418C163.895 542.606 164 542.86 164 543.125C164 543.39 163.895 543.645 163.707 543.832C163.52 544.02 163.265 544.125 163 544.125Z" fill="#CACACA"/>
<path d="M591.918 457.316H562.237V446.966C562.237 443.03 563.801 439.255 566.584 436.472C569.367 433.689 573.142 432.125 577.078 432.125C581.013 432.125 584.788 433.689 587.571 436.472C590.354 439.255 591.918 443.03 591.918 446.966L591.918 457.316ZM562.894 456.659H591.261V446.966C591.261 443.204 589.766 439.596 587.107 436.937C584.447 434.277 580.839 432.782 577.077 432.782C573.316 432.782 569.708 434.277 567.048 436.937C564.388 439.596 562.894 443.204 562.894 446.966V456.659Z" fill="#CACACA"/>
<path d="M606.594 455.892V451.847L531.112 453.87L528.723 556.325L539.894 570.125L606.594 455.892Z" fill="#CACACA"/>
<path d="M619.956 454.468L538.142 456.33L539.894 570.125L618.849 561.615L619.956 454.468Z" fill="#E4E4E4"/>
</g>
<defs>
<clipPath id="clip0">
<rect width="652" height="570.125" fill="white"/>
</clipPath>
</defs>
</svg>
