<svg width="896" height="748" viewBox="0 0 896 748" fill="none" xmlns="http://www.w3.org/2000/svg">
<g clip-path="url(#clip0)">
<path d="M41.6341 712.738C54.0625 735.787 80.4401 745.681 80.4401 745.681C80.4401 745.681 86.6672 718.206 74.2388 695.157C61.8104 672.108 35.4328 662.214 35.4328 662.214C35.4328 662.214 29.2057 689.689 41.6341 712.738Z" fill="#2F2E41"/>
<path d="M50.1765 705.155C72.6149 718.655 81.2567 745.469 81.2567 745.469C81.2567 745.469 53.5186 750.396 31.0802 736.896C8.64174 723.396 0 696.582 0 696.582C0 696.582 27.7381 691.655 50.1765 705.155Z" fill="#0A81AB"/>
<path d="M553.249 35.9078H413.249V37.9078H553.249V35.9078Z" fill="#F2F2F2"/>
<path d="M515.249 37.4078H513.249V55.9078H515.249V37.4078Z" fill="#F2F2F2"/>
<path d="M454.249 37.4078H452.249V55.9078H454.249V37.4078Z" fill="#F2F2F2"/>
<path d="M624.249 131.908H484.249V133.908H624.249V131.908Z" fill="#F2F2F2"/>
<path d="M524.249 113.908H522.249V132.408H524.249V113.908Z" fill="#F2F2F2"/>
<path d="M585.249 113.908H583.249V132.408H585.249V113.908Z" fill="#F2F2F2"/>
<path d="M810.249 176.908H670.249V178.908H810.249V176.908Z" fill="#F2F2F2"/>
<path d="M710.249 158.908H708.249V177.408H710.249V158.908Z" fill="#F2F2F2"/>
<path d="M771.249 158.908H769.249V177.408H771.249V158.908Z" fill="#F2F2F2"/>
<path d="M796.249 640.908H656.249V642.908H796.249V640.908Z" fill="#F2F2F2"/>
<path d="M696.249 622.908H694.249V641.408H696.249V622.908Z" fill="#F2F2F2"/>
<path d="M757.249 622.908H755.249V641.408H757.249V622.908Z" fill="#F2F2F2"/>
<path d="M557.249 319.908H417.249V321.908H557.249V319.908Z" fill="#F2F2F2"/>
<path d="M457.249 301.908H455.249V320.408H457.249V301.908Z" fill="#F2F2F2"/>
<path d="M518.249 301.908H516.249V320.408H518.249V301.908Z" fill="#F2F2F2"/>
<path d="M601.249 560.908H461.249V562.908H601.249V560.908Z" fill="#F2F2F2"/>
<path d="M501.249 542.908H499.249V561.408H501.249V542.908Z" fill="#F2F2F2"/>
<path d="M562.249 542.908H560.249V561.408H562.249V542.908Z" fill="#F2F2F2"/>
<path d="M825.249 487.908H685.249V489.908H825.249V487.908Z" fill="#F2F2F2"/>
<path d="M725.249 469.908H723.249V488.408H725.249V469.908Z" fill="#F2F2F2"/>
<path d="M786.249 469.908H784.249V488.408H786.249V469.908Z" fill="#F2F2F2"/>
<path d="M362.06 702.184H125.274V700.481H360.356V617.861H145.18L134.727 596.084L136.263 595.347L146.252 616.157H362.06V702.184Z" fill="#2F2E41"/>
<path d="M156.789 743.92C166.667 743.92 174.675 735.912 174.675 726.033C174.675 716.154 166.667 708.146 156.789 708.146C146.91 708.146 138.902 716.154 138.902 726.033C138.902 735.912 146.91 743.92 156.789 743.92Z" fill="#3F3D56"/>
<path d="M333.101 743.92C342.979 743.92 350.987 735.912 350.987 726.033C350.987 716.154 342.979 708.146 333.101 708.146C323.222 708.146 315.214 716.154 315.214 726.033C315.214 735.912 323.222 743.92 333.101 743.92Z" fill="#3F3D56"/>
<path d="M540.927 357.226C547.043 357.226 552 352.268 552 346.153C552 340.038 547.043 335.08 540.927 335.08C534.812 335.08 529.854 340.038 529.854 346.153C529.854 352.268 534.812 357.226 540.927 357.226Z" fill="#3F3D56"/>
<path d="M387.385 589.753H121.237L63.6484 401.517H446.693L446.344 402.624L387.385 589.753ZM122.497 588.05H386.136L444.37 403.22H65.9508L122.497 588.05Z" fill="#2F2E41"/>
<path d="M366.61 579.958H132.842L82.26 413.015H418.701L418.395 413.998L366.61 579.958Z" fill="#F2F2F2"/>
<path d="M451.465 384.7L449.818 384.263L461.059 341.894H526.448V343.598H462.37L451.465 384.7Z" fill="#2F2E41"/>
<path d="M427.551 458.584H82.2583V460.287H427.551V458.584Z" fill="#2F2E41"/>
<path d="M407.778 521.344H101.459V523.047H407.778V521.344Z" fill="#2F2E41"/>
<path d="M256.017 402.368H254.314V588.901H256.017V402.368Z" fill="#2F2E41"/>
<path d="M332.286 402.315L320.058 588.843L321.758 588.955L333.986 402.426L332.286 402.315Z" fill="#2F2E41"/>
<path d="M178.081 402.313L176.38 402.424L188.538 588.957L190.238 588.846L178.081 402.313Z" fill="#2F2E41"/>
<path d="M896 745H0V747H896V745Z" fill="#2F2E41"/>
<path d="M595.411 61.876C595.411 61.876 610.029 103.482 601.033 109.883C592.037 116.284 631.394 168.559 631.394 168.559L678.623 155.757L652.76 112.017C652.76 112.017 649.386 68.277 649.386 61.876C649.386 55.475 595.411 61.876 595.411 61.876Z" fill="#A0616A"/>
<path opacity="0.1" d="M595.411 61.876C595.411 61.876 610.029 103.482 601.033 109.883C592.037 116.284 631.394 168.559 631.394 168.559L678.623 155.757L652.76 112.017C652.76 112.017 649.386 68.277 649.386 61.876C649.386 55.475 595.411 61.876 595.411 61.876Z" fill="black"/>
<path d="M570.874 358.454C570.874 358.454 566.606 411.795 570.874 439.533C575.141 467.27 581.542 544.082 581.542 544.082C581.542 544.082 581.542 689.171 605.012 691.304C628.482 693.438 645.552 695.572 647.685 687.037C649.819 678.502 637.017 674.235 643.418 669.968C649.819 665.7 651.953 650.765 643.418 633.696C634.883 616.626 643.418 443.8 643.418 443.8L683.957 552.617C683.957 552.617 688.225 642.23 692.492 655.032C696.759 667.834 688.225 691.304 703.16 693.438C718.096 695.572 735.165 682.77 743.7 678.502C752.234 674.235 730.898 674.235 735.165 672.101C739.432 669.968 752.234 663.567 747.967 661.433C743.7 659.299 739.432 556.884 739.432 556.884C739.432 556.884 727.697 338.184 712.762 329.65C697.826 321.115 688.225 335.816 688.225 335.816L570.874 358.454Z" fill="#2F2E41"/>
<path d="M609.279 682.77V699.839C609.279 699.839 590.077 746.238 609.279 746.238C628.482 746.238 643.418 751.046 643.418 744.646V687.037L609.279 682.77Z" fill="#2F2E41"/>
<path d="M735.165 682.739V699.808C735.165 699.808 754.368 746.208 735.165 746.208C715.962 746.208 701.027 751.016 701.027 744.615V687.007L735.165 682.739Z" fill="#2F2E41"/>
<path d="M625.282 92.814C646.493 92.814 663.688 75.6192 663.688 54.4082C663.688 33.1973 646.493 16.0024 625.282 16.0024C604.071 16.0024 586.876 33.1973 586.876 54.4082C586.876 75.6192 604.071 92.814 625.282 92.814Z" fill="#A0616A"/>
<path d="M613.547 125.886C613.547 125.886 624.215 157.89 641.284 151.489L658.353 145.088L688.225 349.919C688.225 349.919 664.754 384.058 630.616 362.721C596.477 341.385 613.547 125.886 613.547 125.886Z" fill="#0A81AB"/>
<path d="M643.418 119.485L653.019 99.215C653.019 99.215 709.561 125.886 718.096 134.42C726.631 142.955 726.63 155.757 726.63 155.757L711.695 209.098C711.695 209.098 715.962 326.449 715.962 330.717C715.962 334.984 730.898 358.454 720.23 349.919C709.561 341.385 707.428 332.85 698.893 345.652C690.358 358.454 671.156 373.39 671.156 373.39L643.418 119.485Z" fill="#3F3D56"/>
<path d="M718.096 273.108L711.695 332.85C711.695 332.85 673.289 366.989 681.824 369.122C690.358 371.256 694.626 362.721 694.626 362.721C694.626 362.721 709.561 377.657 718.096 369.122C726.63 360.588 747.967 279.509 747.967 279.509L718.096 273.108Z" fill="#A0616A"/>
<path d="M626.1 0.129871C617.586 -0.174499 608.474 -0.32506 601.296 4.26308C597.993 6.56567 595.096 9.40154 592.724 12.6546C585.732 21.4931 579.691 32.6139 582.288 43.58L585.304 42.4036C585.304 45.3308 584.654 48.2214 583.399 50.8662C583.824 49.6311 585.246 51.6277 584.866 52.877L581.543 63.7777C587.005 61.7753 593.8 65.8296 594.631 71.5874C595.011 58.9262 596.324 44.4078 606.595 36.9941C611.775 33.2554 618.33 32.1141 624.637 31.1006C630.455 30.1656 636.555 29.274 642.128 31.1895C647.7 33.1049 652.446 38.8045 651.183 44.5604C653.752 43.6752 656.626 45.466 657.896 47.8689C659.166 50.2718 659.233 53.1064 659.271 55.824C662.01 57.7598 665.127 53.9158 666.244 50.7529C668.864 43.3285 671.193 35.4255 669.782 27.6799C668.37 19.9343 662.058 12.5322 654.185 12.5059C655.141 11.4562 655.651 10.076 655.607 8.65715L649.118 8.10884C650.765 7.87558 652.28 7.07679 653.403 5.8493C650.798 8.71623 630.313 0.280481 626.1 0.129871Z" fill="#2F2E41"/>
<path d="M624.215 113.084C624.215 113.084 606.846 96.0628 600.595 97.1055C594.344 98.1481 585.809 113.084 585.809 113.084C585.809 113.084 534.602 130.153 536.735 147.222C538.869 164.291 562.339 247.504 562.339 247.504C562.339 247.504 581.542 347.786 564.473 358.454C547.404 369.122 645.552 396.86 647.685 384.058C649.819 371.256 654.086 243.237 647.685 224.034C641.284 204.831 624.215 113.084 624.215 113.084Z" fill="#3F3D56"/>
<path d="M698.893 147.222H725.276C725.276 147.222 743.7 228.301 745.833 236.836C747.967 245.37 752.234 285.91 750.101 285.91C747.967 285.91 705.294 277.375 705.294 283.776L698.893 147.222Z" fill="#3F3D56"/>
<path d="M698 348H597C587.144 302.66 586.32 258.854 597 217H698C681.701 258.101 680.682 301.607 698 348Z" fill="#F2F2F2"/>
<path d="M555.938 292.311L585.809 305.113C585.809 305.113 643.418 313.647 643.418 290.177C643.418 266.707 585.809 279.509 585.809 279.509L566.605 273.369L555.938 292.311Z" fill="#A0616A"/>
<path d="M562.339 134.42L536.735 140.821L517.532 253.905C517.532 253.905 511.131 283.776 521.8 285.91C532.468 288.043 562.339 305.113 562.339 305.113C562.339 305.113 566.606 273.108 575.141 273.108L553.804 256.039L566.606 181.361L562.339 134.42Z" fill="#3F3D56"/>
<path d="M200.249 352.908H60.2485V354.908H200.249V352.908Z" fill="#F2F2F2"/>
<path d="M100.249 334.908H98.2485V353.408H100.249V334.908Z" fill="#F2F2F2"/>
<path d="M161.249 334.908H159.249V353.408H161.249V334.908Z" fill="#F2F2F2"/>
<path d="M249.249 56.9078H109.249V58.9078H249.249V56.9078Z" fill="#F2F2F2"/>
<path d="M211.249 58.4078H209.249V76.9078H211.249V58.4078Z" fill="#F2F2F2"/>
<path d="M150.249 58.4078H148.249V76.9078H150.249V58.4078Z" fill="#F2F2F2"/>
<path d="M390.249 253.908H250.249V255.908H390.249V253.908Z" fill="#F2F2F2"/>
<path d="M352.249 255.408H350.249V273.908H352.249V255.408Z" fill="#F2F2F2"/>
<path d="M291.249 255.408H289.249V273.908H291.249V255.408Z" fill="#F2F2F2"/>
<path d="M152.249 252.908H12.2485V254.908H152.249V252.908Z" fill="#F2F2F2"/>
<path d="M114.249 254.408H112.249V272.908H114.249V254.408Z" fill="#F2F2F2"/>
<path d="M53.2485 254.408H51.2485V272.908H53.2485V254.408Z" fill="#F2F2F2"/>
<path d="M320.249 152.908H180.249V154.908H320.249V152.908Z" fill="#F2F2F2"/>
<path d="M220.249 134.908H218.249V153.408H220.249V134.908Z" fill="#F2F2F2"/>
<path d="M281.249 134.908H279.249V153.408H281.249V134.908Z" fill="#F2F2F2"/>
</g>
<defs>
<clipPath id="clip0">
<rect width="896" height="747.971" fill="white"/>
</clipPath>
</defs>
</svg>
