<svg width="877" height="640" viewBox="0 0 877 640" fill="none" xmlns="http://www.w3.org/2000/svg">
<g clip-path="url(#clip0)">
<path d="M645 0.365509H0.275269V413.276H645V0.365509Z" fill="#E6E6E6"/>
<path d="M626.564 52.1548H18.7111V388.848H626.564V52.1548Z" fill="white"/>
<path d="M644.725 0H0V27.3903H644.725V0Z" fill="#0A81AB"/>
<path d="M20.3542 19.0799C23.1579 19.0799 25.4308 16.8071 25.4308 14.0034C25.4308 11.1996 23.1579 8.92679 20.3542 8.92679C17.5505 8.92679 15.2776 11.1996 15.2776 14.0034C15.2776 16.8071 17.5505 19.0799 20.3542 19.0799Z" fill="white"/>
<path d="M39.6236 19.0799C42.4273 19.0799 44.7002 16.8071 44.7002 14.0034C44.7002 11.1996 42.4273 8.92679 39.6236 8.92679C36.8199 8.92679 34.5471 11.1996 34.5471 14.0034C34.5471 16.8071 36.8199 19.0799 39.6236 19.0799Z" fill="white"/>
<path d="M58.8931 19.0799C61.6968 19.0799 63.9696 16.8071 63.9696 14.0034C63.9696 11.1996 61.6968 8.92679 58.8931 8.92679C56.0894 8.92679 53.8165 11.1996 53.8165 14.0034C53.8165 16.8071 56.0894 19.0799 58.8931 19.0799Z" fill="white"/>
<path d="M212.388 79.8477H93.5006V208.829H212.388V79.8477Z" fill="#E6E6E6"/>
<path d="M382.08 79.8477H263.193V208.829H382.08V79.8477Z" fill="#E6E6E6"/>
<path d="M551.772 79.8477H432.885V208.829H551.772V79.8477Z" fill="#E6E6E6"/>
<path d="M212.388 232.176H93.5006V361.158H212.388V232.176Z" fill="#E6E6E6"/>
<path d="M382.08 232.176H263.193V361.158H382.08V232.176Z" fill="#E6E6E6"/>
<path d="M551.772 232.176H432.885V361.158H551.772V232.176Z" fill="#E6E6E6"/>
<path d="M291.928 265.325L313.65 256.737L316.175 299.676C316.175 299.676 320.722 312.81 319.206 317.862C319.206 317.862 320.217 326.45 317.691 326.955C315.165 327.46 308.093 328.47 307.588 327.965C307.083 327.46 307.083 325.945 307.083 325.945C307.083 325.945 302.031 329.481 301.526 333.522C301.526 333.522 280.309 340.089 279.804 334.027C279.299 327.965 290.412 322.914 290.412 322.914L299 309.779L291.928 265.325Z" fill="white"/>
<path d="M337.897 265.325L359.619 256.737L362.145 299.676C362.145 299.676 366.692 312.81 365.176 317.862C365.176 317.862 366.187 326.45 363.661 326.955C361.135 327.46 354.063 328.47 353.557 327.965C353.052 327.46 353.052 325.945 353.052 325.945C353.052 325.945 348.001 329.481 347.496 333.522C347.496 333.522 326.279 340.089 325.774 334.027C325.268 327.965 336.382 322.914 336.382 322.914L344.97 309.779L337.897 265.325Z" fill="white"/>
<path d="M340.022 99.5098C340.022 99.5098 335.397 112.434 340.756 118.262L336.289 133.614C336.289 133.614 352.162 181.236 347.627 187.888C347.627 187.888 330.695 196.354 296.831 184.864L310.588 131.498L308.623 108.972L311.344 98.3893L317.391 97.7845C317.391 97.7845 313.763 111.391 320.415 113.507C327.067 115.624 333.556 98.1242 333.556 98.1242L340.022 99.5098Z" fill="#3F3D56"/>
<path d="M126.421 182.941L132.258 185.329L160.116 148.716L168.871 191.696L174.708 190.635C178.452 153.58 181.505 115.785 177.759 97.9093L156.136 96.9807L146.32 128.287L141.544 149.512L126.421 182.941Z" fill="white"/>
<path d="M480.678 97.6123C480.678 97.6123 472.712 108.687 473.101 113.155C473.489 117.624 478.541 190.482 478.541 190.482L490.392 191.065L486.895 138.607L489.809 124.424L496.998 190.482L511.57 190.87L498.552 105.19L496.027 97.6124L480.678 97.6123Z" fill="white"/>
<path d="M525.7 276.018C523.585 273.48 519.949 272.107 516.458 271.366C516.562 271.048 505.839 268.834 505.66 269.29L501.619 266.071L489.204 272.518L482.227 267.769L478.985 268.919C479.117 268.347 468.924 270.112 468.924 270.112C466.977 270.182 464.49 270.304 461.706 270.518C451.957 271.268 451.207 296.516 451.207 296.516C455.693 294.681 460.476 293.68 465.321 293.561L467.956 323.763C481.508 322.601 495.722 323.953 510.451 327.263L517.36 303.522L533.449 297.266C533.449 297.266 530.7 282.017 525.7 276.018Z" fill="#3F3D56"/>
<path d="M180.441 261.638C178.698 259.547 175.703 258.417 172.826 257.805C172.912 257.544 164.077 255.719 163.929 256.095L160.599 253.443L150.369 258.755L144.62 254.841L141.95 255.789C142.059 255.318 133.66 256.773 133.66 256.773C132.056 256.83 130.006 256.931 127.713 257.107C119.68 257.725 119.062 278.528 119.062 278.528C122.758 277.016 126.699 276.191 130.691 276.093L132.862 337.007C144.029 336.05 155.741 337.164 167.877 339.891L173.569 284.301L186.826 279.146C186.826 279.146 184.56 266.582 180.441 261.638Z" fill="white"/>
<path d="M613 612.618L532.578 629.079L530.745 628.892L460.071 621.759V532.196L546.587 517.569L609.346 524.888L609.369 525.285V525.472L613 612.618Z" fill="#E6E6E6"/>
<path opacity="0.1" d="M613 612.618L532.578 629.079L530.745 628.892V537.076L609.369 525.285L613 612.618Z" fill="black"/>
<path opacity="0.05" d="M609.369 525.472L609.346 525.495L530.745 537.076L460.071 532.196L546.587 517.569L609.346 524.888L609.369 525.285V525.472Z" fill="black"/>
<path d="M518.697 566.645L469.801 563.453L468.303 586.405L517.199 589.596L518.697 566.645Z" fill="white"/>
<path d="M506.733 573.38L480.788 571.686L480.267 579.669L506.212 581.363L506.733 573.38Z" fill="#0A81AB"/>
<path d="M722 612.618L641.578 629.079L639.745 628.892L569.071 621.759V532.196L655.587 517.569L718.346 524.888L718.369 525.285V525.472L722 612.618Z" fill="#0A81AB"/>
<path opacity="0.1" d="M722 612.618L641.578 629.079L639.745 628.892V537.076L718.369 525.285L722 612.618Z" fill="black"/>
<path opacity="0.05" d="M718.369 525.472L718.346 525.495L639.745 537.076L569.071 532.196L655.587 517.569L718.346 524.888L718.369 525.285V525.472Z" fill="black"/>
<path d="M627.697 566.645L578.801 563.453L577.303 586.405L626.199 589.596L627.697 566.645Z" fill="white"/>
<path d="M615.733 573.38L589.788 571.686L589.267 579.669L615.212 581.363L615.733 573.38Z" fill="#0A81AB"/>
<path d="M780.195 165.621C780.195 165.621 794.384 202.277 768.37 202.277C742.356 202.277 808.574 238.934 834.588 217.649C860.602 196.365 845.23 195.183 845.23 195.183C845.23 195.183 810.939 198.73 812.121 167.986L780.195 165.621Z" fill="#FFB8B8"/>
<path d="M798.679 176.655C821.776 176.655 840.499 157.931 840.499 134.835C840.499 111.739 821.776 93.0155 798.679 93.0155C775.583 93.0155 756.86 111.739 756.86 134.835C756.86 157.931 775.583 176.655 798.679 176.655Z" fill="#2F2E41"/>
<path d="M773.1 318.159L728.166 434.04C728.166 434.04 705.7 469.514 713.977 504.988C722.254 540.462 745 605.025 745 605.025C745 605.025 762.183 609.397 761 594.025C759.818 578.652 761.737 504.126 744 484.025L815.669 402.114L818.034 495.528C818.034 495.528 813.304 538.097 814.486 557.017C815.669 575.936 818.034 607.863 818.034 607.863L832.223 605.498C832.223 605.498 851.365 518.404 849 490.025C849 490.025 892.934 352.134 848 319.025L773.1 318.159Z" fill="#2F2E41"/>
<path d="M749.94 604.832C749.94 604.832 744.154 603.359 743.488 608.665C742.821 613.971 730.652 637.569 743.357 638.75C756.062 639.931 760.457 628.045 762.585 619.688C764.713 611.332 765.519 610.852 767.296 609.251C769.073 607.65 773.302 598.878 767.995 598.212C762.689 597.545 759.969 592.327 759.969 592.327C759.969 592.327 758.296 606.96 749.94 604.832Z" fill="#2F2E41"/>
<path d="M827.297 600.729C827.297 600.729 816.567 599.196 817.333 603.028C818.1 606.86 815.801 622.954 817.333 624.487C818.866 626.02 821.932 629.086 821.932 631.385C821.932 633.684 822.698 641.348 835.727 639.049C848.756 636.75 845.69 625.254 844.924 623.721C844.158 622.188 834.961 614.524 835.727 609.925C836.494 605.327 831.895 597.663 827.297 600.729Z" fill="#2F2E41"/>
<path d="M799.195 181.242C815.193 181.242 828.162 168.274 828.162 152.276C828.162 136.279 815.193 123.31 799.195 123.31C783.198 123.31 770.229 136.279 770.229 152.276C770.229 168.274 783.198 181.242 799.195 181.242Z" fill="#FFB8B8"/>
<path d="M826.902 192.226C826.902 192.226 837.005 212.215 806.553 212.782C797.191 212.956 786.057 206.134 781.461 197.976C778.754 193.17 778.07 199.808 773.691 199.321C765.4 198.4 756.542 201.84 748.616 206.055C747.592 206.598 746.789 207.48 746.343 208.55C745.898 209.62 745.838 210.811 746.173 211.921C752.184 231.864 769.35 327.801 772 333.025C778.767 346.363 852 324.025 852 324.025C853.004 287.731 839.83 236.953 863 200.025C857.903 196.195 852.037 193.514 845.806 192.168C839.574 190.822 833.125 190.842 826.902 192.226V192.226Z" fill="#575A89"/>
<path d="M826.283 130.002L805.06 118.886L775.753 123.433L769.69 150.214L784.784 149.633L789 139.794V149.471L795.965 149.203L800.007 133.539L802.534 150.214L827.292 149.708L826.283 130.002Z" fill="#2F2E41"/>
<path d="M800.88 104.021C810.2 104.021 817.755 96.4657 817.755 87.1461C817.755 77.8266 810.2 70.2716 800.88 70.2716C791.561 70.2716 784.006 77.8266 784.006 87.1461C784.006 96.4657 791.561 104.021 800.88 104.021Z" fill="#2F2E41"/>
<path d="M779.604 82.0104C779.604 77.9798 781.047 74.0824 783.671 71.0229C786.295 67.9635 789.927 65.9441 793.91 65.33C791.507 64.9621 789.052 65.1182 786.714 65.7874C784.376 66.4567 782.21 67.6234 780.365 69.2075C778.52 70.7917 777.039 72.7559 776.024 74.9657C775.009 77.1755 774.483 79.5786 774.483 82.0104C774.483 84.4422 775.009 86.8453 776.024 89.055C777.039 91.2648 778.52 93.229 780.365 94.8132C782.21 96.3974 784.376 97.564 786.714 98.2333C789.052 98.9026 791.507 99.0586 793.91 98.6908C789.927 98.0766 786.295 96.0572 783.671 92.9978C781.047 89.9384 779.604 86.041 779.604 82.0104V82.0104Z" fill="#2F2E41"/>
<path d="M877 483.618L796.578 500.079L794.745 499.892L724.071 492.759V403.196L810.587 388.569L873.346 395.888L873.369 396.285V396.472L877 483.618Z" fill="#E6E6E6"/>
<path opacity="0.1" d="M877 483.618L796.578 500.079L794.745 499.892V408.076L873.369 396.285L877 483.618Z" fill="black"/>
<path opacity="0.05" d="M873.369 396.472L873.346 396.495L794.745 408.076L724.071 403.196L810.587 388.569L873.346 395.888L873.369 396.285V396.472Z" fill="black"/>
<path d="M782.697 437.645L733.801 434.453L732.303 457.405L781.199 460.596L782.697 437.645Z" fill="white"/>
<path d="M770.733 444.38L744.788 442.686L744.267 450.669L770.212 452.363L770.733 444.38Z" fill="#0A81AB"/>
<path d="M751.721 380.194C751.721 380.194 722.159 403.844 735.166 412.121C748.173 420.398 763.546 380.194 763.546 380.194H751.721Z" fill="#FFB8B8"/>
<path d="M753 205.025C751.469 203.299 732.133 213.16 735 226.025L736.349 315.159C736.349 315.159 729.254 388.472 746.991 388.472C764.728 388.472 762.635 390.937 765 385.025C767.365 379.112 768 329.025 768 329.025L753 205.025Z" fill="#575A89"/>
<path d="M844.454 372.194C844.454 372.194 859.827 412.398 872.834 404.121C885.841 395.844 856.279 372.194 856.279 372.194H844.454Z" fill="#FFB8B8"/>
<path d="M848 322.025C848 322.025 840.635 371.112 843 377.025C845.365 382.937 843.272 380.472 861.009 380.472C878.746 380.472 871.651 307.159 871.651 307.159L873 218.025C875.867 205.16 856.531 195.299 855 197.025L838 255.025L848 322.025Z" fill="#575A89"/>
</g>
<defs>
<clipPath id="clip0">
<rect width="877" height="639.474" fill="white"/>
</clipPath>
</defs>
</svg>
