<svg width="250" height="250" viewBox="0 0 250 250" fill="none" xmlns="http://www.w3.org/2000/svg">
<rect width="250" height="250" fill="url(#paint0_radial)"/>
<path d="M62.5625 59.9062H82.3203C84.5703 59.9062 87.0312 60 89.7031 60.1875C92.4219 60.375 95.1172 60.8437 97.7891 61.5938C100.508 62.2969 103.109 63.375 105.594 64.8281C108.125 66.2812 110.352 68.2734 112.273 70.8047C114.242 73.3359 115.812 76.5234 116.984 80.3672C118.156 84.1641 118.742 88.7812 118.742 94.2188V97.2422C118.742 106.383 117.43 113.836 114.805 119.602C112.18 125.32 108.312 129.445 103.203 131.977L122.469 180H103.203L87.2422 135.07H80.4219V180H62.5625V59.9062ZM83.1641 121.922C86.3516 121.922 89.0469 121.57 91.25 120.867C93.4531 120.164 95.2344 118.992 96.5938 117.352C97.9531 115.664 98.9375 113.461 99.5469 110.742C100.156 107.977 100.461 104.578 100.461 100.547V91.0547C100.461 87.9609 100.18 85.2891 99.6172 83.0391C99.0547 80.7891 98.0938 78.9375 96.7344 77.4844C95.4219 76.0312 93.6641 74.9531 91.4609 74.25C89.2578 73.5469 86.4922 73.1953 83.1641 73.1953H80.4219V121.922H83.1641ZM135.125 83.1797H148.836L150.453 93.5156V93.5859C151.859 91.3828 153.359 89.5547 154.953 88.1016C156.594 86.6016 158.281 85.4062 160.016 84.5156C161.75 83.625 163.508 82.9922 165.289 82.6172C167.117 82.2422 168.922 82.0547 170.703 82.0547C176.375 82.0547 180.734 84.0469 183.781 88.0312C186.875 91.9688 188.422 97.8984 188.422 105.82V180H170.633V106.453C170.633 102.188 169.977 99.2344 168.664 97.5938C167.352 95.9062 165.43 95.0625 162.898 95.0625C161.117 95.0625 159.336 95.6484 157.555 96.8203C155.82 97.9922 154.273 99.6094 152.914 101.672V180H135.125V83.1797Z" fill="white"/>
<defs>
<radialGradient id="paint0_radial" cx="0" cy="0" r="1" gradientUnits="userSpaceOnUse" gradientTransform="translate(125 125) rotate(90) scale(125)">
<stop stop-color="#0A81AB"/>
<stop offset="1" stop-color="#0C4271"/>
</radialGradient>
</defs>
</svg>
