<svg width="817" height="621" viewBox="0 0 817 621" fill="none" xmlns="http://www.w3.org/2000/svg">
<g clip-path="url(#clip0)">
<path d="M326.608 128.781H323.631V47.2108C323.631 41.011 322.41 34.8719 320.037 29.144C317.665 23.4161 314.187 18.2117 309.803 13.8277C305.419 9.4438 300.215 5.96628 294.487 3.59372C288.759 1.22115 282.62 5.25296e-06 276.42 0H103.602C91.0812 -2.38694e-05 79.073 4.97392 70.2192 13.8276C61.3655 22.6813 56.3915 34.6895 56.3915 47.2106V494.712C56.3915 500.912 57.6126 507.051 59.9852 512.779C62.3577 518.507 65.8352 523.711 70.2191 528.095C74.6031 532.479 79.8075 535.957 85.5354 538.329C91.2633 540.702 97.4023 541.923 103.602 541.923H276.42C288.941 541.923 300.949 536.949 309.803 528.095C318.657 519.242 323.631 507.233 323.631 494.712V186.844H326.608V128.781Z" fill="#3F3D56"/>
<path d="M278.325 12.2826H255.767C256.804 14.826 257.2 17.5855 256.92 20.3179C256.639 23.0504 255.691 25.672 254.159 27.9518C252.627 30.2317 250.558 32.0997 248.134 33.3914C245.71 34.6831 243.005 35.3588 240.258 35.359H141.253C138.506 35.3588 135.802 34.6831 133.377 33.3914C130.953 32.0997 128.884 30.2317 127.352 27.9519C125.82 25.672 124.872 23.0504 124.591 20.3179C124.311 17.5855 124.707 14.826 125.745 12.2826H104.675C100.045 12.2826 95.4603 13.1945 91.1828 14.9663C86.9053 16.7381 83.0186 19.3351 79.7448 22.6089C76.4709 25.8828 73.8739 29.7694 72.1021 34.047C70.3303 38.3245 69.4184 42.9091 69.4184 47.539V494.384C69.4184 499.014 70.3303 503.598 72.1021 507.876C73.8739 512.153 76.4709 516.04 79.7448 519.314C83.0186 522.588 86.9053 525.185 91.1828 526.957C95.4603 528.728 100.045 529.64 104.675 529.64H278.325C282.955 529.64 287.54 528.728 291.817 526.957C296.095 525.185 299.981 522.588 303.255 519.314C306.529 516.04 309.126 512.153 310.898 507.876C312.67 503.598 313.581 499.014 313.581 494.384V47.539C313.581 42.9091 312.67 38.3245 310.898 34.047C309.126 29.7694 306.529 25.8828 303.255 22.6089C299.981 19.3351 296.095 16.7381 291.817 14.9663C287.54 13.1945 282.955 12.2826 278.325 12.2826Z" fill="white"/>
<path d="M382 542H1C0.734784 542 0.480429 541.895 0.292892 541.707C0.105356 541.52 0 541.265 0 541C0 540.735 0.105356 540.48 0.292892 540.293C0.480429 540.105 0.734784 540 1 540H382C382.265 540 382.52 540.105 382.707 540.293C382.895 540.48 383 540.735 383 541C383 541.265 382.895 541.52 382.707 541.707C382.52 541.895 382.265 542 382 542Z" fill="#CBCBCB"/>
<path d="M191.5 345.68C238.138 345.68 275.946 307.872 275.946 261.234C275.946 214.595 238.138 176.787 191.5 176.787C144.862 176.787 107.054 214.595 107.054 261.234C107.054 307.872 144.862 345.68 191.5 345.68Z" fill="#0A81AB"/>
<path d="M183.132 293.447C181.232 293.451 179.383 292.836 177.863 291.696L177.768 291.626L157.922 276.444C157.003 275.739 156.232 274.861 155.652 273.858C155.073 272.855 154.697 271.748 154.545 270.6C154.393 269.451 154.469 268.285 154.769 267.166C155.068 266.047 155.585 264.998 156.289 264.079C156.994 263.16 157.873 262.388 158.875 261.809C159.878 261.229 160.985 260.853 162.133 260.701C163.282 260.55 164.449 260.626 165.567 260.925C166.686 261.224 167.735 261.741 168.654 262.446L181.509 272.303L211.885 232.674C212.589 231.755 213.468 230.984 214.47 230.405C215.473 229.826 216.579 229.449 217.727 229.298C218.875 229.146 220.041 229.222 221.159 229.521C222.278 229.821 223.326 230.337 224.245 231.041L224.248 231.043L224.059 231.305L224.253 231.043C226.106 232.468 227.319 234.57 227.625 236.887C227.931 239.205 227.304 241.549 225.883 243.406L190.154 289.998C189.328 291.071 188.265 291.94 187.049 292.536C185.832 293.133 184.494 293.441 183.14 293.437L183.132 293.447Z" fill="white"/>
<path d="M694.245 550.3C695.272 548.639 696.482 547.098 697.851 545.705C698.415 545.119 699.011 544.568 699.625 544.031C703.359 540.708 707.91 538.439 712.811 537.458C717.713 536.476 722.787 536.819 727.512 538.449C732.238 540.079 736.444 542.938 739.698 546.732C742.952 550.527 745.136 555.119 746.027 560.038C750.151 544.786 739.415 529.762 728.621 518.223C717.821 506.687 705.478 494.031 705.54 478.224C705.57 469.429 709.873 461.582 716.369 455.764C716.569 455.588 716.77 455.412 716.974 455.242C724.826 448.511 734.928 444.991 745.262 445.384C764.461 446.412 781.225 459.315 792.867 474.621C811.606 499.248 819.817 533.818 806.698 561.852C795.159 586.509 770.55 601.15 745.433 612.921C741.926 614.565 738.426 616.16 734.933 617.704C734.91 617.71 734.884 617.727 734.861 617.733C734.693 617.807 734.525 617.881 734.367 617.957C733.646 618.275 732.925 618.593 732.21 618.907L732.541 619.124L733.574 619.792C733.216 619.576 732.862 619.365 732.504 619.148C732.397 619.083 732.285 619.021 732.179 618.955C719.843 611.553 707.335 603.723 698.813 592.167C689.975 580.17 686.421 562.984 694.245 550.3Z" fill="#F1F1F1"/>
<path d="M776.548 522.436C779.279 528.65 781.09 535.23 781.923 541.966C782.579 547.973 782.332 554.045 781.192 559.979C778.743 572.173 773.4 583.601 765.615 593.301C759.741 600.665 752.96 607.258 745.433 612.921C741.926 614.565 738.426 616.16 734.933 617.704C734.91 617.71 734.884 617.727 734.861 617.733C734.693 617.807 734.525 617.881 734.367 617.957C733.646 618.275 732.925 618.593 732.211 618.907L732.542 619.124L733.574 619.793C733.216 619.576 732.862 619.365 732.504 619.148C732.398 619.083 732.285 619.021 732.179 618.955C734.893 609.459 735.293 599.451 733.343 589.769C731.393 580.087 727.15 571.013 720.971 563.309C714.759 555.701 706.837 549.669 697.851 545.705C698.415 545.119 699.011 544.568 699.625 544.031C703.086 545.62 706.4 547.513 709.528 549.686C720.716 557.418 729.116 568.547 733.487 581.426C737.389 593.109 737.876 605.663 734.892 617.614C735.511 617.209 736.132 616.794 736.737 616.381C748.229 608.631 758.82 599.323 766.798 587.91C773.678 578.264 778.081 567.074 779.619 555.325C781.148 542.491 777.937 529.871 772.207 518.42C765.88 506.169 757.908 494.841 748.511 484.75C739.073 474.38 728.402 465.205 716.735 457.428C716.472 457.25 716.288 456.979 716.219 456.669C716.151 456.359 716.205 456.035 716.369 455.764C716.494 455.517 716.711 455.329 716.974 455.242C717.108 455.208 717.247 455.204 717.382 455.232C717.517 455.259 717.644 455.316 717.754 455.4C719.194 456.361 720.622 457.33 722.033 458.329C733.782 466.648 744.452 476.395 753.798 487.345C762.829 497.9 771.048 509.626 776.548 522.436Z" fill="white"/>
<path d="M525.042 39.2105C534.946 39.2105 542.976 31.1812 542.976 21.2765C542.976 11.3718 534.946 3.34241 525.042 3.34241C515.137 3.34241 507.108 11.3718 507.108 21.2765C507.108 31.1812 515.137 39.2105 525.042 39.2105Z" fill="#F1F1F1"/>
<path d="M748.042 279.211C754.08 279.211 758.976 274.315 758.976 268.276C758.976 262.238 754.08 257.342 748.042 257.342C742.003 257.342 737.108 262.238 737.108 268.276C737.108 274.315 742.003 279.211 748.042 279.211Z" fill="#F1F1F1"/>
<path d="M428.042 309.211C434.08 309.211 438.976 304.315 438.976 298.276C438.976 292.238 434.08 287.342 428.042 287.342C422.003 287.342 417.108 292.238 417.108 298.276C417.108 304.315 422.003 309.211 428.042 309.211Z" fill="#F1F1F1"/>
<path d="M434.215 621H815.215C815.481 621 815.735 620.895 815.922 620.707C816.11 620.52 816.215 620.265 816.215 620C816.215 619.735 816.11 619.48 815.922 619.293C815.735 619.105 815.481 619 815.215 619H434.215C433.95 619 433.696 619.105 433.508 619.293C433.321 619.48 433.215 619.735 433.215 620C433.215 620.265 433.321 620.52 433.508 620.707C433.696 620.895 433.95 621 434.215 621Z" fill="#CBCBCB"/>
<path d="M773.17 96.635C773.67 93.0831 772.85 89.4711 770.865 86.4834C768.88 83.4957 765.868 81.3399 762.4 80.4245C758.932 79.5091 755.248 79.8977 752.047 81.5167C748.847 83.1357 746.351 85.8726 745.033 89.2088L714.116 124.653L723.188 149.99L754.281 108.575C756.309 109.225 758.456 109.422 760.57 109.152C762.683 108.883 764.712 108.153 766.513 107.015C768.313 105.876 769.843 104.357 770.993 102.564C772.143 100.77 772.886 98.7465 773.17 96.635Z" fill="#FFB7B7"/>
<path d="M645.013 234.549L747.642 125.02L733.799 103.012L605.076 211.876L645.013 234.549Z" fill="#3F3D56"/>
<path d="M622.108 168C641.99 168 658.108 151.882 658.108 132C658.108 112.118 641.99 96 622.108 96C602.225 96 586.108 112.118 586.108 132C586.108 151.882 602.225 168 622.108 168Z" fill="#2F2E41"/>
<path d="M625.001 111.663C632.748 103.808 642.122 97.7457 652.465 93.904C659.103 91.4446 666.329 89.9251 673.27 91.3218C680.21 92.7185 686.774 97.5199 688.71 104.33C690.293 109.898 688.658 115.893 686.201 121.135C683.744 126.377 680.464 131.238 678.477 136.675C676.449 142.223 675.839 148.19 676.703 154.033C677.566 159.876 679.875 165.412 683.42 170.136C686.966 174.861 691.635 178.625 697.004 181.088C702.373 183.55 708.272 184.633 714.166 184.237C707.346 185.152 701.06 188.356 694.395 190.062C687.729 191.768 679.862 191.652 674.909 186.877C669.668 181.824 669.563 173.61 669.816 166.334C670.193 155.519 670.57 144.704 670.946 133.889C671.138 128.374 671.302 122.682 669.313 117.534C667.324 112.386 662.597 107.878 657.079 107.925C652.896 107.961 649.194 110.494 645.84 112.993C642.486 115.492 638.936 118.158 634.769 118.529C630.603 118.901 625.846 115.818 626.158 111.647L625.001 111.663Z" fill="#2F2E41"/>
<path d="M485.377 373.723C481.921 374.683 478.233 374.342 475.011 372.764C471.79 371.187 469.259 368.482 467.898 365.164C466.538 361.845 466.442 358.142 467.629 354.757C468.815 351.372 471.203 348.54 474.338 346.798L505.439 311.514L531.743 317.197L494.746 353.436C495.656 355.362 496.132 357.465 496.141 359.595C496.149 361.726 495.691 363.832 494.798 365.766C493.905 367.701 492.598 369.416 490.971 370.79C489.343 372.165 487.434 373.166 485.377 373.723H485.377Z" fill="#FFB7B7"/>
<path d="M587.698 247.405L510.183 344.705L486.555 333.857L577.665 192.012L587.698 247.405Z" fill="#3F3D56"/>
<path d="M525.848 541.211L507.374 540.921L509.596 603.887H525.845L525.848 541.211Z" fill="#FFB7B7"/>
<path d="M529.99 598.582L497.989 598.581H497.988C492.579 598.581 487.392 600.73 483.568 604.554C479.743 608.378 477.594 613.565 477.594 618.974V619.637L529.989 619.639L529.99 598.582Z" fill="#2F2E41"/>
<path d="M648.165 524.511L627.984 537.467L668.352 586.032L682.026 577.253L648.165 524.511Z" fill="#FFB7B7"/>
<path d="M682.648 570.549L655.718 587.838L655.717 587.838C651.166 590.761 647.962 595.371 646.81 600.656C645.658 605.94 646.653 611.466 649.575 616.017L649.933 616.575L694.023 588.268L682.648 570.549Z" fill="#2F2E41"/>
<path d="M655.355 332.24C655.355 332.24 610.515 183.313 596.105 181.3C581.695 179.288 558.477 219.513 558.477 219.513C528.374 257.921 497.333 382.334 497.333 382.334C497.333 382.334 549.079 385.572 586.906 405.697C624.733 425.823 669.374 404.679 669.374 404.679L655.355 332.24Z" fill="#3F3D56"/>
<path opacity="0.1" d="M655.355 332.24C655.355 332.24 610.515 183.313 596.105 181.3C581.695 179.288 564.374 219.921 564.374 219.921C549.374 281.921 497.333 382.334 497.333 382.334C497.333 382.334 549.079 385.572 586.906 405.698C624.733 425.823 669.374 404.679 669.374 404.679L655.355 332.24Z" fill="black"/>
<path d="M618.567 287.682V362.517L627.374 470.921L671.374 552.921L650.374 567.921L590.374 489.921L566.643 412.472L529.374 583.921L501.374 581.921L520.82 344.21L557.721 277.3L618.567 287.682Z" fill="#2F2E41"/>
<path d="M573.358 215.3C559.358 229.3 572.358 244.3 572.358 244.3L556.358 280.3L619.358 297.3L641.374 198.921L626.374 182.921C596.374 181.921 596.358 181.3 596.358 181.3C591.101 186.444 573.358 215.3 573.358 215.3Z" fill="#0A81AB"/>
<path d="M643.911 188.73C641.05 186.617 637.798 185.094 634.343 184.248C630.889 183.401 627.301 183.249 623.788 183.798C620.274 184.348 616.904 185.59 613.874 187.452C610.844 189.313 608.213 191.757 606.134 194.643C590.296 216.695 575.651 252.304 595.829 296.714C628.228 368.024 656.422 404.529 667.884 404.525C668.384 404.529 668.882 404.451 669.357 404.294C676.412 401.9 686.613 389.962 688.46 379.441C689.121 375.675 688.964 370.43 684.46 366.829C671.525 356.482 648.302 324.267 641.058 281.865C637.055 258.435 644.819 237.093 652.036 223.315C655.085 217.614 655.977 211.005 654.548 204.7C653.12 198.395 649.467 192.816 644.259 188.986V188.986L643.911 188.73Z" fill="#3F3D56"/>
<path d="M623.959 164.463C636.801 157.443 641.521 141.342 634.501 128.5C627.481 115.658 611.379 110.938 598.537 117.958C585.695 124.978 580.975 141.08 587.995 153.922C595.016 166.764 611.117 171.483 623.959 164.463Z" fill="#FFB7B7"/>
<path d="M573.98 139.207H612.245L612.638 133.713L614.6 139.207H620.492L621.269 128.319L625.158 139.207H636.559V138.668C636.55 131.087 633.535 123.82 628.175 118.459C622.815 113.099 615.547 110.084 607.967 110.075H602.572C594.991 110.084 587.724 113.099 582.364 118.459C577.003 123.82 573.988 131.087 573.98 138.668V139.207Z" fill="#2F2E41"/>
<path d="M630.778 158.954L647.108 153.656V114H616.263L617.027 114.762C627.652 125.373 639.468 163.019 630.778 158.954Z" fill="#2F2E41"/>
</g>
<defs>
<clipPath id="clip0">
<rect width="816.215" height="621" fill="white"/>
</clipPath>
</defs>
</svg>
