<svg width="117" height="42" viewBox="0 0 117 42" fill="none" xmlns="http://www.w3.org/2000/svg">
<path d="M0.421875 0.96875H7.00781C7.75781 0.96875 8.57812 1 9.46875 1.0625C10.375 1.125 11.2734 1.28125 12.1641 1.53125C13.0703 1.76562 13.9375 2.125 14.7656 2.60938C15.6094 3.09375 16.3516 3.75781 16.9922 4.60156C17.6484 5.44531 18.1719 6.50781 18.5625 7.78906C18.9531 9.05469 19.1484 10.5938 19.1484 12.4062V13.4141C19.1484 16.4609 18.7109 18.9453 17.8359 20.8672C16.9609 22.7734 15.6719 24.1484 13.9688 24.9922L20.3906 41H13.9688L8.64844 26.0234H6.375V41H0.421875V0.96875ZM7.28906 21.6406C8.35156 21.6406 9.25 21.5234 9.98438 21.2891C10.7188 21.0547 11.3125 20.6641 11.7656 20.1172C12.2188 19.5547 12.5469 18.8203 12.75 17.9141C12.9531 16.9922 13.0547 15.8594 13.0547 14.5156V11.3516C13.0547 10.3203 12.9609 9.42969 12.7734 8.67969C12.5859 7.92969 12.2656 7.3125 11.8125 6.82812C11.375 6.34375 10.7891 5.98438 10.0547 5.75C9.32031 5.51562 8.39844 5.39844 7.28906 5.39844H6.375V21.6406H7.28906ZM29.3906 0.96875H36.375L43.7812 41H37.6406L36.5391 33.8281H29.2266L28.1719 41H22.0078L29.3906 0.96875ZM35.8359 29.2578L33.0234 9.3125H32.7656L29.9297 29.2578H35.8359ZM47.6719 0.96875H53.9766C54.9297 0.96875 55.9141 1 56.9297 1.0625C57.9609 1.10938 58.9609 1.27344 59.9297 1.55469C60.9141 1.83594 61.8359 2.27344 62.6953 2.86719C63.5703 3.44531 64.3359 4.26563 64.9922 5.32812C65.6484 6.375 66.1641 7.70312 66.5391 9.3125C66.9297 10.9062 67.125 12.8594 67.125 15.1719V26.7969C67.125 29.1094 66.9297 31.0703 66.5391 32.6797C66.1641 34.2891 65.6484 35.6172 64.9922 36.6641C64.3359 37.7109 63.5703 38.5312 62.6953 39.125C61.8359 39.7031 60.9141 40.1328 59.9297 40.4141C58.9609 40.6953 57.9609 40.8672 56.9297 40.9297C55.9141 40.9766 54.9297 41 53.9766 41H47.6719V0.96875ZM55.2891 36.7578C56.3828 36.7578 57.2812 36.6172 57.9844 36.3359C58.7031 36.0547 59.2656 35.5625 59.6719 34.8594C60.0938 34.1406 60.3828 33.1719 60.5391 31.9531C60.6953 30.7188 60.7734 29.1641 60.7734 27.2891V14.8672C60.7734 12.9922 60.6953 11.4453 60.5391 10.2266C60.3828 8.99219 60.0938 8.02344 59.6719 7.32031C59.2656 6.60156 58.7031 6.10156 57.9844 5.82031C57.2812 5.53906 56.3828 5.39844 55.2891 5.39844H53.7422V36.7578H55.2891ZM81.4219 41.3516C80.7812 41.3516 80.0859 41.2969 79.3359 41.1875C78.5859 41.0938 77.8438 40.8828 77.1094 40.5547C76.375 40.2266 75.6641 39.7656 74.9766 39.1719C74.3047 38.5625 73.7031 37.7656 73.1719 36.7812C72.6562 35.7969 72.2422 34.5859 71.9297 33.1484C71.6172 31.6953 71.4609 29.9688 71.4609 27.9688V13.7891C71.4609 11.7734 71.6172 10.0547 71.9297 8.63281C72.2578 7.19531 72.6875 5.99219 73.2188 5.02344C73.75 4.03906 74.3516 3.25781 75.0234 2.67969C75.7109 2.10156 76.4219 1.66406 77.1562 1.36719C77.9062 1.05469 78.6484 0.851562 79.3828 0.757812C80.1172 0.664062 80.7969 0.617188 81.4219 0.617188C82.0156 0.617188 82.6719 0.664062 83.3906 0.757812C84.125 0.835937 84.8516 1.02344 85.5703 1.32031C86.3047 1.60156 87.0156 2.03125 87.7031 2.60938C88.3906 3.17188 89 3.94531 89.5312 4.92969C90.0625 5.89844 90.4844 7.10938 90.7969 8.5625C91.125 10 91.2891 11.7422 91.2891 13.7891V27.9688C91.2891 29.9531 91.125 31.6641 90.7969 33.1016C90.4688 34.5234 90.0391 35.7344 89.5078 36.7344C88.9766 37.7188 88.3594 38.5156 87.6562 39.125C86.9688 39.7188 86.2578 40.1875 85.5234 40.5312C84.8047 40.8594 84.0859 41.0781 83.3672 41.1875C82.6484 41.2969 82 41.3516 81.4219 41.3516ZM81.4219 36.7812C82.0156 36.7812 82.5312 36.6797 82.9688 36.4766C83.4219 36.2734 83.7891 35.9219 84.0703 35.4219C84.3672 34.9219 84.5859 34.2656 84.7266 33.4531C84.8828 32.625 84.9609 31.5859 84.9609 30.3359V12.125C84.9609 10.8438 84.8828 9.77344 84.7266 8.91406C84.5859 8.05469 84.3672 7.36719 84.0703 6.85156C83.7891 6.32031 83.4219 5.94531 82.9688 5.72656C82.5312 5.50781 82.0156 5.39844 81.4219 5.39844C80.8125 5.39844 80.2812 5.50781 79.8281 5.72656C79.375 5.94531 79 6.32031 78.7031 6.85156C78.4062 7.36719 78.1797 8.05469 78.0234 8.91406C77.8828 9.77344 77.8125 10.8438 77.8125 12.125V30.3359C77.8125 31.5859 77.8828 32.625 78.0234 33.4531C78.1797 34.2656 78.4062 34.9219 78.7031 35.4219C79 35.9219 79.375 36.2734 79.8281 36.4766C80.2812 36.6797 80.8125 36.7812 81.4219 36.7812ZM97.0312 0.96875H101.953L111.656 27.7578H111.797C111.75 27.1328 111.688 26.4375 111.609 25.6719C111.531 24.9062 111.461 24.0391 111.398 23.0703C111.336 22.0859 111.281 20.9766 111.234 19.7422C111.188 18.5078 111.164 17.1172 111.164 15.5703V0.96875H116.602V41H111.633L101.977 14.9141H101.789C101.836 15.6172 101.898 16.3828 101.977 17.2109C102.055 18.0234 102.125 18.9844 102.188 20.0938C102.25 21.2031 102.305 22.5 102.352 23.9844C102.398 25.4531 102.422 27.2031 102.422 29.2344V41H97.0312V0.96875Z" fill="black"/>
</svg>
