<svg width="704" height="766" viewBox="0 0 704 766" fill="none" xmlns="http://www.w3.org/2000/svg">
<path d="M588.808 287.889H161.125C157.71 287.885 154.435 286.527 152.02 284.112C149.605 281.698 148.247 278.424 148.243 275.01V130.771C148.247 127.357 149.605 124.083 152.02 121.669C154.435 119.255 157.71 117.897 161.125 117.893H588.808C592.223 117.896 595.497 119.255 597.912 121.669C600.327 124.083 601.686 127.357 601.69 130.771V275.01C601.686 278.424 600.327 281.698 597.912 284.112C595.497 286.527 592.223 287.885 588.808 287.889V287.889Z" fill="#3F3D56"/>
<path d="M328.591 156.529H215.229V169.407H328.591V156.529Z" fill="white"/>
<path d="M478.022 171.983C482.291 171.983 485.752 168.523 485.752 164.256C485.752 159.988 482.291 156.529 478.022 156.529C473.754 156.529 470.293 159.988 470.293 164.256C470.293 168.523 473.754 171.983 478.022 171.983Z" fill="#0A81AB"/>
<path d="M503.786 171.983C508.055 171.983 511.516 168.523 511.516 164.256C511.516 159.988 508.055 156.529 503.786 156.529C499.518 156.529 496.057 159.988 496.057 164.256C496.057 168.523 499.518 171.983 503.786 171.983Z" fill="#0A81AB"/>
<path d="M529.55 171.983C533.819 171.983 537.28 168.523 537.28 164.256C537.28 159.988 533.819 156.529 529.55 156.529C525.282 156.529 521.821 159.988 521.821 164.256C521.821 168.523 525.282 171.983 529.55 171.983Z" fill="#0A81AB"/>
<path d="M588.808 470.763H161.125C157.71 470.759 154.435 469.401 152.02 466.987C149.605 464.572 148.247 461.299 148.243 457.885V313.646C148.247 310.231 149.605 306.958 152.02 304.544C154.435 302.129 157.71 300.771 161.125 300.767H588.808C592.223 300.771 595.497 302.129 597.912 304.543C600.327 306.958 601.686 310.231 601.69 313.646V457.885C601.686 461.299 600.327 464.572 597.912 466.987C595.497 469.401 592.223 470.759 588.808 470.763V470.763Z" fill="#3F3D56"/>
<path d="M328.591 339.403H215.229V352.282H328.591V339.403Z" fill="white"/>
<path d="M478.022 354.858C482.291 354.858 485.752 351.398 485.752 347.13C485.752 342.863 482.291 339.403 478.022 339.403C473.754 339.403 470.293 342.863 470.293 347.13C470.293 351.398 473.754 354.858 478.022 354.858Z" fill="#0A81AB"/>
<path d="M503.786 354.858C508.055 354.858 511.516 351.398 511.516 347.13C511.516 342.863 508.055 339.403 503.786 339.403C499.518 339.403 496.057 342.863 496.057 347.13C496.057 351.398 499.518 354.858 503.786 354.858Z" fill="#0A81AB"/>
<path d="M529.55 354.858C533.819 354.858 537.28 351.398 537.28 347.13C537.28 342.863 533.819 339.403 529.55 339.403C525.282 339.403 521.821 342.863 521.821 347.13C521.821 351.398 525.282 354.858 529.55 354.858Z" fill="#0A81AB"/>
<path d="M588.808 653.638H161.125C157.71 653.634 154.435 652.276 152.02 649.861C149.605 647.447 148.247 644.173 148.243 640.759V496.52C148.247 493.106 149.605 489.832 152.02 487.418C154.435 485.004 157.71 483.646 161.125 483.642H588.808C592.223 483.646 595.497 485.004 597.912 487.418C600.327 489.832 601.686 493.106 601.69 496.52V640.759C601.686 644.173 600.327 647.447 597.912 649.861C595.497 652.276 592.223 653.634 588.808 653.638V653.638Z" fill="#3F3D56"/>
<path d="M328.591 522.278H215.229V535.156H328.591V522.278Z" fill="white"/>
<path d="M478.022 537.732C482.291 537.732 485.752 534.272 485.752 530.005C485.752 525.737 482.291 522.278 478.022 522.278C473.754 522.278 470.293 525.737 470.293 530.005C470.293 534.272 473.754 537.732 478.022 537.732Z" fill="#0A81AB"/>
<path d="M503.786 537.732C508.055 537.732 511.516 534.272 511.516 530.005C511.516 525.737 508.055 522.278 503.786 522.278C499.518 522.278 496.057 525.737 496.057 530.005C496.057 534.272 499.518 537.732 503.786 537.732Z" fill="#0A81AB"/>
<path d="M529.55 537.732C533.819 537.732 537.28 534.272 537.28 530.005C537.28 525.737 533.819 522.278 529.55 522.278C525.282 522.278 521.821 525.737 521.821 530.005C521.821 534.272 525.282 537.732 529.55 537.732Z" fill="#0A81AB"/>
<path d="M432.836 765.585H0V594.986H5.1528V760.433H432.836V765.585Z" fill="#CCCCCC"/>
<path d="M270.522 0H703.358V170.599H698.205V5.15139H270.522V0Z" fill="#CCCCCC"/>
</svg>
